<?xml version="1.0" encoding="utf-8"?>
<!-- Generator: Adobe Illustrator 19.2.1, SVG Export Plug-In . SVG Version: 6.00 Build 0)  -->
<svg version="1.1" id="Layer_1" xmlns="http://www.w3.org/2000/svg" xmlns:xlink="http://www.w3.org/1999/xlink" x="0px" y="0px"
	 viewBox="0 0 96 48" style="enable-background:new 0 0 96 48;" xml:space="preserve">
<style type="text/css">
	.st0{fill:none;stroke:#444444;stroke-width:2;stroke-linecap:square;stroke-miterlimit:10;}
	.st1{fill:#E51E22;}
</style>
<g transform="translate(0, 0)">
	<path class="st0" d="M42.5,8c-4.7-4.7-12.3-4.7-17,0c-0.6,0.6-1.1,1.2-1.5,1.9c-0.4-0.7-0.9-1.3-1.5-1.9c-4.7-4.7-12.3-4.7-17,0
		s-4.7,12.3,0,17L24,43.5L42.5,25C47.2,20.3,47.2,12.7,42.5,8z"/>
</g>
<g>
	<path class="st1" d="M91.2,7.3c-5.1-5.1-13.3-5.1-18.4,0c-0.3,0.3-0.5,0.6-0.8,0.9c-0.3-0.3-0.5-0.6-0.8-0.9
		c-5.1-5.1-13.3-5.1-18.4,0s-5.1,13.3,0,18.4l18.5,18.5c0.2,0.2,0.5,0.3,0.7,0.3c0.3,0,0.5-0.1,0.7-0.3l18.5-18.5
		C96.3,20.6,96.3,12.4,91.2,7.3z"/>
</g>
</svg>
