<?xml version="1.0" encoding="utf-8"?>
<!-- Generator: Adobe Illustrator 19.2.1, SVG Export Plug-In . SVG Version: 6.00 Build 0)  -->
<svg version="1.1" id="Layer_1" xmlns="http://www.w3.org/2000/svg" xmlns:xlink="http://www.w3.org/1999/xlink" x="0px" y="0px"
	 viewBox="0 0 144 48" style="enable-background:new 0 0 144 48;" xml:space="preserve">
<style type="text/css">
	.st0{fill:none;stroke:#666666;stroke-width:2;stroke-linecap:round;stroke-linejoin:round;stroke-miterlimit:10;}
	.st1{fill:#666666;}
	.st2{fill:#EAD8C5;}
	.st3{fill:#444444;}
</style>
<g transform="translate(0, 0)">
	<polyline class="st0" points="12,46 2,46 2,24 12,24 	"/>
	<path class="st0" d="M12,24l6-22l0,0c3.3,0,6,2.7,6,6v12h15c3.7,0,6.5,3.3,5.9,6.9l-2.2,14c-0.5,2.9-3,5.1-5.9,5.1H12V24z"/>
</g>
<g>
	<path class="st1" d="M57,23h-7c-0.6,0-1,0.4-1,1v22c0,0.6,0.4,1,1,1h7V23z"/>
	<path class="st1" d="M59,47h1h24.9c3.5,0,6.4-2.5,6.9-5.9l2.2-14c0.3-2-0.3-4.1-1.6-5.6C91,19.9,89.1,19,87,19H73V8
		c0-3.9-3.1-7-7-7c-0.5,0-0.8,0.3-1,0.7L59,23V47z"/>
</g>
<g>
	<path class="st2" d="M132.9,47H108c-0.6,0-1-0.4-1-1V24c0-0.1,0-0.2,0-0.3l6-22c0.1-0.4,0.5-0.7,1-0.7c3.9,0,7,3.1,7,7v11h14
		c2,0,4,0.9,5.3,2.4c1.3,1.6,1.9,3.6,1.6,5.6l-2.2,14C139.2,44.5,136.3,47,132.9,47z"/>
	<path class="st3" d="M107,23h-9c-0.6,0-1,0.4-1,1v22c0,0.6,0.4,1,1,1h9V23z"/>
</g>
</svg>
