<svg xmlns="http://www.w3.org/2000/svg" viewBox="0 0 163.007 113.293"><title>logo_alternative</title><path d="M1.322,104.8V104.34c0-6.433,4.07-8.736,8.736-8.736a10.793,10.793,0,0,1,4.822.983v1.776A11.3,11.3,0,0,0,9.9,97.308c-4.614,0-6.222,3.12-6.222,6.744v0.7c0,3.984,1.322,6.841,6.273,6.841a11.905,11.905,0,0,0,3.474-.5V106.4H9.463v-1.681h6.118v7.633a17.672,17.672,0,0,1-5.678.937C4.666,113.293,1.322,110.677,1.322,104.8Z" transform="translate(-1.322)" fill="#018790"/><path d="M22.427,95.892h2.2V111.3h8.348v1.7H22.427V95.892Z" transform="translate(-1.322)" fill="#018790"/><path d="M37.88,104.653V104.22c0-5.376,3.059-8.616,8.166-8.616,5,0,8.063,3.048,8.063,8.641v0.432c0,5.377-3.059,8.617-8.14,8.617C40.938,113.293,37.88,110.244,37.88,104.653Zm13.869,0.384v-0.792c0-4.152-1.633-6.961-5.807-6.984-3.811,0-5.7,2.76-5.7,6.576v0.792c0,4.152,1.633,7.009,5.781,7.009C49.857,111.637,51.749,108.853,51.749,105.036Z" transform="translate(-1.322)" fill="#018790"/><path d="M60.411,95.892h5.652c4.277,0,5.962,1.584,5.962,4.3,0,1.8-.907,3.145-3.085,3.744v0.12c2.281,0.336,3.915,1.536,3.915,4.129,0,2.832-2.1,4.824-6.248,4.824h-6.2V95.892Zm5.341,7.464c2.308,0,4.044-.72,4.044-2.928,0-2.137-1.322-2.832-3.914-2.832H62.589v5.76h3.163Zm0.726,7.969c2.671,0,4.07-1.056,4.07-3.264,0-2.232-1.556-3.1-4.3-3.1H62.589v6.36h3.889Z" transform="translate(-1.322)" fill="#018790"/><path d="M84.083,95.892h2.126l6.74,17.113H90.668l-1.944-4.992H81.31l-1.919,4.992h-2.1Zm-2.151,10.417h6.092l-3.007-7.729H84.965Z" transform="translate(-1.322)" fill="#018790"/><path d="M98.447,95.892h2.2V111.3H109v1.7H98.447V95.892Z" transform="translate(-1.322)" fill="#018790"/><path d="M113.849,111.877v-0.6a11.1,11.1,0,0,0,5.081,1.177c3.552,0,5.056-1.44,5.056-3.841s-1.607-3.265-4.1-4.008l-1.166-.36c-3.163-.984-4.485-2.088-4.485-4.488,0-2.185,1.711-3.912,5.211-3.912a9.446,9.446,0,0,1,4.355.936v0.6a9.341,9.341,0,0,0-4.382-.937c-3.033,0-4.484,1.368-4.484,3.265,0,2.111,1.037,2.976,4.044,3.96l1.115,0.312c2.8,0.889,4.64,1.824,4.64,4.585,0,2.736-1.736,4.464-5.78,4.464A11.3,11.3,0,0,1,113.849,111.877Z" transform="translate(-1.322)" fill="#018790"/><path d="M131.531,96.036h0.882l11.147,15.722h0.025V96.036h0.648v16.8h-0.752L132.231,96.9h-0.026v15.938h-0.674v-16.8Z" transform="translate(-1.322)" fill="#018790"/><path d="M151.755,107.244V96.036h0.7V107.2c0,3.84,2.074,5.28,5.626,5.28s5.6-1.44,5.6-5.28V96.036h0.648v11.186c0,4.056-2.229,5.808-6.274,5.808C154.089,113.029,151.755,111.253,151.755,107.244Z" transform="translate(-1.322)" fill="#018790"/><path d="M111.121,37.206A30.061,30.061,0,0,0,85.3,7.441a4.82,4.82,0,0,0,.717-2.51,4.931,4.931,0,1,0-9.862,0,5,5,0,0,0,3.586,4.752v4.752a22.9,22.9,0,0,0,0,45.723V71.723h-13a1.345,1.345,0,1,0,0,2.69H94.983a1.345,1.345,0,0,0,0-2.69H82.431V67.24A30.074,30.074,0,0,0,111.121,37.206Zm-2.69,0a27.442,27.442,0,0,1-26,27.344V60.068a22.9,22.9,0,0,0,0-45.723V9.862A27.442,27.442,0,0,1,108.431,37.206ZM89.6,51.551a5.816,5.816,0,0,1,5.827-5.827,8.662,8.662,0,0,0,4.483-1.255A20.392,20.392,0,0,1,88.348,56.034,8.662,8.662,0,0,0,89.6,51.551Zm9.414-15.689A9.412,9.412,0,0,1,89.6,26.448a5.78,5.78,0,0,1,3.586-5.379,19.975,19.975,0,0,1,7.979,14.793H99.017Zm-12.1-9.414a12.168,12.168,0,0,0,12.1,12.1h2.062a5.845,5.845,0,0,1-5.648,4.483,8.571,8.571,0,0,0-8.517,8.517A5.769,5.769,0,0,1,82.431,57.2V17.124a19.152,19.152,0,0,1,8.158,2.331A8.46,8.46,0,0,0,86.914,26.448ZM78.845,4.931a2.241,2.241,0,1,1,2.241,2.241A2.22,2.22,0,0,1,78.845,4.931ZM68.266,21.7a8.591,8.591,0,0,0,6.9,6.9,5.876,5.876,0,0,1-5.738,4.662A5.816,5.816,0,0,1,63.6,27.434V27.255A18.591,18.591,0,0,1,68.266,21.7Zm-6.455,9.5a8.533,8.533,0,0,0,16.138-3.855A1.379,1.379,0,0,0,76.6,26a5.816,5.816,0,0,1-5.827-5.827V19.9a19.488,19.488,0,0,1,8.965-2.779V57.378a18.221,18.221,0,0,1-3.855-.628,8.363,8.363,0,0,0,2.062-5.559A12.187,12.187,0,0,0,65.845,39H61a12.015,12.015,0,0,1-.09-1.793A22.116,22.116,0,0,1,61.811,31.2ZM61.452,41.689h4.393A9.412,9.412,0,0,1,75.259,51.1a5.69,5.69,0,0,1-2.241,4.572A20.062,20.062,0,0,1,61.452,41.689Z" transform="translate(-1.322)" fill="#018790"/></svg>