<svg xmlns="http://www.w3.org/2000/svg" viewBox="0 0 163.007 111.857"><title>logo_inverse</title><g opacity="0.6"><path d="M1.322,103.361V102.9c0-6.433,4.07-8.737,8.736-8.737a10.791,10.791,0,0,1,4.822.984v1.776A11.287,11.287,0,0,0,9.9,95.871c-4.615,0-6.222,3.12-6.222,6.745v0.7c0,3.984,1.322,6.841,6.274,6.841a11.912,11.912,0,0,0,3.474-.5v-4.681H9.462v-1.68h6.118v7.633a17.7,17.7,0,0,1-5.677.936C4.667,111.857,1.322,109.241,1.322,103.361Z" transform="translate(-1.322)" fill="#fff"/><path d="M22.427,94.455h2.2v15.409h8.348v1.7H22.427V94.455Z" transform="translate(-1.322)" fill="#fff"/><path d="M37.88,103.216v-0.432c0-5.377,3.059-8.617,8.166-8.617,5,0,8.063,3.049,8.063,8.641v0.433c0,5.376-3.059,8.616-8.14,8.616C40.939,111.857,37.88,108.809,37.88,103.216ZM51.75,103.6v-0.792c0-4.152-1.633-6.96-5.807-6.984-3.811,0-5.7,2.761-5.7,6.577v0.792c0,4.152,1.633,7.008,5.781,7.008C49.857,110.2,51.75,107.416,51.75,103.6Z" transform="translate(-1.322)" fill="#fff"/><path d="M60.412,94.455h5.651c4.278,0,5.963,1.584,5.963,4.3,0,1.8-.908,3.144-3.085,3.744v0.12c2.282,0.336,3.915,1.536,3.915,4.128,0,2.832-2.1,4.824-6.248,4.824h-6.2V94.455Zm5.34,7.465c2.307,0,4.044-.72,4.044-2.929,0-2.136-1.322-2.832-3.915-2.832H62.589v5.761h3.163Zm0.726,7.969c2.67,0,4.07-1.057,4.07-3.265,0-2.231-1.555-3.1-4.3-3.1H62.589v6.36h3.889Z" transform="translate(-1.322)" fill="#fff"/><path d="M84.083,94.455h2.126l6.74,17.113H90.667l-1.944-4.992H81.309l-1.918,4.992h-2.1Zm-2.151,10.417h6.092l-3.007-7.729H84.964Z" transform="translate(-1.322)" fill="#fff"/><path d="M98.448,94.455h2.2v15.409H109v1.7H98.448V94.455Z" transform="translate(-1.322)" fill="#fff"/><path d="M113.849,110.441v-0.6a11.1,11.1,0,0,0,5.081,1.176c3.552,0,5.056-1.44,5.056-3.84s-1.607-3.265-4.1-4.009l-1.166-.36c-3.163-.983-4.485-2.088-4.485-4.488,0-2.184,1.711-3.912,5.211-3.912a9.444,9.444,0,0,1,4.355.937v0.6a9.353,9.353,0,0,0-4.382-.937c-3.033,0-4.484,1.368-4.484,3.265,0,2.112,1.037,2.977,4.044,3.96l1.115,0.313c2.8,0.888,4.64,1.824,4.64,4.584,0,2.736-1.736,4.465-5.78,4.465A11.289,11.289,0,0,1,113.849,110.441Z" transform="translate(-1.322)" fill="#fff"/><path d="M131.532,94.6h0.882l11.147,15.721h0.025V94.6h0.648v16.8h-0.752L132.232,95.463h-0.026V111.4h-0.674V94.6Z" transform="translate(-1.322)" fill="#fff"/><path d="M151.755,105.809V94.6h0.7v11.16c0,3.841,2.074,5.281,5.626,5.281s5.6-1.44,5.6-5.281V94.6h0.648v11.185c0,4.057-2.229,5.809-6.274,5.809C154.089,111.593,151.755,109.817,151.755,105.809Z" transform="translate(-1.322)" fill="#fff"/></g><path d="M110.565,37.4A29.408,29.408,0,0,0,85.306,8.279a4.715,4.715,0,0,0,.7-2.456,4.824,4.824,0,1,0-9.647,0,4.894,4.894,0,0,0,3.508,4.648V15.12a22.406,22.406,0,0,0,0,44.729V71.164H67.151a1.316,1.316,0,1,0,0,2.631H94.778a1.316,1.316,0,0,0,0-2.631H82.5V66.778A29.42,29.42,0,0,0,110.565,37.4Zm-2.631,0A26.846,26.846,0,0,1,82.5,64.147V59.762a22.406,22.406,0,0,0,0-44.729V10.647A26.846,26.846,0,0,1,107.933,37.4ZM89.516,51.43a5.689,5.689,0,0,1,5.7-5.7A8.473,8.473,0,0,0,99.6,44.5,19.949,19.949,0,0,1,88.288,55.815,8.473,8.473,0,0,0,89.516,51.43Zm9.209-15.348a9.208,9.208,0,0,1-9.209-9.209,5.654,5.654,0,0,1,3.508-5.262,19.54,19.54,0,0,1,7.806,14.471h-2.1Zm-11.84-9.209a11.9,11.9,0,0,0,11.84,11.84h2.017A5.718,5.718,0,0,1,95.216,43.1a8.385,8.385,0,0,0-8.332,8.332A5.644,5.644,0,0,1,82.5,56.955v-39.2a18.735,18.735,0,0,1,7.981,2.28A8.276,8.276,0,0,0,86.884,26.873ZM78.991,5.824a2.193,2.193,0,1,1,2.193,2.193A2.171,2.171,0,0,1,78.991,5.824Zm-10.349,16.4A8.4,8.4,0,0,0,75.4,28.978a5.749,5.749,0,0,1-5.613,4.561,5.689,5.689,0,0,1-5.7-5.7V27.662A18.187,18.187,0,0,1,68.642,22.224Zm-6.315,9.3A8.348,8.348,0,0,0,78.114,27.75,1.349,1.349,0,0,0,76.8,26.434a5.689,5.689,0,0,1-5.7-5.7V20.47a19.064,19.064,0,0,1,8.77-2.719V57.131a17.825,17.825,0,0,1-3.771-.614,8.181,8.181,0,0,0,2.017-5.438,11.922,11.922,0,0,0-11.84-11.928H61.538A11.754,11.754,0,0,1,61.45,37.4,21.635,21.635,0,0,1,62.327,31.521ZM61.976,41.783h4.3a9.208,9.208,0,0,1,9.209,9.209,5.566,5.566,0,0,1-2.193,4.473A19.626,19.626,0,0,1,61.976,41.783Z" transform="translate(-1.322)" fill="#fff" stroke="#018790" stroke-miterlimit="10" stroke-width="2"/></svg>