<svg xmlns="http://www.w3.org/2000/svg" viewBox="0 0 144.85 34.892"><title>logo_nav</title><path d="M35.06,18.955c0-3.524,2.252-5.684,5.38-5.684a4.75,4.75,0,0,1,3.387,1.334l-0.746.81a3.5,3.5,0,0,0-2.609-1.05c-2.463,0-4.035,1.74-4.035,4.56s1.458,4.619,4.035,4.619a3.541,3.541,0,0,0,2.252-.689v-3H40.149V18.821h3.824v4.56a5.224,5.224,0,0,1-3.63,1.261C37.232,24.641,35.06,22.511,35.06,18.955Z" fill="#018790"/><path d="M48.462,13.466h1.345V23.4h5.234v1.05H48.462V13.466Z" fill="#018790"/><path d="M57.618,18.911c0-3.495,2.074-5.639,5.007-5.639,2.949,0,5.023,2.145,5.023,5.639,0,3.51-2.074,5.73-5.023,5.73C59.692,24.641,57.618,22.42,57.618,18.911Zm8.653,0c0-2.8-1.442-4.544-3.646-4.544-2.187,0-3.63,1.74-3.63,4.544,0,2.82,1.442,4.635,3.63,4.635C64.829,23.545,66.271,21.731,66.271,18.911Z" fill="#018790"/><path d="M71.749,13.466h3.436c2.415,0,4.051.78,4.051,2.685a2.416,2.416,0,0,1-1.767,2.385V18.6a2.627,2.627,0,0,1,2.463,2.64c0,2.145-1.831,3.21-4.489,3.21H71.749V13.466Zm3.16,4.71c2.139,0,3-.72,3-1.875,0-1.35-.988-1.845-2.917-1.845h-1.9v3.72h1.815Zm0.324,5.279c2.107,0,3.387-.705,3.387-2.265,0-1.41-1.232-2.055-3.387-2.055H73.094v4.319h2.139Z" fill="#018790"/><path d="M89.769,20.981H85.345l-1.216,3.465H82.785l4.051-10.979H88.31l4.067,10.979H90.952Zm-0.34-.975-0.616-1.785c-0.454-1.245-.827-2.43-1.232-3.72H87.516c-0.389,1.305-.778,2.475-1.215,3.72l-0.616,1.785h3.744Z" fill="#018790"/><path d="M96.17,13.466h1.345V23.4h5.234v1.05H96.17V13.466Z" fill="#018790"/><path d="M111.16,23.005l0.81-.854a4.757,4.757,0,0,0,3.322,1.395c1.621,0,2.609-.765,2.609-1.89,0-1.185-.891-1.56-2.025-2.024l-1.718-.705c-1.1-.436-2.415-1.186-2.415-2.79,0-1.665,1.556-2.865,3.662-2.865a4.912,4.912,0,0,1,3.452,1.35l-0.713.795a3.973,3.973,0,0,0-2.739-1.05c-1.377,0-2.3.645-2.3,1.68,0,1.125,1.07,1.545,1.977,1.9l1.718,0.676c1.361,0.555,2.463,1.3,2.463,2.939,0,1.725-1.54,3.075-3.986,3.075A5.754,5.754,0,0,1,111.16,23.005Z" fill="#018790"/><path d="M123.248,13.466h1.377l4.489,7.109,1.28,2.25h0.081c-0.081-1.095-.178-2.295-0.178-3.42V13.466h1.28V24.446h-1.394l-4.456-7.109-1.3-2.25H124.35c0.065,1.095.162,2.205,0.162,3.345v6.015h-1.264V13.466Z" fill="#018790"/><path d="M136.456,19.991V13.466H137.8v6.54c0,2.7,1.264,3.539,2.852,3.539,1.6,0,2.917-.84,2.917-3.539v-6.54h1.28v6.524c0,3.5-1.864,4.65-4.2,4.65S136.456,23.486,136.456,19.991Z" fill="#018790"/><path d="M24.8,17.446A14.1,14.1,0,0,0,12.7,3.489a2.26,2.26,0,0,0,.336-1.177,2.312,2.312,0,1,0-4.624,0A2.346,2.346,0,0,0,10.089,4.54V6.768a10.739,10.739,0,0,0,0,21.439V33.63h-6.1a0.631,0.631,0,0,0,0,1.261H17.236a0.631,0.631,0,0,0,0-1.261H11.35v-2.1A14.1,14.1,0,0,0,24.8,17.446Zm-1.261,0A12.868,12.868,0,0,1,11.35,30.267v-2.1a10.739,10.739,0,0,0,0-21.439v-2.1A12.868,12.868,0,0,1,23.541,17.446Zm-8.828,6.726a2.727,2.727,0,0,1,2.732-2.732,4.061,4.061,0,0,0,2.1-.589,9.562,9.562,0,0,1-5.423,5.423A4.061,4.061,0,0,0,14.713,24.172Zm4.414-7.357A4.413,4.413,0,0,1,14.713,12.4a2.71,2.71,0,0,1,1.682-2.522,9.366,9.366,0,0,1,3.741,6.936H19.127ZM13.452,12.4a5.705,5.705,0,0,0,5.675,5.675h0.967a2.741,2.741,0,0,1-2.648,2.1,4.019,4.019,0,0,0-3.994,3.994,2.705,2.705,0,0,1-2.1,2.648V8.029a8.98,8.98,0,0,1,3.825,1.093A3.967,3.967,0,0,0,13.452,12.4ZM9.669,2.312A1.051,1.051,0,1,1,10.72,3.363,1.041,1.041,0,0,1,9.669,2.312Zm-4.96,7.861A4.028,4.028,0,0,0,7.945,13.41,2.755,2.755,0,0,1,5.255,15.6a2.727,2.727,0,0,1-2.732-2.732V12.78A8.717,8.717,0,0,1,4.708,10.173ZM1.682,14.629a4,4,0,0,0,7.567-1.808,0.647,0.647,0,0,0-.631-0.631A2.727,2.727,0,0,1,5.885,9.459V9.332a9.138,9.138,0,0,1,4.2-1.3V26.9a8.544,8.544,0,0,1-1.808-.294A3.921,3.921,0,0,0,9.248,24a5.714,5.714,0,0,0-5.675-5.717H1.3a5.634,5.634,0,0,1-.042-0.841A10.37,10.37,0,0,1,1.682,14.629ZM1.513,19.548h2.06a4.413,4.413,0,0,1,4.414,4.414,2.668,2.668,0,0,1-1.051,2.144A9.407,9.407,0,0,1,1.513,19.548Z" fill="#018790"/></svg>