<svg xmlns="http://www.w3.org/2000/svg" viewBox="0 0 381.21 43.45"><title>pbkdf2</title><path d="M6.94,27.48V42.71H0V0.7H12.74Q20,0.7,24,4.07t4,9.49a13.11,13.11,0,0,1-4.16,10q-4.16,3.9-11.25,3.9H6.94Zm0-21V21.8h4.51q4.48,0,6.83-2.08a7.42,7.42,0,0,0,2.34-5.86q0-7.41-8.61-7.41H6.94Z" fill="#333"/><path d="M33,42.71V0.7H46.38q6.09,0,9.65,2.67a8.29,8.29,0,0,1,3.56,6.94,9.91,9.91,0,0,1-2,6.21A10.91,10.91,0,0,1,52,20.27v0.12A11,11,0,0,1,58.9,23.6a9.77,9.77,0,0,1,2.59,7,10.58,10.58,0,0,1-4.25,8.73,16.82,16.82,0,0,1-10.72,3.34H33ZM40,6.3v12H44.5a8.67,8.67,0,0,0,5.7-1.71,6,6,0,0,0,2.07-4.85q0-5.39-7.21-5.39H40Zm0,17.55v13.3h5.95a9,9,0,0,0,6-1.8,6.16,6.16,0,0,0,2.12-5q0-6.53-9.05-6.53H40Z" fill="#333"/><path d="M99.7,42.71H90.62L76,23.5A10.58,10.58,0,0,1,75,22H74.89V42.71h-7V0.7h7V20.45H75A9.69,9.69,0,0,1,76,19L90.09,0.7h8.35L81.95,20.86Z" fill="#333"/><path d="M103.76,42.71V0.7h12.13q23.23,0,23.23,20.48,0,9.73-6.45,15.63t-17.29,5.9H103.76ZM110.7,6.62V36.83h5.57q7.35,0,11.44-4t4.09-11.43q0-14.74-15.26-14.74H110.7Z" fill="#333"/><path d="M168,6.62h-15.7V19.25H166.8v5.89H152.33V42.71h-7V0.7H168V6.62Z" fill="#333"/><path d="M197.73,42.71H171.36V39.46a12.21,12.21,0,0,1,.56-3.74,15.08,15.08,0,0,1,1.49-3.28,18.28,18.28,0,0,1,2.2-2.9q1.26-1.36,2.7-2.64t2.93-2.46q1.49-1.19,2.93-2.39t2.46-2.24a15,15,0,0,0,1.9-2.27,10.27,10.27,0,0,0,1.23-2.48,8.8,8.8,0,0,0,.44-2.83,7.63,7.63,0,0,0-.51-2.92,5.67,5.67,0,0,0-1.44-2.08A6.13,6.13,0,0,0,186.07,6a8.58,8.58,0,0,0-2.75-.42,12.7,12.7,0,0,0-5.24,1.2,18,18,0,0,0-5.13,3.6V3.84a21.49,21.49,0,0,1,2.61-1.68A17.77,17.77,0,0,1,178.28,1a16.83,16.83,0,0,1,3-.72A22.2,22.2,0,0,1,184.55,0a16.73,16.73,0,0,1,5.16.75,11,11,0,0,1,4,2.2,9.66,9.66,0,0,1,2.53,3.62,13,13,0,0,1,.89,5,15.49,15.49,0,0,1-.63,4.58,14.85,14.85,0,0,1-1.79,3.79,19.71,19.71,0,0,1-2.8,3.34q-1.64,1.58-3.66,3.25-1.7,1.38-3.38,2.68t-3,2.55a14.25,14.25,0,0,0-2.18,2.49,4.47,4.47,0,0,0-.83,2.5v0.15h19v5.83Z" fill="#333"/><path d="M225.92,36.77l-9.76-9.84-9.79,9.84L204.62,35l9.79-9.79-9.79-9.84,1.76-1.73,9.79,9.84,9.76-9.84,1.76,1.73-9.79,9.84L227.67,35Z" fill="#333"/><path d="M234.78,42.71v-2a17.61,17.61,0,0,1,.32-3.53,11.69,11.69,0,0,1,1-2.89,12.39,12.39,0,0,1,1.64-2.48A23.12,23.12,0,0,1,240,29.55q1.3-1.16,3-2.37l3.62-2.65q1.9-1.38,3.56-2.72A18.78,18.78,0,0,0,253,18.9,13,13,0,0,0,255,15.48a11.78,11.78,0,0,0,.72-4.26,8.74,8.74,0,0,0-2.3-6.46,8.73,8.73,0,0,0-6.46-2.3,12.56,12.56,0,0,0-5.42,1.23,21.83,21.83,0,0,0-5.1,3.43V4a20.25,20.25,0,0,1,5.19-2.9A16.23,16.23,0,0,1,247.4,0,13,13,0,0,1,252,.76a9.92,9.92,0,0,1,3.5,2.17,9.6,9.6,0,0,1,2.24,3.4,12,12,0,0,1,.79,4.45,14.67,14.67,0,0,1-.83,5.14A15.09,15.09,0,0,1,255.4,20,20.64,20.64,0,0,1,252,23.36q-1.92,1.54-4.06,3.06-2.84,2-4.8,3.59A21.52,21.52,0,0,0,240,33.08a9.91,9.91,0,0,0-1.77,3.08,11.29,11.29,0,0,0-.54,3.66v0.44h20.89v2.46H234.78Z" fill="#333"/><path d="M282.61,0.7V29.3h6.56v2.43h-6.56v11h-2.7v-11h-20V29.09q2.81-3.19,5.71-6.87t5.55-7.43Q273.79,11,276,7.41t3.72-6.71h2.87ZM263,29.3h16.93V5.51q-2.14,3.69-4.44,7.15t-4.54,6.52q-2.24,3.06-4.29,5.64T263,29.3Z" fill="#333"/><path d="M305.59,43.45q-5.8,0-9.08-5.33t-3.28-15.5q0-11.22,3.44-16.92A10.87,10.87,0,0,1,306.5,0q12.13,0,12.13,21.53,0,10.72-3.43,16.32A10.71,10.71,0,0,1,305.59,43.45Zm0.67-41q-4.83,0-7.53,5T296,22.27q0,9,2.58,13.87T305.94,41q4.66,0,7.25-4.94t2.59-14.11Q315.78,2.46,306.26,2.46Z" fill="#333"/><path d="M336.88,43.45q-5.8,0-9.08-5.33t-3.28-15.5q0-11.22,3.44-16.92A10.87,10.87,0,0,1,337.79,0q12.13,0,12.13,21.53,0,10.72-3.43,16.32A10.71,10.71,0,0,1,336.88,43.45Zm0.67-41q-4.83,0-7.53,5t-2.7,14.85q0,9,2.58,13.87T337.23,41q4.66,0,7.25-4.94t2.59-14.11Q347.08,2.46,337.55,2.46Z" fill="#333"/><path d="M368.17,43.45q-5.8,0-9.08-5.33t-3.28-15.5q0-11.22,3.44-16.92A10.87,10.87,0,0,1,369.08,0q12.13,0,12.13,21.53,0,10.72-3.43,16.32A10.71,10.71,0,0,1,368.17,43.45Zm0.67-41q-4.83,0-7.53,5t-2.7,14.85q0,9,2.58,13.87T368.52,41q4.66,0,7.25-4.94t2.59-14.11Q378.37,2.46,368.85,2.46Z" fill="#333"/></svg>