<svg class="nc-icon glyph" xmlns="http://www.w3.org/2000/svg" xmlns:xlink="http://www.w3.org/1999/xlink" x="0px" y="0px" width="64px" height="64px" viewBox="0 0 64 64"><g>
<path data-color="color-2" fill="#5cb85c" d="M47,40c0-2.757,2.243-5,5-5s5,2.243,5,5v5h2v-5c0-3.86-3.14-7-7-7s-7,3.14-7,7v5h2V40z"></path>
<path fill="#444444" d="M28,33c8.585,0,15-8.975,15-17c0-8.271-6.729-15-15-15S13,7.729,13,16C13,24.025,19.415,33,28,33z"></path>
<path data-color="color-2" fill="#5cb85c" d="M62,47H42c-0.552,0-1,0.448-1,1v14c0,0.552,0.448,1,1,1h20c0.552,0,1-0.448,1-1V48
	C63,47.448,62.552,47,62,47z M52,57c-1.105,0-2-0.895-2-2s0.895-2,2-2c1.105,0,2,0.895,2,2S53.105,57,52,57z"></path>
<path fill="#444444" d="M39,48c0-1.654,1.346-3,3-3h1v-4.399C39.035,39.678,34.068,39,28,39c-11.118,0-18.567,2.269-22.858,4.173
	C2.625,44.288,1,46.798,1,49.567V60c0,0.552,0.448,1,1,1h37V48z"></path>
</g></svg>