<?xml version="1.0" standalone="no"?>
<!DOCTYPE svg PUBLIC "-//W3C//DTD SVG 20010904//EN"
 "http://www.w3.org/TR/2001/REC-SVG-20010904/DTD/svg10.dtd">
<svg version="1.0" xmlns="http://www.w3.org/2000/svg"
 width="700.000000pt" height="700.000000pt" viewBox="0 0 700.000000 700.000000"
 preserveAspectRatio="xMidYMid meet">
<metadata>
Created by potrace 1.11, written by Peter Selinger 2001-2013
</metadata>
<g transform="translate(0.000000,700.000000) scale(0.100000,-0.100000)"
fill="#000000" stroke="none">
<path d="M4853 6848 c-100 -8 -242 -38 -325 -69 -29 -11 -57 -21 -63 -22 -5
-2 -50 -22 -98 -47 -166 -82 -323 -206 -426 -335 -31 -38 -58 -72 -61 -75 -8
-8 -25 -37 -77 -130 -37 -66 -108 -249 -120 -307 -31 -155 -43 -349 -29 -438
21 -129 75 -292 141 -425 127 -257 348 -565 623 -870 120 -133 444 -450 476
-467 38 -20 101 -19 134 3 32 21 148 132 298 284 522 531 853 1041 929 1432
14 72 14 279 0 373 -32 217 -134 445 -276 616 -277 333 -694 510 -1126 477z
m243 -892 c138 -49 231 -141 274 -272 95 -286 -108 -574 -405 -576 -130 -1
-231 39 -318 125 -130 131 -160 352 -72 526 26 50 124 143 180 171 98 48 248
60 341 26z"/>
<path d="M3288 6264 c-2 -1 -37 -5 -79 -8 -42 -4 -87 -9 -100 -11 -13 -2 -46
-6 -72 -10 -63 -8 -215 -39 -318 -65 -374 -96 -829 -322 -1105 -549 -17 -14
-51 -42 -75 -61 -77 -61 -191 -171 -288 -276 -106 -115 -114 -125 -193 -229
-220 -290 -395 -639 -497 -986 -22 -75 -42 -152 -46 -170 -3 -19 -7 -38 -9
-44 -6 -20 -19 -93 -31 -179 -4 -23 -8 -50 -10 -61 -4 -25 -13 -120 -20 -200
-10 -124 -4 -452 10 -535 3 -14 7 -50 11 -80 8 -74 61 -341 80 -404 79 -255
108 -333 195 -513 200 -420 495 -787 874 -1088 80 -65 253 -182 347 -235 82
-47 324 -165 409 -199 139 -55 398 -133 519 -154 140 -26 176 -31 280 -42 30
-3 73 -8 95 -10 54 -6 407 -6 470 0 347 33 601 92 895 207 307 121 631 319
880 537 204 178 449 461 560 646 13 22 27 42 30 45 24 18 192 349 239 470 66
166 116 327 145 460 29 132 50 261 61 375 3 33 8 78 10 100 6 49 6 355 1 410
-2 22 -7 72 -11 110 -24 263 -94 550 -197 810 -39 98 -116 265 -123 265 -2 0
-18 -25 -35 -56 -18 -30 -59 -91 -92 -135 l-59 -81 50 -138 c81 -223 137 -455
167 -695 19 -154 8 -572 -19 -700 -4 -16 -9 -46 -11 -65 -23 -185 -148 -551
-268 -784 l-36 -69 -16 30 c-23 45 -160 169 -230 208 -138 77 -232 91 -394 58
-181 -37 -305 -34 -432 12 -46 16 -151 73 -185 99 -11 9 -38 30 -60 47 -22 17
-90 78 -150 137 -291 282 -381 335 -559 328 -77 -4 -110 -13 -231 -67 -142
-63 -342 -243 -447 -404 -58 -89 -82 -134 -141 -265 -39 -89 -98 -330 -114
-465 -10 -87 -10 -379 0 -462 8 -65 9 -69 32 -183 9 -42 20 -88 38 -145 11
-38 21 -72 22 -75 0 -3 11 -27 23 -54 12 -27 22 -51 22 -54 0 -3 16 -36 35
-73 19 -38 35 -72 35 -77 0 -5 -37 -2 -82 5 -46 8 -94 16 -108 18 -52 7 -268
65 -350 93 -274 94 -530 228 -770 405 -52 39 -97 73 -100 76 -3 3 -35 32 -72
64 l-67 58 29 42 c45 67 126 235 154 320 46 137 69 339 52 457 -37 263 -138
464 -345 682 -107 113 -290 368 -325 452 -9 21 -16 54 -16 73 0 67 104 141
411 295 291 144 425 231 539 349 101 104 164 224 184 355 14 83 8 239 -13 339
-58 281 -196 576 -388 827 -24 31 -43 61 -43 65 0 11 145 108 260 175 74 43
285 148 298 148 4 0 19 6 34 14 54 28 338 120 408 132 14 3 33 7 42 10 32 9
71 17 208 38 43 7 149 17 215 21 28 1 55 3 61 4 6 0 21 34 34 74 18 58 51 136
88 210 3 7 -213 8 -220 1z"/>
</g>
</svg>
