<?xml version="1.0" encoding="utf-8"?>
<!-- Generator: Adobe Illustrator 19.2.1, SVG Export Plug-In . SVG Version: 6.00 Build 0)  -->
<svg version="1.1" id="Layer_1" xmlns="http://www.w3.org/2000/svg" xmlns:xlink="http://www.w3.org/1999/xlink" x="0px" y="0px"
	 viewBox="0 0 100 55.1" style="enable-background:new 0 0 100 55.1;" xml:space="preserve">
<style type="text/css">
	.st0{fill:#FFFFFF;}
</style>
<g>
	<g>
		<circle class="st0" cx="16.3" cy="1.3" r="1.3"/>
		<circle class="st0" cx="20" cy="1.3" r="1.3"/>
		<circle class="st0" cx="23.8" cy="1.3" r="1.3"/>
		<circle class="st0" cx="27.5" cy="1.3" r="1.3"/>
		<circle class="st0" cx="31.3" cy="1.3" r="1.3"/>
		<circle class="st0" cx="35" cy="1.3" r="1.3"/>
		<circle class="st0" cx="38.8" cy="1.3" r="1.3"/>
		<circle class="st0" cx="42.5" cy="1.3" r="1.3"/>
		<circle class="st0" cx="53.7" cy="1.3" r="1.3"/>
		<circle class="st0" cx="65" cy="1.3" r="1.3"/>
		<circle class="st0" cx="76.2" cy="1.3" r="1.3"/>
		<circle class="st0" cx="12.6" cy="5.1" r="1.3"/>
		<circle class="st0" cx="16.3" cy="5.1" r="1.3"/>
		<circle class="st0" cx="20" cy="5.1" r="1.3"/>
		<circle class="st0" cx="23.8" cy="5.1" r="1.3"/>
		<circle class="st0" cx="31.3" cy="5.1" r="1.3"/>
		<circle class="st0" cx="35" cy="5.1" r="1.3"/>
		<circle class="st0" cx="38.8" cy="5.1" r="1.3"/>
		<circle class="st0" cx="61.2" cy="5.1" r="1.3"/>
		<circle class="st0" cx="68.7" cy="5.1" r="1.3"/>
		<circle class="st0" cx="72.5" cy="5.1" r="1.3"/>
		<circle class="st0" cx="76.2" cy="5.1" r="1.3"/>
		<circle class="st0" cx="80" cy="5.1" r="1.3"/>
		<circle class="st0" cx="83.7" cy="5.1" r="1.3"/>
		<circle class="st0" cx="87.4" cy="5.1" r="1.3"/>
		<circle class="st0" cx="1.3" cy="8.8" r="1.3"/>
		<circle class="st0" cx="5.1" cy="8.8" r="1.3"/>
		<circle class="st0" cx="8.8" cy="8.8" r="1.3"/>
		<circle class="st0" cx="12.6" cy="8.8" r="1.3"/>
		<circle class="st0" cx="16.3" cy="8.8" r="1.3"/>
		<circle class="st0" cx="20" cy="8.8" r="1.3"/>
		<circle class="st0" cx="23.8" cy="8.8" r="1.3"/>
		<circle class="st0" cx="27.5" cy="8.8" r="1.3"/>
		<circle class="st0" cx="35" cy="8.8" r="1.3"/>
		<circle class="st0" cx="38.8" cy="8.8" r="1.3"/>
		<path class="st0" d="M55.1,8.8c0,0.7-0.6,1.3-1.3,1.3s-1.3-0.6-1.3-1.3s0.6-1.3,1.3-1.3S55.1,8.1,55.1,8.8z"/>
		<circle class="st0" cx="57.5" cy="8.8" r="1.3"/>
		<circle class="st0" cx="61.2" cy="8.8" r="1.3"/>
		<circle class="st0" cx="65" cy="8.8" r="1.3"/>
		<circle class="st0" cx="68.7" cy="8.8" r="1.3"/>
		<circle class="st0" cx="72.5" cy="8.8" r="1.3"/>
		<circle class="st0" cx="76.2" cy="8.8" r="1.3"/>
		<circle class="st0" cx="80" cy="8.8" r="1.3"/>
		<circle class="st0" cx="83.7" cy="8.8" r="1.3"/>
		<circle class="st0" cx="87.4" cy="8.8" r="1.3"/>
		<circle class="st0" cx="91.2" cy="8.8" r="1.3"/>
		<circle class="st0" cx="1.3" cy="12.6" r="1.3"/>
		<circle class="st0" cx="5.1" cy="12.6" r="1.3"/>
		<circle class="st0" cx="8.8" cy="12.6" r="1.3"/>
		<circle class="st0" cx="12.6" cy="12.6" r="1.3"/>
		<circle class="st0" cx="16.3" cy="12.6" r="1.3"/>
		<circle class="st0" cx="20" cy="12.6" r="1.3"/>
		<circle class="st0" cx="23.8" cy="12.6" r="1.3"/>
		<circle class="st0" cx="27.5" cy="12.6" r="1.3"/>
		<circle class="st0" cx="35" cy="12.6" r="1.3"/>
		<circle class="st0" cx="42.5" cy="12.6" r="1.3"/>
		<circle class="st0" cx="50" cy="12.6" r="1.3"/>
		<circle class="st0" cx="53.7" cy="12.6" r="1.3"/>
		<circle class="st0" cx="57.5" cy="12.6" r="1.3"/>
		<circle class="st0" cx="61.2" cy="12.6" r="1.3"/>
		<circle class="st0" cx="65" cy="12.6" r="1.3"/>
		<circle class="st0" cx="68.7" cy="12.6" r="1.3"/>
		<circle class="st0" cx="72.5" cy="12.6" r="1.3"/>
		<circle class="st0" cx="76.2" cy="12.6" r="1.3"/>
		<circle class="st0" cx="80" cy="12.6" r="1.3"/>
		<circle class="st0" cx="83.7" cy="12.6" r="1.3"/>
		<circle class="st0" cx="87.4" cy="12.6" r="1.3"/>
		<circle class="st0" cx="91.2" cy="12.6" r="1.3"/>
		<circle class="st0" cx="1.3" cy="16.3" r="1.3"/>
		<circle class="st0" cx="5.1" cy="16.3" r="1.3"/>
		<circle class="st0" cx="8.8" cy="16.3" r="1.3"/>
		<circle class="st0" cx="12.6" cy="16.3" r="1.3"/>
		<circle class="st0" cx="16.3" cy="16.3" r="1.3"/>
		<circle class="st0" cx="20" cy="16.3" r="1.3"/>
		<circle class="st0" cx="23.8" cy="16.3" r="1.3"/>
		<circle class="st0" cx="27.5" cy="16.3" r="1.3"/>
		<circle class="st0" cx="46.3" cy="16.3" r="1.3"/>
		<circle class="st0" cx="50" cy="16.3" r="1.3"/>
		<circle class="st0" cx="53.7" cy="16.3" r="1.3"/>
		<circle class="st0" cx="57.5" cy="16.3" r="1.3"/>
		<circle class="st0" cx="61.2" cy="16.3" r="1.3"/>
		<circle class="st0" cx="65" cy="16.3" r="1.3"/>
		<circle class="st0" cx="68.7" cy="16.3" r="1.3"/>
		<circle class="st0" cx="72.5" cy="16.3" r="1.3"/>
		<circle class="st0" cx="76.2" cy="16.3" r="1.3"/>
		<circle class="st0" cx="80" cy="16.3" r="1.3"/>
		<circle class="st0" cx="83.7" cy="16.3" r="1.3"/>
		<circle class="st0" cx="87.4" cy="16.3" r="1.3"/>
		<circle class="st0" cx="91.2" cy="16.3" r="1.3"/>
		<circle class="st0" cx="12.6" cy="20" r="1.3"/>
		<circle class="st0" cx="16.3" cy="20" r="1.3"/>
		<circle class="st0" cx="20" cy="20" r="1.3"/>
		<circle class="st0" cx="23.8" cy="20" r="1.3"/>
		<circle class="st0" cx="27.5" cy="20" r="1.3"/>
		<circle class="st0" cx="31.3" cy="20" r="1.3"/>
		<circle class="st0" cx="46.3" cy="20" r="1.3"/>
		<circle class="st0" cx="50" cy="20" r="1.3"/>
		<circle class="st0" cx="53.7" cy="20" r="1.3"/>
		<circle class="st0" cx="57.5" cy="20" r="1.3"/>
		<circle class="st0" cx="61.2" cy="20" r="1.3"/>
		<circle class="st0" cx="65" cy="20" r="1.3"/>
		<circle class="st0" cx="68.7" cy="20" r="1.3"/>
		<circle class="st0" cx="72.5" cy="20" r="1.3"/>
		<circle class="st0" cx="76.2" cy="20" r="1.3"/>
		<circle class="st0" cx="80" cy="20" r="1.3"/>
		<circle class="st0" cx="83.7" cy="20" r="1.3"/>
		<circle class="st0" cx="91.2" cy="20" r="1.3"/>
		<circle class="st0" cx="12.6" cy="23.8" r="1.3"/>
		<circle class="st0" cx="16.3" cy="23.8" r="1.3"/>
		<circle class="st0" cx="20" cy="23.8" r="1.3"/>
		<circle class="st0" cx="23.8" cy="23.8" r="1.3"/>
		<circle class="st0" cx="27.5" cy="23.8" r="1.3"/>
		<circle class="st0" cx="46.3" cy="23.8" r="1.3"/>
		<circle class="st0" cx="53.7" cy="23.8" r="1.3"/>
		<circle class="st0" cx="57.5" cy="23.8" r="1.3"/>
		<circle class="st0" cx="61.2" cy="23.8" r="1.3"/>
		<circle class="st0" cx="65" cy="23.8" r="1.3"/>
		<circle class="st0" cx="68.7" cy="23.8" r="1.3"/>
		<circle class="st0" cx="72.5" cy="23.8" r="1.3"/>
		<circle class="st0" cx="76.2" cy="23.8" r="1.3"/>
		<circle class="st0" cx="80" cy="23.8" r="1.3"/>
		<circle class="st0" cx="83.7" cy="23.8" r="1.3"/>
		<circle class="st0" cx="87.4" cy="23.8" r="1.3"/>
		<circle class="st0" cx="16.3" cy="27.5" r="1.3"/>
		<circle class="st0" cx="20" cy="27.5" r="1.3"/>
		<circle class="st0" cx="23.8" cy="27.5" r="1.3"/>
		<circle class="st0" cx="42.5" cy="27.5" r="1.3"/>
		<circle class="st0" cx="46.3" cy="27.5" r="1.3"/>
		<circle class="st0" cx="50" cy="27.5" r="1.3"/>
		<circle class="st0" cx="53.7" cy="27.5" r="1.3"/>
		<circle class="st0" cx="57.5" cy="27.5" r="1.3"/>
		<circle class="st0" cx="61.2" cy="27.5" r="1.3"/>
		<circle class="st0" cx="65" cy="27.5" r="1.3"/>
		<circle class="st0" cx="68.7" cy="27.5" r="1.3"/>
		<circle class="st0" cx="72.5" cy="27.5" r="1.3"/>
		<circle class="st0" cx="76.2" cy="27.5" r="1.3"/>
		<circle class="st0" cx="80" cy="27.5" r="1.3"/>
		<circle class="st0" cx="83.7" cy="27.5" r="1.3"/>
		<path class="st0" d="M21.4,31.3c0,0.7-0.6,1.3-1.3,1.3c-0.7,0-1.3-0.6-1.3-1.3c0-0.7,0.6-1.3,1.3-1.3S21.4,30.5,21.4,31.3z"/>
		<path class="st0" d="M25.1,31.3c0,0.7-0.6,1.3-1.3,1.3c-0.7,0-1.3-0.6-1.3-1.3c0-0.7,0.6-1.3,1.3-1.3S25.1,30.5,25.1,31.3z"/>
		<path class="st0" d="M28.9,31.3c0,0.7-0.6,1.3-1.3,1.3c-0.7,0-1.3-0.6-1.3-1.3c0-0.7,0.6-1.3,1.3-1.3S28.9,30.5,28.9,31.3z"/>
		<path class="st0" d="M43.8,31.3c0,0.7-0.6,1.3-1.3,1.3s-1.3-0.6-1.3-1.3c0-0.7,0.6-1.3,1.3-1.3S43.8,30.5,43.8,31.3z"/>
		<path class="st0" d="M47.6,31.3c0,0.7-0.6,1.3-1.3,1.3S45,32,45,31.3c0-0.7,0.6-1.3,1.3-1.3S47.6,30.5,47.6,31.3z"/>
		<path class="st0" d="M51.3,31.3c0,0.7-0.6,1.3-1.3,1.3s-1.3-0.6-1.3-1.3c0-0.7,0.6-1.3,1.3-1.3S51.3,30.5,51.3,31.3z"/>
		<path class="st0" d="M55.1,31.3c0,0.7-0.6,1.3-1.3,1.3s-1.3-0.6-1.3-1.3c0-0.7,0.6-1.3,1.3-1.3S55.1,30.5,55.1,31.3z"/>
		<path class="st0" d="M58.8,31.3c0,0.7-0.6,1.3-1.3,1.3s-1.3-0.6-1.3-1.3c0-0.7,0.6-1.3,1.3-1.3S58.8,30.5,58.8,31.3z"/>
		<path class="st0" d="M62.6,31.3c0,0.7-0.6,1.3-1.3,1.3S60,32,60,31.3c0-0.7,0.6-1.3,1.3-1.3S62.6,30.5,62.6,31.3z"/>
		<path class="st0" d="M70,31.3c0,0.7-0.6,1.3-1.3,1.3c-0.7,0-1.3-0.6-1.3-1.3c0-0.7,0.6-1.3,1.3-1.3C69.5,30,70,30.5,70,31.3z"/>
		<path class="st0" d="M77.5,31.3c0,0.7-0.6,1.3-1.3,1.3s-1.3-0.6-1.3-1.3c0-0.7,0.6-1.3,1.3-1.3S77.5,30.5,77.5,31.3z"/>
		<path class="st0" d="M81.3,31.3c0,0.7-0.6,1.3-1.3,1.3s-1.3-0.6-1.3-1.3c0-0.7,0.6-1.3,1.3-1.3C80.7,30,81.3,30.5,81.3,31.3z"/>
		<circle class="st0" cx="27.5" cy="35" r="1.3"/>
		<circle class="st0" cx="31.3" cy="35" r="1.3"/>
		<circle class="st0" cx="46.3" cy="35" r="1.3"/>
		<circle class="st0" cx="50" cy="35" r="1.3"/>
		<circle class="st0" cx="53.7" cy="35" r="1.3"/>
		<circle class="st0" cx="57.5" cy="35" r="1.3"/>
		<circle class="st0" cx="27.5" cy="38.8" r="1.3"/>
		<circle class="st0" cx="31.3" cy="38.8" r="1.3"/>
		<circle class="st0" cx="23.8" cy="38.8" r="1.3"/>
		<circle class="st0" cx="35" cy="38.8" r="1.3"/>
		<circle class="st0" cx="50" cy="38.8" r="1.3"/>
		<path class="st0" d="M55.1,38.8c0,0.7-0.6,1.3-1.3,1.3s-1.3-0.6-1.3-1.3s0.6-1.3,1.3-1.3S55.1,38,55.1,38.8z"/>
		<circle class="st0" cx="57.5" cy="38.8" r="1.3"/>
		<circle class="st0" cx="76.2" cy="38.8" r="1.3"/>
		<circle class="st0" cx="80" cy="38.8" r="1.3"/>
		<circle class="st0" cx="83.7" cy="38.8" r="1.3"/>
		<circle class="st0" cx="87.4" cy="38.8" r="1.3"/>
		<circle class="st0" cx="27.5" cy="42.5" r="1.3"/>
		<circle class="st0" cx="31.3" cy="42.5" r="1.3"/>
		<circle class="st0" cx="35" cy="42.5" r="1.3"/>
		<circle class="st0" cx="50" cy="42.5" r="1.3"/>
		<path class="st0" d="M55.1,42.5c0,0.7-0.6,1.3-1.3,1.3s-1.3-0.6-1.3-1.3s0.6-1.3,1.3-1.3S55.1,41.8,55.1,42.5z"/>
		<circle class="st0" cx="61.2" cy="42.5" r="1.3"/>
		<circle class="st0" cx="80" cy="42.5" r="1.3"/>
		<circle class="st0" cx="83.7" cy="42.5" r="1.3"/>
		<circle class="st0" cx="83.7" cy="46.3" r="1.3"/>
		<circle class="st0" cx="87.4" cy="42.5" r="1.3"/>
		<circle class="st0" cx="91.2" cy="42.5" r="1.3"/>
		<circle class="st0" cx="27.5" cy="46.3" r="1.3"/>
		<circle class="st0" cx="31.3" cy="46.3" r="1.3"/>
		<circle class="st0" cx="53.7" cy="46.3" r="1.3"/>
		<circle class="st0" cx="80" cy="46.3" r="1.3"/>
		<circle class="st0" cx="87.4" cy="46.3" r="1.3"/>
		<circle class="st0" cx="27.5" cy="50" r="1.3"/>
		<circle class="st0" cx="27.5" cy="53.7" r="1.3"/>
		<circle class="st0" cx="94.9" cy="8.8" r="1.3"/>
		<circle class="st0" cx="94.9" cy="12.6" r="1.3"/>
		<circle class="st0" cx="98.7" cy="12.6" r="1.3"/>
		<circle class="st0" cx="94.9" cy="50" r="1.3"/>
	</g>
</g>
</svg>
