<?xml version="1.0" encoding="utf-8"?>
<!-- Generator: Adobe Illustrator 19.2.1, SVG Export Plug-In . SVG Version: 6.00 Build 0)  -->
<svg version="1.1" id="svg2948" xmlns:svg="http://www.w3.org/2000/svg"
	 xmlns="http://www.w3.org/2000/svg" xmlns:xlink="http://www.w3.org/1999/xlink" x="0px" y="0px" viewBox="0 0 260 90"
	 style="enable-background:new 0 0 260 90;" xml:space="preserve">
<style type="text/css">
	.st0{fill:#0C4B33;}
</style>
<g id="layer1" transform="translate(121.06306,-355.93976)">
	<path id="path2838" class="st0" d="M-101.5,400c0,8.2,6,13.1,15.6,10.9v-21.7C-95.6,386.2-101.4,392.2-101.5,400 M-85.6,357.7h13.2
		v62.5c-12.7,2.1-24.8,3.4-33.5-1.5c-11.2-6.2-12.1-26.1-3.2-34.9c4.5-4.5,13.5-7.6,23.2-5.6v-19.7C-85.9,358.2-86,357.8-85.6,357.7
		"/>
	<path id="path2840" class="st0" d="M-51,371.5h-13.2v-13.8H-51C-51,357.7-51,371.5-51,371.5z"/>
	<path id="path2844" class="st0" d="M107.6,411.5c14.4,5.6,16-25.8,1.5-22.9C100,390.3,100.3,408.6,107.6,411.5 M108.1,377.7
		c11-1.2,19.3,3.7,22.6,11.2c5.6,12.8-0.3,27.4-9.4,31.7c-4.7,2.2-9.6,2.4-14.1,2.1c-13.8-1.2-22.4-15.2-17.6-30.8
		c0.8-2.4,1.6-3.9,2.1-4.7C94.7,382,99.7,378.6,108.1,377.7"/>
	<path id="path2848" class="st0" d="M-32.8,406.5c-3.7,6.1,5.5,7.6,11.4,5.9v-9.1C-25.9,403.9-31.1,403.6-32.8,406.5 M-9.6,420.8
		c-10.9,0.6-27.5,4.3-33.5-2.9c-3.5-4.3-3.1-12.4,0-16.4c4-5.2,12.9-6.3,20.8-7c0.7-1.8,0.2-4.7-0.6-5.9c-7.3-1.9-14.5,1-19.7,3.2
		v-10.3c7.8-3.6,25.7-7.3,31.1,0.9c2.8,4.3,1.8,11.8,1.8,18.5C-9.6,400.9-9.6,420.8-9.6,420.8z"/>
	<path id="path2852" class="st0" d="M36.8,421.4H23.6v-17c0-5.6,0.9-12.7-2.1-15c-2.3-1.8-7.8-0.9-11.2,0v32H-2.8v-40.8
		c13.5-3.5,37.9-7.3,39.6,9.7C37.7,398.7,36.2,411.2,36.8,421.4"/>
	<path id="path2856" class="st0" d="M56.5,407.3c2.2,3.6,8.2,4.9,13.2,2.6c-0.3-6.9-0.4-13.9-0.3-21.1
		C58,385.8,51.2,398.8,56.5,407.3 M89.6,379.5c-1.2,3.5-2.9,6.5-4.4,9.7c-1.4,0.3-2.5-0.5-3.2,0c-0.3,14.3,3,33.7-2.6,44
		c-3.4,6.2-9.7,10.2-19.4,10.9c-7,0.5-12.5-0.7-17.6-2.6v-12.3c6,3.5,21.3,6.4,25.5-0.9c1.3-2.1,1.2-4.3,1.8-7.6
		c-2.8,0.1-5.4,1.4-8.8,1.5c-13.8,0.2-22.4-10.8-19.1-26.1c1.3-5.9,4.8-10.7,9.4-13.5C60.8,376.5,75.7,377,89.6,379.5"/>
	<path id="path2860" class="st0" d="M-51,378.5c0,9.7,0,16.7,0,28.5c-0.6,11.6-0.4,20.9-4.7,26.4c-0.8,1.1-2.6,2.7-4.1,3.8
		c-1.3,0.9-3.6,2.9-5,2.9c-1.4,0.1-4.9-1.9-6.5-2.6c-2.1-1-4-2.3-6.2-2.9c5-3.1,9.8-5.4,11.7-11.7c1.7-5.5,1.5-13.4,1.5-21.1
		c0-7.6,0-16.5,0-23.2L-51,378.5L-51,378.5z"/>
</g>
</svg>
