<svg xmlns="http://www.w3.org/2000/svg" viewBox="0 0 1200 730"><defs><style>.a{opacity:0.7;}.b{fill:#fff;}.c,.d,.e{fill:none;stroke:#fff;stroke-miterlimit:10;}.c{stroke-width:0.25px;}.d{stroke-width:0.5px;}.e{stroke-width:0.68px;}</style></defs><title>popup</title><rect class="a" width="1200" height="730"/><path class="b" d="M245.25,366.06V370H234.17v7.74h-4.24V370H218.85v-3.92Zm-10.78-13h-14v-3.63h9.15V347h4.76v2.44h9v3.48l-7.61,3.73,7.89,3.32v4.42l-12.43-5.51-10.78,5.29v-4.42Z"/><path class="b" d="M274.72,362.93v4.23H264.52v4.17h-4.18v-4.17h-5.8v6.3h18.7v4.26H250.4V367.16h-2.09v-4.23Zm-7-14.69c3,0,5.46,2.69,5.46,6.11s-2.46,6.14-5.46,6.14H255.28c-3,0-5.46-2.69-5.46-6.14s2.46-6.11,5.46-6.11Zm-12.43,4.13c-.61,0-1.32.81-1.32,2s.71,2,1.32,2h12.43c.61,0,1.32-.85,1.32-2s-.71-2-1.32-2Z"/><path class="b" d="M296.69,352.44H287.6v-4.2h13.91v4.2l-4.14,25.12h-4.73Zm11.88,2.32v-6.67h4.36v29.63h-4.36v-9.08H302.8v-4.26h5.77V359H302.8v-4.26Z"/><path class="b" d="M341.69,372.8H322.84v1.47h18.85v3.45H318.85v-8.24H337.7V368H318.85v-3.32h9.27V363H317.07v-3.38h26.4V363H332.42v1.69h9.27Zm-5.22-24.56c3,0,5.46,1.94,5.46,5s-2.43,5-5.46,5h-12.4c-3,0-5.46-1.91-5.46-5s2.46-5,5.46-5ZM324.1,352a1.28,1.28,0,1,0,0,2.57h12.34a1.28,1.28,0,1,0,0-2.57Z"/><path class="b" d="M346.2,378.34l.61-5.14h4.54l-1,5.14Z"/><path class="b" d="M380.64,373.27v4.32h-16V348.24h4.76v25ZM388.1,358h3.13v4.13H388.1v15.54h-4.36V348.08h4.36Z"/><path class="b" d="M409.18,348.24v15.69H393.83V348.24Zm-9.76,25.5h13.82V348.08h4.33v6.86h3.13v4.26h-3.13v18.51H395.12V367.35h4.3Zm-.89-14h6v-7.3h-6Z"/><path class="b" d="M443.53,373.49V348.08h4.33v29.63H422.53v-4.23Zm-4.76-18.42v4.32a6.79,6.79,0,0,1-6.72,6.86h-2.18a6.79,6.79,0,0,1-6.72-6.86v-4.32a6.76,6.76,0,0,1,6.72-6.83H432A6.76,6.76,0,0,1,438.77,355.07Zm-8.9-2.51a2.49,2.49,0,0,0-2.46,2.51v4.32a2.49,2.49,0,0,0,2.46,2.51H432a2.49,2.49,0,0,0,2.46-2.51v-4.32a2.49,2.49,0,0,0-2.46-2.51Z"/><path class="b" d="M475,348.24v4.26l-1.32,12.44h-4.48l1.32-12.44h-8.75v-4.26Zm6.75,18.92a5.28,5.28,0,1,1,0,10.56H469.28a5.28,5.28,0,1,1,0-10.56Zm-12.53,3.92a1.36,1.36,0,0,0,0,2.72H481.8a1.36,1.36,0,0,0,0-2.72Zm13.39-13v-2.91h-5.13v-3.76h5.13v-3.35h4.48v16.85h-4.48v-3h-5.13v-3.79Z"/><path class="b" d="M501.88,349.18h5.62v3.73h-3.81a5.46,5.46,0,0,1,2.89,4.54v2c0,3.1-3.25,5.64-7,5.64s-6.79-2.54-6.79-5.64v-1.85a5.47,5.47,0,0,1,2.82-4.67H491.9v-3.73h5.68V347h4.3ZM512,366.94v-6.48h-4.39v-4.23H512v-8.14h4.61v29.63H493.28V366.94Zm-9.39-8.65a2.77,2.77,0,0,0-2.89-2.63,2.8,2.8,0,0,0-2.92,2.63v.53a2.78,2.78,0,0,0,2.92,2.63,2.75,2.75,0,0,0,2.89-2.63Zm-4.85,15.32H512.1V371H497.76Z"/><path class="b" d="M547.15,359.8v3.38h-26.4V359.8Zm-7-11.56c3,0,5.46,2,5.46,5s-2.43,5-5.46,5h-12.4c-3,0-5.46-1.94-5.46-5s2.46-5,5.46-5Zm5.22,24.56H526.52v1.47h18.85v3.45H522.53v-8.24h18.85V368H522.53v-3.32h22.84ZM527.78,352a1.32,1.32,0,1,0,0,2.63h12.34a1.32,1.32,0,1,0,0-2.63Z"/><path class="b" d="M567.87,360.89v-5.64h4.48v5.64h6l1.32-8.46H561.91v-4.2h22.41v4.2L583,360.89h3.44v3.45H560v-3.45Zm11.82,5.61a5.61,5.61,0,0,1,0,11.21H566.79a5.61,5.61,0,0,1,0-11.21Zm-12.89,3.95a1.7,1.7,0,0,0,0,3.32h12.89a1.7,1.7,0,0,0,0-3.32Z"/><path class="b" d="M615.91,366.47v3.92h-5.83v7.33h-4.3v-7.33h-6.14v7.33h-4.3v-7.33H589.5v-3.92Zm-25.17-12.12a6.14,6.14,0,0,1,6.11-6.11h11.73a6.14,6.14,0,0,1,6.11,6.11v1.94a6.14,6.14,0,0,1-6.11,6.11H596.84a6.14,6.14,0,0,1-6.11-6.11Zm7,3.85h10a2.89,2.89,0,0,0,0-5.76h-10a2.89,2.89,0,0,0,0,5.76Z"/><path class="b" d="M629.93,350h5.92v3.92H619.74V350h5.89v-3h4.3Zm-1,5.83a6.07,6.07,0,0,1,6.14,6v9.71a6.07,6.07,0,0,1-6.14,6h-2.27a6.07,6.07,0,0,1-6.14-6v-9.71a6.07,6.07,0,0,1,6.14-6Zm-1,17.54a2.68,2.68,0,0,0,2.86-2.73v-7.89A2.71,2.71,0,0,0,627.9,360h-.31a2.71,2.71,0,0,0-2.86,2.76v7.89a2.68,2.68,0,0,0,2.86,2.73ZM643.47,360h3.13v4.26h-3.13v13.5h-4.33V348.08h4.33Z"/><path class="b" d="M656.26,373.61V361.05h4.48v12.56h5.77l1.6-21H650.31v-4.2h22.41v4.2l-1.6,21h3.71v4.1h-26.4v-4.1Z"/><path class="b" d="M705,348.24v4.13h-3.47v21h3.62v4.23H688.8V348.24Zm-11.57,25.12H697v-21h-3.53ZM715.35,358v4.13h-3.13v15.54h-4.36V348.08h4.36v10Z"/><path class="b" d="M743.59,361.8v4h-26.4v-4Zm-.71,15.91h-5.83l-6.54-6.36L724,377.72h-5.83L727.6,368h5.83Zm-1.35-29.48v3.88h-8.2v3.32h8.2v3.88H719.25V348.24Zm-17.59,7.21h4.82v-3.32h-4.82Z"/><path class="b" d="M757.25,349.12h5.62v4.13H760a5.17,5.17,0,0,1,2,3.88v2.41c0,3.1-3.25,5.64-7,5.64s-6.78-2.54-6.78-5.64v-2.29a5.21,5.21,0,0,1,1.9-4h-2.82v-4.13h5.68V347h4.3ZM753,373.77h13.82V348.08h4.33v7.83h3.13v4.26h-3.13v17.54H748.71V369.2H753ZM758,358a2.77,2.77,0,0,0-2.89-2.63,2.8,2.8,0,0,0-2.92,2.63v.66a2.78,2.78,0,0,0,2.92,2.63,2.75,2.75,0,0,0,2.89-2.63Z"/><path class="b" d="M793.25,363.71h-7.15v-4.23h7.74l1-7h-8.87v-4.2h13.69v4.2l-3.53,25.09h-4.73Zm13.69,14V363.87h-6v-4.42h6V348.08h4.33v29.63Z"/><path class="b" d="M816,348.24h17v4h-2.52v21.24h2.52v4H816v-4h2.36V352.28H816Zm6.78,25.28h3.35V352.28h-3.35Zm17.93,4.2h-4.3V348.08h4.3Z"/><path class="b" d="M855.46,363.06V348.24h4.3V352h6.39v-3.73h4.33v14.82Zm23.73,10.68v4H856.75v-11.9h18.11V348.08h4.33v6.23h3.13v4.17h-3.13v11.31H861.45v3.95ZM859.76,359h6.39v-3h-6.39Z"/><path class="b" d="M900.06,355.6v14.6a7.57,7.57,0,0,1-15.14,0V355.6a7.57,7.57,0,0,1,15.14,0Zm-10.78,0v14.6a3.19,3.19,0,0,0,6.39,0V355.6a3.19,3.19,0,0,0-6.39,0Zm19.37,4.79h3.13v4.26h-3.13v13.06h-4.3V348.08h4.3Z"/><path class="b" d="M924.19,352.44H913.63v-4.2H929v4.2l-3.53,25.12h-4.73Zm13.94,6.64h3.13v4.26h-3.13v14.38h-4.61V348.08h4.61Z"/><path class="b" d="M954.14,361.87l5.1,15.76h-4.76l-2.76-9-3.19,9h-4.88l8.81-25.06h-8.6v-4.32h13.6v4.32Zm9.36,15.85V348.08h4.08V358.2h3.13v4.14h-3.13v15.38Z"/><path class="b" d="M979.1,370.07h-4.51V348.43h4.51Zm0,6.74h-4.51v-4.57h4.51Z"/><path class="b" d="M304.21,435.38a32.42,32.42,0,0,0,6.48-.57l.26,1.79a38.58,38.58,0,0,1-7.22.6h-1.94V423.85h7.92v1.75h-5.87v9.78Zm12.11,7.19V431.18H313.9v10.33h-2V421.67h2v7.74h2.42v-8.2h2v21.36Z"/><path class="b" d="M322.22,426.42V424.7h11.67v1.72Zm5.83,8c-2.68,0-4.69-1.4-4.69-3.54s2-3.56,4.69-3.56,4.69,1.38,4.69,3.56S330.73,434.44,328,434.44Zm10,1.15v7H336v-5.24H324.81v-1.77Zm-12.9-12.26v-1.75H331v1.75ZM328,429c-1.44,0-2.66.76-2.66,1.91s1.24,1.88,2.66,1.88,2.64-.76,2.64-1.88S329.46,429,328,429Zm10,.21v5.26h-2.05V421.21H338v6.2h3v1.79Z"/><path class="b" d="M358.11,435.31a24.79,24.79,0,0,0,2.47-.28l.17,1.72c-1.07.16-3,.37-4.74.46-1.94.14-3.6.21-5.3.21l-.31-1.84c.7,0,1.44,0,2.23,0L352,427l2-.3.44,8.79,1.44-.07a2.85,2.85,0,0,0,.44,0l.48-8.68,2,.21Zm-7.22-9.76v-1.75h9.25v1.75Zm11.24,16V431.22h-2.6v-1.77h2.6v-7.76h2v19.82Zm3.73,1.06V421.21h2v21.36Z"/><path class="b" d="M377.81,422.82c3.6,0,5.19,3.31,5.19,7.56s-1.59,7.53-5.19,7.53-5.24-3.31-5.24-7.56S374.21,422.82,377.81,422.82Zm0,1.86c-2.07,0-3.14,2.39-3.14,5.7s1.07,5.67,3.14,5.67,3.14-2.39,3.14-5.67S379.89,424.68,377.81,424.68Zm8.73,17.89V421.21h2.05v21.36Z"/><path class="b" d="M404.3,437.47a12.45,12.45,0,0,1-5-6.25,12,12,0,0,1-5.08,6.75l-1.31-1.58a11.16,11.16,0,0,0,5.32-9.55v-1.72h-4.6v-1.77h11.26v1.77h-4.54v1.7a10.34,10.34,0,0,0,5.15,9Zm5.46-16.26v21.36h-2.05V421.21Z"/><path class="b" d="M430.27,432.33a24.17,24.17,0,0,0,2.81-.3l.17,1.68a51.78,51.78,0,0,1-5.45.53c-2.07.09-4.23.16-6.11.16l-.35-1.86h2.6l-.54-6.52,2-.25.37,6.73,2.25-.07h.42l.41-6.68,2,.23Zm-8.33-7.6V423H432.6v1.75Zm2.77,17.18v-6.34h2.05v4.57h11.7v1.77Zm8-16.56H436v-4.13H438v15.5H436v-5.53h-3.32v-1.72H436V427h-3.32Z"/><path class="b" d="M443.36,422.61h11.15v1.75h-4.6v.34c0,3,2.66,5.44,5,6.18l-1.13,1.72a10,10,0,0,1-4.84-4.57,9.82,9.82,0,0,1-5,5.19l-1.22-1.68c2.64-1,5.17-3.81,5.17-6.8v-.39h-4.45ZM446,442.27v-8.41h2.05v2.46h9.06V433.8h2.05v8.47ZM457.15,438h-9.06v2.5h9.06Zm0-5.33V421.21h2.05v11.48Z"/><path class="b" d="M471,434.55v-.64h8.75v-2.16c-3.47-.07-5.48-1.29-5.48-2.92s2.14-2.85,5.8-2.85,5.78,1.19,5.78,2.85-2,2.87-5.5,2.92v2.16h8.79v.64Zm1.07-10v-.67H488v.67Zm14.36,12.29v5.88h-.61v-5.24H473v-.64Zm-6.35-10.24c-3.47,0-5.13,1.1-5.13,2.23s1.66,2.32,5.13,2.32,5.11-1.17,5.11-2.32S483.53,426.61,480.08,426.61Zm-3.49-4.52v-.67h7v.67Z"/><path class="b" d="M492.17,433.52v-.67h18.15v.67Zm9.06-3.49c-4.23,0-6.83-1.54-6.83-4s2.6-4,6.83-4,6.81,1.54,6.81,4S505.46,430,501.23,430Zm-6.42,11.62v-5.76h.61V441h12.83v.62Zm6.42-18.92c-3.93,0-6.2,1.45-6.2,3.35s2.27,3.33,6.2,3.33,6.17-1.45,6.17-3.33S505.13,422.73,501.23,422.73Z"/><path class="b" d="M520.51,428.24v-1.77h10v1.77Zm5.17,9.37a4.19,4.19,0,0,1-4.5-4.2c0-2.57,1.85-4.18,4.5-4.18s4.45,1.63,4.45,4.18S528.33,437.61,525.69,437.61Zm-2.92-13v-1.77h5.46v1.77Zm2.92,6.38a2.45,2.45,0,1,0,0,4.89,2.42,2.42,0,0,0,2.49-2.46A2.39,2.39,0,0,0,525.69,431Zm9.93,11.6V431.8h-2.09v9.71h-2V421.67h2V430h2.09v-8.82h2v21.36Z"/><path class="b" d="M555.3,437.49c-1.72.23-4.25.44-6.72.57-2.25.12-5.19.18-6.63.18l-.31-1.84c1.64,0,3.58,0,5.56-.07v-3.42a5,5,0,0,1-4.54-5,5.24,5.24,0,0,1,5.52-5.24c3.16,0,5.59,2.09,5.59,5.24a5,5,0,0,1-4.52,5v3.33c2.18-.09,4.47-.25,5.85-.46Zm-7.11-12.88a3.29,3.29,0,0,0-3.43,3.31,3.23,3.23,0,0,0,3.43,3.21,3.27,3.27,0,1,0,0-6.52Zm8.18,18V421.21h2.05v21.36Z"/><path class="b" d="M576.87,442.59v-7.67h-8.1v-1.75h18.33v1.75h-8.18v7.67Zm8.55-11.53c-3-.6-6.44-2.73-7.48-5.1-.92,2.37-4.41,4.5-7.48,5.12l-.92-1.77c3.67-.5,7.33-3.12,7.33-6.11v-1.36H579v1.36c0,3,4.08,5.74,7.38,6.08Z"/><path class="b" d="M589.84,426.42V424.7h11.67v1.72Zm5.83,8c-2.68,0-4.69-1.4-4.69-3.54s2-3.56,4.69-3.56,4.69,1.38,4.69,3.56S598.34,434.44,595.66,434.44Zm10,1.15v7h-2.05v-5.24H592.43v-1.77Zm-12.9-12.26v-1.75h5.89v1.75Zm2.92,5.67c-1.44,0-2.66.76-2.66,1.91s1.24,1.88,2.66,1.88,2.64-.76,2.64-1.88S597.08,429,595.66,429Zm10,.21v5.26h-2.05V421.21h2.05v6.2h3v1.79Z"/><path class="b" d="M626.43,442.57v-5.83h-8.12V435h18.33v1.75h-8.16v5.83Zm-7-16.26v-1.75h16.15v1.75Zm8.07,7.58c-3.69,0-6.22-1.13-6.22-3.33s2.53-3.33,6.22-3.33,6.24,1.13,6.24,3.33S631.21,433.89,627.5,433.89Zm0-4.94c-2,0-4.12.46-4.12,1.61s2.14,1.61,4.13,1.61,4.12-.48,4.12-1.61S629.5,429,627.5,429ZM624,423.3v-1.77h7v1.77Z"/><path class="b" d="M650.19,423.48c-.13,6.77-3.88,11.78-9.43,15l-1.27-1.65c4.8-2.41,8.1-6.87,8.47-11.48h-7.55v-1.81Zm3.88,19.08V421.21h2.05v21.36Z"/><path class="b" d="M660.73,432.26v-.64h18.15v.64Zm2.36,9.67v-4.11h12.81v-2.55H663v-.62H676.5v3.81H663.69v2.85h13.57v.62Zm.09-12.68V425.3h12.61v-2.57H663.13v-.62h13.27v3.81H663.78v2.71h13v.62Z"/><path class="b" d="M695.18,423.67v1.84c0,3.51,2.92,5.95,5.17,6.82l-.37.57a9.4,9.4,0,0,1-5.11-5.33c-.59,2.5-2.86,4.73-5.24,5.88l-.42-.6c2.86-1.31,5.35-3.88,5.35-7.33v-1.86h-5V423h10.54v.62Zm8.64,18.81V436h-12.2v-.67h12.81v7.12Zm.59-14.35v6.09h-.61V421.3h.61v6.2h3.29v.62Z"/><path class="b" d="M721.26,432.58a9.54,9.54,0,0,1-5.17-5.42c-.55,2.55-2.86,4.87-5.28,6.06l-.35-.57a8.58,8.58,0,0,0,5.32-7.56v-2.53h.59v2.5c0,3.58,3,6.08,5.3,7Zm-1.16,9.85c-4.23,0-6.72-1.49-6.72-3.79s2.49-3.7,6.72-3.7,6.7,1.4,6.7,3.7S724.33,442.43,720.1,442.43Zm0-6.87c-4,0-6.11,1.31-6.11,3.08s2.09,3.12,6.11,3.12,6-1.33,6-3.12S724,435.56,720.1,435.56Zm.59-8.29v-.62h5.15V421.3h.63v13.37h-.63v-7.39Z"/><path class="b" d="M731.38,427.3v-.62h10.26v.62Zm5.39,9.81a4,4,0,0,1-4.1-4,4.09,4.09,0,0,1,8.18,0A4,4,0,0,1,736.77,437.1Zm0-7.23a3.29,3.29,0,1,0,3.45,3.28A3.38,3.38,0,0,0,736.77,429.87Zm-2.9-6v-.64h5.41v.64Zm13.68,18.65V431.25h-3.84v10h-.61V421.88h.61v8.7h3.84V421.3h.59v21.17Z"/><path class="b" d="M768.34,442.48v-8.13h-8.75v-.71h18.15v.71h-8.79v8.13Zm.63-18.95v1.35c0,2.6,4.06,4.94,7.68,5.51l-.35.64c-3.6-.78-6.81-2.69-7.64-4.78-.81,2.14-4.1,4-7.7,4.82l-.31-.64c3.62-.57,7.7-3,7.7-5.56v-1.35h-6.94v-.62h14.49v.62Z"/><path class="b" d="M792.27,437.33a13.71,13.71,0,0,1-5.54-7.39,14.3,14.3,0,0,1-5.35,7.88l-.5-.62c2.92-1.63,5.54-6.25,5.54-9.39v-4.48H787v4.46c0,3.45,3,7.69,5.65,9Zm4,5.14V421.3h.63v21.17Z"/><path class="b" d="M801.92,433.27v-.67h18.15v.67Zm2.6,8.38v-5.88h.61V441H818v.62Zm.07-12.68v-6.89h.59v6.27h12.72V429Z"/><path class="b" d="M829.87,438.94l.28-.62a7.68,7.68,0,0,0,4,1c3.1,0,4.6-1.68,4.6-4,0-2.59-1.81-3.72-4.58-3.72h-1.64v-.64h1.59c2.2,0,3.95-1.1,3.95-3.42s-1.37-3.35-3.77-3.35a6.62,6.62,0,0,0-3.71,1.17l-.26-.57a7,7,0,0,1,4-1.24c2.84,0,4.43,1.52,4.43,3.95a3.61,3.61,0,0,1-3,3.74v0a3.85,3.85,0,0,1,3.69,4.06c0,2.87-2,4.66-5.21,4.66A8,8,0,0,1,829.87,438.94Z"/><path class="b" d="M844.41,432.05v-.67c0-5.21,1.77-7.88,5-7.88s5,2.62,5,7.85v.69c0,5.24-1.7,7.9-5,7.9S844.41,437.26,844.41,432.05Zm9.27.07v-.78c0-4.48-1.24-7.21-4.28-7.21s-4.3,2.71-4.3,7.19v.76c0,4.5,1.27,7.23,4.3,7.23S853.68,436.62,853.68,432.12Z"/><path class="b" d="M867,438.07v-4.59h-8.79v-.62h18.15v.62h-8.75v4.59Zm-6.28,3.56v-5.56h.61V441h13v.62Zm0-11.53V422h.59v3.24h11.91V422h.61v8.06Zm12.5-4.2H861.34v3.56h11.91Z"/><path class="b" d="M884.27,424c0,5.6-1.09,9-3.95,12.81l-.5-.39a18.09,18.09,0,0,0,3.88-11.8H880V424Zm4.41,0a38.61,38.61,0,0,1-.39,6.06H892v-8.11h.61v19.31H892V430.67h-3.86a18.94,18.94,0,0,1-3.38,7.88l-.52-.37c2.68-3.44,3.82-8.18,3.82-12.86v-.71h-3V424Zm6.92,18.49V421.3h.61v21.17Z"/><path class="b" d="M386.09,472.39l.44-1.7a7.12,7.12,0,0,0,3.71,1c2.38,0,4.06-1.38,4.06-3.49,0-2.39-1.22-3.47-3.84-3.47a8.67,8.67,0,0,0-3.62.92l.54-8.84h8.21v1.79H389l-.28,4.89a7.3,7.3,0,0,1,2.6-.51c3,0,5.11,1.7,5.11,5.17,0,2.76-1.81,5.35-5.8,5.35A8.26,8.26,0,0,1,386.09,472.39Z"/><path class="b" d="M400.47,465.5v-1c0-5.19,1.83-8,5.39-8s5.37,2.8,5.37,8v1c0,5.21-1.81,8-5.37,8S400.47,470.72,400.47,465.5Zm8.58,0v-.87c0-4.39-.94-6.34-3.19-6.34s-3.21,2-3.21,6.32v.85c0,4.36.92,6.38,3.21,6.38S409,469.82,409,465.46Z"/><path class="b" d="M415.09,465.5v-1c0-5.19,1.83-8,5.39-8s5.37,2.8,5.37,8v1c0,5.21-1.81,8-5.37,8S415.09,470.72,415.09,465.5Zm8.58,0v-.87c0-4.39-.94-6.34-3.19-6.34s-3.21,2-3.21,6.32v.85c0,4.36.92,6.38,3.21,6.38S423.66,469.82,423.66,465.46Z"/><path class="b" d="M429.71,465.5v-1c0-5.19,1.83-8,5.39-8s5.37,2.8,5.37,8v1c0,5.21-1.81,8-5.37,8S429.71,470.72,429.71,465.5Zm8.58,0v-.87c0-4.39-.94-6.34-3.19-6.34s-3.21,2-3.21,6.32v.85c0,4.36.92,6.38,3.21,6.38S438.28,469.82,438.28,465.46Z"/><path class="b" d="M449.43,470.1v-3.79c-2,.09-3.75.12-5.52.16l-.33-1.79c2.33,0,4.52,0,6.74-.12,2.6-.14,4.6-.28,6.5-.5l.15,1.63c-1.35.21-3.47.39-5.5.5v3.9Zm.85-6.57c-3.1,0-5.39-1.49-5.39-4s2.29-4,5.39-4,5.39,1.56,5.39,4S453.43,463.53,450.28,463.53Zm-4,11.9V469.2h2.05v4.48H461v1.75Zm4-18.07c-1.92,0-3.19,1-3.19,2.25s1.27,2.2,3.19,2.2,3.19-.94,3.19-2.2S452.23,457.35,450.28,457.35ZM458.6,471v-2.27h-4v-1.61h4V454.62h2V471Z"/><path class="b" d="M482.51,465.94a9.58,9.58,0,0,1-4.6-4.71,9.3,9.3,0,0,1-4.87,5.35l-1.27-1.7a8,8,0,0,0,5-7.23v-2h2.09v2a7.31,7.31,0,0,0,4.8,6.68Zm-1.22,10c-4.28,0-6.83-1.61-6.83-4.18s2.55-4.18,6.83-4.18,6.85,1.61,6.85,4.18S485.59,476,481.29,476Zm-4.71-4.18c0,1.52,1.79,2.41,4.71,2.41s4.76-.9,4.76-2.41-1.81-2.41-4.76-2.41S476.58,470.28,476.58,471.8ZM487.86,462v5.65h-2.05v-13h2.05v5.58h3V462Z"/><path class="b" d="M497,464.08a39.77,39.77,0,0,0,7.92-.67l.28,1.72a47.64,47.64,0,0,1-9.08.74h-2.05v-9.6h9.21V458h-7.18v6.06Zm5.5,11.83c-4.39,0-6.76-1.65-6.76-4.13s2.38-4.18,6.76-4.18,6.81,1.68,6.81,4.18S506.88,475.91,502.48,475.91Zm0-6.54c-2.92,0-4.65,1-4.65,2.41s1.72,2.37,4.65,2.37,4.69-.92,4.69-2.37S505.42,469.36,502.48,469.36Zm6.55-7.49v5.42H507V454.62H509v5.47h3v1.79Z"/><path class="b" d="M528.2,470.56c-1.86.25-4.84.46-7.42.6-2.31.12-4.45.16-6.07.18l-.33-1.84c1.94,0,4.32,0,6.72-.16,2.86-.11,5.26-.28,6.87-.48ZM521,466.22c-3,0-5.28-2-5.28-4.87a5,5,0,0,1,5.28-5c3,0,5.32,2,5.32,5S524,466.22,521,466.22Zm0-8.08a3.18,3.18,0,0,0-3.25,3.19A3.08,3.08,0,0,0,521,464.4a3.14,3.14,0,1,0,0-6.27Zm10.28-3.51V476h-2V454.62Z"/><path class="b" d="M542.89,473.08v-1.77h18.33v1.77Zm16.65-5.95c-3.19-.94-6.55-3.65-7.48-6-.83,2.41-4.21,5.12-7.51,6l-1-1.75c3.32-.62,7.51-3.72,7.51-7.3v-1.68h2.12v1.68c0,3.56,4.43,6.73,7.53,7.37Z"/><path class="b" d="M566.84,469.16a45.57,45.57,0,0,0,9.23-.71l.2,1.77a56,56,0,0,1-9.56.74h-1.9V456.59h9.69v1.75h-7.66v4.29H574v1.75h-7.16Zm12.87-6.2h3.16v1.79h-3.16V476h-2V454.62h2Z"/><path class="b" d="M586,465.8v-9.94h2.05v3.33h5.15v-3.35h2.05v10Zm7.2-4.89H588.1V464h5.15ZM599.81,476v-6H588.29v-1.75h13.59V476Zm-3.4-14.35v-1.84h3.4v-5.19h2.05v12.54h-2.05v-5.51Z"/><path class="b" d="M606.38,473.08v-1.77h18.33v1.77ZM623,467.14c-3.19-.94-6.55-3.65-7.48-6-.83,2.41-4.21,5.12-7.51,6l-1-1.75c3.32-.62,7.51-3.72,7.51-7.3v-1.68h2.12v1.68c0,3.56,4.43,6.73,7.53,7.37Z"/><path class="b" d="M645.07,465.94a9.59,9.59,0,0,1-4.6-4.71,9.3,9.3,0,0,1-4.87,5.35l-1.27-1.7a8,8,0,0,0,5-7.23v-2h2.09v2a7.31,7.31,0,0,0,4.8,6.68Zm-1.22,10c-4.28,0-6.83-1.61-6.83-4.18s2.55-4.18,6.83-4.18,6.85,1.61,6.85,4.18S648.15,476,643.85,476Zm-4.71-4.18c0,1.52,1.79,2.41,4.71,2.41s4.76-.9,4.76-2.41-1.81-2.41-4.76-2.41S639.13,470.28,639.13,471.8ZM650.42,462v5.65h-2.05v-13h2.05v5.58h3V462Z"/><path class="b" d="M658.05,475.68V468.9h6v-2.14h-8.09V465h18.33v1.77h-8.18v2.14h6v6.77Zm-.35-18.35v-1.75h14.66v1.75Zm0,6v-1.77h3.08l-.57-3.17,2.05-.32.46,3.49h4.63l.46-3.51,2.07.32-.63,3.19h3.08v1.77Zm12.33,7.28h-10V474h10Z"/><path class="b" d="M682.75,469.59v-4.85c-1.92.07-3.75.12-5.52.14l-.33-1.81q3.57,0,6.87-.14c.76,0,1.48-.07,2.16-.12a23.6,23.6,0,0,0,.48-5h-7.7v-1.75h9.78a35.84,35.84,0,0,1-.55,6.57c.76-.07,1.48-.14,2.18-.23l.24,1.68c-1.51.23-3.51.39-5.56.53v5Zm-3,5.83v-6.54h2.05v4.78h12.57v1.77Zm7.7-9.35h4.39V454.62h2.05v16.21h-2.05v-3.12h-4.39Z"/><path class="b" d="M698.33,465.09v-.62h18.15v.62Zm9.06-2.69c-4.52,0-6.83-1.54-6.83-3.61s2.31-3.56,6.83-3.56,6.81,1.49,6.81,3.56S711.9,462.4,707.39,462.4Zm-6.7,13.11v-4.46h12.44v-2.8h-12.5v-.64h13.11v4.09H701.3v3.19h13.57v.62Zm6.7-19.66c-4.15,0-6.2,1.33-6.2,2.94s2.05,2.94,6.2,2.94,6.17-1.36,6.17-2.94S711.51,455.86,707.39,455.86Z"/><path class="b" d="M726.7,472.69v-.62h18.15v.62Zm2.51-6.73v-9.07h13.2v.62H729.82v7.81h12.76V466Z"/><path class="b" d="M760,464.93a62.09,62.09,0,0,1-10.45.71h-.63v-5.42H757v-3.77h-8.1v-.64h8.71v5.05H749.5V465a65.15,65.15,0,0,0,10.41-.69Zm-8.6,10.63v-8H752v3.21h11.48v-3.28h.59v8.11Zm12.07-4.16H752v3.51h11.48Zm0-5.14V454.73h.59v11.53Z"/><path class="b" d="M781.84,469.11a51.26,51.26,0,0,1-10.67,1h-.61v-13.3h.59V469.5a47.81,47.81,0,0,0,10.58-1Zm2.66,6.77V454.71h.59v21.17Z"/><path class="b" d="M802.28,469.59a47.82,47.82,0,0,1-9.34.8h-1.79V456.87h9.17v.67h-8.55v12.19a53.65,53.65,0,0,0,10.45-.76Zm3-5.3v11.6h-.59V454.71h.59v9H809v.62Z"/><path class="b" d="M812.36,472.28h1v1.24h-1Zm.15-16.17h.74l0,13.48h-.63Z"/><path class="b" d="M378.57,197.53H357.92v-9.35h31.6v9.35l-9.42,56H369.37Zm27,5.16V187.83h9.91v66h-9.91V233.59H392.46v-9.49h13.12V212.18H392.46v-9.49Z"/><path class="b" d="M480.85,242.87H438v3.28h42.83v7.67h-51.9V235.48h42.83v-3.21H428.94v-7.4H450v-3.77H424.9v-7.53h60v7.53H459.78v3.77h21.07ZM469,188.18c6.91,0,12.42,4.33,12.42,11.16s-5.51,11.09-12.42,11.09H440.8c-6.84,0-12.42-4.26-12.42-11.09s5.58-11.16,12.42-11.16Zm-28.12,8.3a2.86,2.86,0,1,0,0,5.72h28a2.86,2.86,0,1,0,0-5.72Z"/><path class="b" d="M493.61,222.78v-34.6h9.77v8.93H516.7v-8.93h9.77v34.6ZM508.12,229h28.39a12.42,12.42,0,1,1,0,24.84H508.12a12.42,12.42,0,1,1,0-24.84Zm8.58-14.93v-8.44H503.38v8.44Zm-8.44,31h28.11a3.67,3.67,0,0,0,0-7.26H508.26a3.67,3.67,0,0,0,0,7.26Zm29.51-21.21v-36h9.77v11.65h7.12V209h-7.12v14.86Z"/><path class="b" d="M582.91,190.27h12.77v8.3H587c3.91,2.3,6.56,6,6.56,10.12v4.4c0,6.91-7.39,12.56-15.84,12.56s-15.42-5.65-15.42-12.56V209c0-4.6,2.72-8.16,6.42-10.39h-8.51v-8.3h12.91v-4.81h9.77Zm38.72,19.6h-7.12v28.81l-2.65,15.14H602.3L605,238.69H563.51v-8.16h40.6V187.83h10.39v12.63h7.12Zm-37,.7c0-3.21-2.93-5.86-6.56-5.86s-6.63,2.65-6.63,5.86v1.19c0,3.28,3,5.86,6.63,5.86s6.56-2.58,6.56-5.86Z"/><path class="b" d="M670.74,187.83c9.07,0,16.25,7.88,16.25,17v32.09c0,9.14-7.33,17-16.53,17H667a17,17,0,0,1-17.16-17V204.78a17,17,0,0,1,17.16-17Zm-3.7,9.91a7.16,7.16,0,0,0-7.25,7v32.09a7.16,7.16,0,0,0,7.25,7h3.14a7,7,0,0,0,6.91-7V204.78a7,7,0,0,0-6.77-7Zm38.65,56.09H694.95v-66h10.74Z"/><path class="b" d="M716.15,224.18v-36h9.7v10.12h7.74V188.18h9.56v13.88h5.37V187.83H758v47.65h-9.49V211.34h-5.37v12.84Zm13.67,20.23H763V187.83h9.63v66H719.78V231.08h10Zm3.77-29.79V207.5h-7.74v7.12Z"/><path class="b" d="M842.07,244.69v9.14h-60v-9.14Zm-3.21-56.51v9.42H796.24v8h42.63V215H796.24v7.46h42.63v9.42H785.43V188.18Z"/><path class="b" d="M537.27,129.82v-.34c0-4.84,3.06-6.58,6.58-6.58a8.12,8.12,0,0,1,3.63.74V125a8.5,8.5,0,0,0-3.75-.79c-3.47,0-4.68,2.35-4.68,5.08v.52c0,3,1,5.15,4.72,5.15a9,9,0,0,0,2.62-.38V131h-3v-1.26H548v5.75a13.32,13.32,0,0,1-4.27.7C539.79,136.21,537.27,134.24,537.27,129.82Z"/><path class="b" d="M553.15,123.11h1.66v11.6h6.28V136h-7.94Z"/><path class="b" d="M564.78,129.71v-.33c0-4,2.3-6.49,6.15-6.49s6.07,2.29,6.07,6.5v.33c0,4-2.3,6.49-6.13,6.49S564.78,133.92,564.78,129.71Zm10.44.29v-.6c0-3.13-1.23-5.24-4.37-5.26-2.87,0-4.29,2.08-4.29,5v.6c0,3.13,1.23,5.28,4.35,5.28C573.8,135,575.22,132.87,575.22,130Z"/><path class="b" d="M581.74,123.11H586c3.22,0,4.49,1.19,4.49,3.23a2.75,2.75,0,0,1-2.32,2.82v.09c1.72.25,2.95,1.16,2.95,3.11,0,2.13-1.58,3.63-4.7,3.63h-4.66Zm4,5.62c1.74,0,3-.54,3-2.2s-1-2.13-2.95-2.13h-2.48v4.34Zm.55,6c2,0,3.06-.79,3.06-2.46s-1.17-2.33-3.24-2.33h-2.75v4.79Z"/><path class="b" d="M599.56,123.11h1.6L606.23,136h-1.72L603,132.24h-5.58L596,136h-1.58ZM597.94,131h4.59l-2.26-5.82h0Z"/><path class="b" d="M610.37,123.11H612v11.6h6.28V136h-7.94Z"/><path class="b" d="M622,135.15v-.45a8.36,8.36,0,0,0,3.83.89c2.67,0,3.81-1.08,3.81-2.89s-1.21-2.46-3.08-3l-.88-.27c-2.38-.74-3.38-1.57-3.38-3.38,0-1.64,1.29-2.94,3.92-2.94a7.11,7.11,0,0,1,3.28.7v.45a7,7,0,0,0-3.3-.7c-2.28,0-3.38,1-3.38,2.46,0,1.59.78,2.24,3,3l.84.23c2.11.67,3.49,1.37,3.49,3.45S628.84,136,625.8,136A8.51,8.51,0,0,1,622,135.15Z"/><path class="b" d="M635.27,123.22h.66l8.39,11.83h0V123.22h.49v12.65h-.57l-8.47-12h0v12h-.51Z"/><path class="b" d="M650.49,131.66v-8.44H651v8.4c0,2.89,1.56,4,4.24,4s4.21-1.08,4.21-4v-8.4H660v8.42c0,3.05-1.68,4.37-4.72,4.37S650.49,134.68,650.49,131.66Z"/><path class="b" d="M619.13,81.13A21.75,21.75,0,0,0,600.45,59.6a3.49,3.49,0,0,0,.52-1.82,3.57,3.57,0,1,0-4.54,3.44v3.44a16.57,16.57,0,0,0,0,33.08v8.37H587a1,1,0,0,0,0,1.95h20.43a1,1,0,0,0,0-1.95h-9.08v-3.24A21.76,21.76,0,0,0,619.13,81.13Zm-1.95,0a19.85,19.85,0,0,1-18.81,19.78V97.67a16.57,16.57,0,0,0,0-33.08V61.35A19.85,19.85,0,0,1,617.19,81.13ZM603.57,91.51a4.21,4.21,0,0,1,4.22-4.22,6.27,6.27,0,0,0,3.24-.91,14.75,14.75,0,0,1-8.37,8.37A6.27,6.27,0,0,0,603.57,91.51Zm6.81-11.35a6.81,6.81,0,0,1-6.81-6.81,4.18,4.18,0,0,1,2.59-3.89,14.45,14.45,0,0,1,5.77,10.7Zm-8.76-6.81a8.8,8.8,0,0,0,8.76,8.76h1.49a4.23,4.23,0,0,1-4.09,3.24,6.2,6.2,0,0,0-6.16,6.16,4.17,4.17,0,0,1-3.24,4.09v-29a13.85,13.85,0,0,1,5.9,1.69A6.12,6.12,0,0,0,601.62,73.35Zm-5.84-15.57a1.62,1.62,0,1,1,1.62,1.62A1.61,1.61,0,0,1,595.78,57.79Zm-7.65,12.13a6.22,6.22,0,0,0,5,5A4.25,4.25,0,0,1,589,78.28a4.21,4.21,0,0,1-4.22-4.22v-.13A13.45,13.45,0,0,1,588.13,69.91Zm-4.67,6.87A6.17,6.17,0,0,0,595.14,74a1,1,0,0,0-1-1,4.21,4.21,0,0,1-4.22-4.22v-.19a14.1,14.1,0,0,1,6.49-2V95.73a13.18,13.18,0,0,1-2.79-.45,6.05,6.05,0,0,0,1.49-4,8.82,8.82,0,0,0-8.76-8.82h-3.5a8.69,8.69,0,0,1-.06-1.3A16,16,0,0,1,583.46,76.79Zm-.26,7.59h3.18a6.81,6.81,0,0,1,6.81,6.81,4.12,4.12,0,0,1-1.62,3.31A14.51,14.51,0,0,1,583.2,84.38Z"/><circle class="b" cx="874.8" cy="223.83" r="2.5"/><circle class="b" cx="325.7" cy="224.2" r="2.5"/><path class="b" d="M441.84,582a4.16,4.16,0,1,1-4.15-3.85A3.9,3.9,0,0,1,441.84,582Zm-7.05,0a2.73,2.73,0,0,0,2.9,2.73,2.73,2.73,0,1,0,0-5.45A2.71,2.71,0,0,0,434.79,582ZM436,595V590.6h9.45v-2h-9.54v-1.1h10.77v4.14h-9.45v2.24h10.1V595Zm9.43-8.41v-9.11h1.23v9.11Z"/><path class="b" d="M458.94,590.77a12.49,12.49,0,0,1-4.29-5.58,12.42,12.42,0,0,1-4.29,6l-.85-1a10.17,10.17,0,0,0,4.51-7.78V579.1h1.26v3.3a9.11,9.11,0,0,0,4.47,7.35Zm3.19,4.33V577.45h1.23V595.1Z"/><path class="b" d="M478.39,577.83h1.3v17.48h-1.3Z"/><path class="b" d="M493.56,592l3.64-3.72c1.91-2,3-3.08,3-5.22,0-1.82-1.06-2.7-2.85-2.7a5.76,5.76,0,0,0-3.12,1.08l-.49-1.14a6.41,6.41,0,0,1,3.77-1.21c2.83,0,4.11,1.82,4.11,3.82,0,2.85-1.44,4-3.57,6.17l-2.53,2.54h6.29v1.23h-8.3Z"/><path class="b" d="M504.5,586.44v-.72c0-4.29,1.52-6.62,4.37-6.62s4.35,2.3,4.35,6.61v.74c0,4.31-1.48,6.63-4.35,6.63S504.5,590.75,504.5,586.44Zm7.3,0v-.7c0-3.64-.87-5.45-2.94-5.45s-3,1.78-3,5.43v.68c0,3.63.87,5.47,3,5.47S511.81,590.07,511.81,586.44Z"/><path class="b" d="M516.12,591.63h3.43v-10.8L516,582.13V581l4-1.73h.92v12.4H524v1.23h-7.92Z"/><path class="b" d="M534,580.52H526.6v-1.23h8.87v.89l-5.36,12.68h-1.48Z"/><path class="b" d="M546.42,578.11h1.1l-4.58,16.8h-1.1Z"/><path class="b" d="M549.83,591.63h3.43v-10.8l-3.57,1.31V581l4-1.73h.92v12.4h3.16v1.23h-7.92Z"/><path class="b" d="M563.9,578.11H565l-4.58,16.8h-1.1Z"/><path class="b" d="M567.31,591.63h3.43v-10.8l-3.57,1.31V581l4-1.73h.92v12.4h3.16v1.23h-7.92Z"/><path class="b" d="M584.32,595.12v-6h-6.94V588h15.15v1.1h-7v6Zm-4.92-9.32v-7.63h1.23v2.71h8.68v-2.71h1.23v7.63Zm9.9-3.82h-8.68v2.71h8.68Z"/><path class="b" d="M601.72,585.06H596v4.56a36.71,36.71,0,0,0,7.61-.59l.16,1.12a53.12,53.12,0,0,1-9,.63V579.15h7.65v1.1H596V584h5.75Zm4.67,10v-9.66h-3.7v-1.1h3.7v-6.89h1.23V595.1Z"/><path class="b" d="M621.94,586.77c.78,0,1.28-.7,1.42-1.77l.83.27c-.27,1.78-1.42,2.58-2.33,2.58a3.1,3.1,0,0,1-2.07-.93c-.78-.7-1.15-1.12-1.86-1.12s-1.17.7-1.46,1.82l-.83-.32c.41-1.92,1.35-2.6,2.47-2.6a3.54,3.54,0,0,1,1.93,1C620.73,586.33,621.2,586.77,621.94,586.77Z"/><path class="b" d="M639.67,587.45a8.3,8.3,0,0,1-4.18-4.38,9.19,9.19,0,0,1-4.22,5l-.76-1c2.16-1.08,4.33-3.49,4.33-6.38v-2.22h1.23v2.18a6.42,6.42,0,0,0,4.33,5.77Zm-6.1,7.08v-5.35h1.23v4.25h9.85v1.1Zm5.93-11.64v-1.1h3.55v-4.35h1.23v12.81h-1.23v-7.36Z"/><path class="b" d="M656,587.43a7.74,7.74,0,0,1-4.09-3.62,7.56,7.56,0,0,1-4.29,4.1l-.67-1c2.16-.64,4.33-2.9,4.33-5v0h-3.75v-1.1h8.71v1.1h-3.72v0c0,2.07,2.18,4.06,4.15,4.54Zm2.78,7.67V590h-9.58v-1.08h10.8v6.17ZM649.72,579v-1.1h4.46V579ZM660,583.33V588h-1.23V577.45H660v4.78h2.62v1.1Z"/><path class="b" d="M670.82,591.45v-3.68h-7v-1.1H679v1.1H672v3.68Zm6.69-6.76a9.11,9.11,0,0,1-6.13-4.27c-.61,1.58-3,3.68-6.08,4.29l-.6-1c2.81-.32,6.06-2.62,6.06-5V578H672v.66c0,2.45,3.45,4.71,6.08,5Zm-11.69,9.79v-4.88h1.23v3.78h10.06v1.1Z"/><path class="b" d="M686.13,590.52v-11.2h7.57v11.2Zm6.35-10.1h-5.12v9h5.12Zm5.79,5.31v9.36H697V577.45h1.23v7.19h2.83v1.1Z"/><path class="b" d="M710.38,578.72c-.36,4.9-3.55,7.67-7.77,9l-.65-1.1c3.5-.8,6.57-3.57,7-6.83h-6.28v-1.1Zm-5.93,16.12v-6.38h10.44v6.38Zm9.22-5.28h-8v4.18h8Zm1.21-6.38v4.35h-1.23V577.45h1.23v4.63h2.62v1.1Z"/><path class="b" d="M728,590.77a12.48,12.48,0,0,1-4.29-5.58,12.42,12.42,0,0,1-4.29,6l-.85-1a10.17,10.17,0,0,0,4.51-7.78V579.1h1.26v3.3a9.11,9.11,0,0,0,4.47,7.35Zm3.19,4.33V577.45h1.23V595.1Z"/><path class="b" d="M740,579.4a17.5,17.5,0,0,1-4.2,11.56l-1-.78c2.52-2.41,3.91-6.89,4-9.68h-3.19v-1.1Zm4.6,0a20.23,20.23,0,0,1-4,12.68l-1.08-.72c2.87-3,3.79-8.58,3.79-10.86H740.8v-1.1Zm3.72,5.49H751V586h-2.62v9.11h-1.23V577.45h1.23Z"/><path class="b" d="M761.35,590.66c-1.57-1.14-3.68-3.25-4.29-5.47a11.44,11.44,0,0,1-4.29,6l-.81-1a9.64,9.64,0,0,0,4.46-7.69v-2.07h-4v-1.1h9.25v1.1h-4v2a8.85,8.85,0,0,0,4.49,7.25Zm4.15-13.21V595.1h-1.23V577.45Z"/><path class="b" d="M279.41,614.13l-2,1.2-.18-.34,2-1.2-2-1.2.18-.36,2,1.23,0-2.45h.4v2.45l2-1.23.18.36-2,1.2,2,1.2-.18.34-2-1.21v2.41h-.4Z"/><path class="b" d="M291,623.35v-3.8h-7.27V619h15v.51h-7.23v3.8Zm-5.19,2.94V621.7h.5v4.08H297v.51Zm0-9.53v-6.66h.49v2.68h9.85v-2.68h.5v6.66Zm10.33-3.47h-9.85v2.94h9.85Z"/><path class="b" d="M310.33,618.36a53.3,53.3,0,0,1-8.62.57h-.54V614.4h6.69v-3.21h-6.71v-.51h7.2v4.25h-6.67v3.49a51.07,51.07,0,0,0,8.58-.59Zm-2.47,8.5c-3.45,0-5.45-1.14-5.45-3s2-3,5.45-3,5.43,1.06,5.43,3S311.28,626.87,307.86,626.87Zm0-5.47c-3.23,0-4.94,1-4.94,2.43s1.71,2.49,4.94,2.49,4.89-1,4.89-2.49S311,621.4,307.86,621.4Zm7.85-4.54H313v3.44h-.5V609.5h.5v3.13h2.74v.51H313v3.21h2.74Z"/><path class="b" d="M321.6,611c2.16,0,3.93,2.22,3.93,5.94s-1.77,6-3.93,6-4-2.32-4-6S319.38,611,321.6,611Zm0,11.31c1.86,0,3.43-2.07,3.43-5.37s-1.57-5.39-3.43-5.39-3.43,2-3.43,5.37S319.74,622.29,321.6,622.29Zm8.15,4.71V609.5h.5V627Z"/><path class="b" d="M346,626.85c-3.5,0-5.55-1-5.55-2.83s1.95-2.71,5.28-2.77V619.2h-7.23v-.51h15v.51h-7.27v2.05c3.36,0,5.3,1,5.3,2.77S349.54,626.85,346,626.85Zm.25-14.1V613c0,1.94,3.16,3.42,6.15,3.72l-.31.49c-2.81-.32-5.37-1.58-6.1-3.17-.65,1.61-3.3,2.9-6.11,3.23l-.31-.49c3-.3,6.17-1.84,6.17-3.78v-.23H340.2v-.51h11.69v.51ZM346,621.8c-3.45,0-5,.93-5,2.22s1.55,2.28,5,2.28,5-1,5-2.28S349.47,621.8,346,621.8Zm-2.62-11.46v-.55h5.23v.55Z"/><path class="b" d="M362.4,623.35v-3.8h-7.27V619h15v.51h-7.23v3.8Zm-5.19,2.94V621.7h.5v4.08h10.71v.51Zm0-9.53v-6.66h.49v2.68h9.85v-2.68h.51v6.66Zm10.33-3.47h-9.85v2.94h9.85Z"/><path class="b" d="M371.62,614.43v-.51h9.83v.51Zm5,8.62a3.52,3.52,0,0,1-3.64-3.47,3.66,3.66,0,0,1,7.3,0A3.52,3.52,0,0,1,376.65,623.05Zm0-6.42a3,3,0,0,0-3.08,2.94,3.09,3.09,0,1,0,3.08-2.94ZM374,611.38v-.51h4.89v.51Zm10.17,6.34V627h-.5V609.5h.5v7.67h3v.55Z"/><path class="b" d="M397.86,622.77a10.75,10.75,0,0,1-4.46-5.87,11.32,11.32,0,0,1-4.49,6.26l-.45-.49c2.36-1.29,4.69-4.84,4.69-7.57v-3.17h-4.29v-.55h9.22v.55h-4.42v3.15c0,2.75,2.38,6.09,4.56,7.16Zm3.32,4.23V609.5h.52V627Z"/><path class="b" d="M418.71,614.57a3.92,3.92,0,0,1-4.08,4,4,4,0,1,1,0-8A3.88,3.88,0,0,1,418.71,614.57Zm-7.72,0a3.61,3.61,0,0,0,7.21,0,3.41,3.41,0,0,0-3.57-3.46A3.45,3.45,0,0,0,411,614.6Zm5.79,11a17.75,17.75,0,0,1-5,.68v-5.9h.49v5.31a13.66,13.66,0,0,0,4.38-.66Zm-.5-3.78v-.51h8.33v.51Zm4.15,5.14c-2,0-3-1-3-2.11s1-2.09,3-2.09,3,1,3,2.09S422.41,627,420.42,627Zm0-3.64c-1.64,0-2.45.76-2.45,1.54s.81,1.58,2.45,1.58,2.49-.78,2.49-1.58S422.07,623.37,420.42,623.37Zm-1.86-3.44v-.51h4v.51Zm4.08-5.68v4h-.52V609.5h.52v4.25h2.72v.51Z"/><path class="b" d="M426.56,619.6V619h15v.55Zm7.48-2.89c-3.5,0-5.64-1.27-5.64-3.26s2.15-3.28,5.64-3.28,5.63,1.27,5.63,3.28S437.54,616.71,434,616.71Zm-5.3,9.6v-4.76h.51v4.25h10.6v.51Zm5.3-15.64c-3.25,0-5.12,1.2-5.12,2.77s1.88,2.75,5.12,2.75,5.1-1.2,5.1-2.75S437.27,610.68,434,610.68Z"/><path class="b" d="M455.43,627v-5.54H448.2V621h15v.51h-7.27V627Zm-6.35-14v-.51h13.13V613Zm6.62,6.4c-3.07,0-4.85-1.1-4.85-2.6s1.79-2.52,4.85-2.52,4.82,1.06,4.82,2.52S458.77,619.41,455.71,619.41Zm0-4.61c-2.94,0-4.33,1-4.33,2s1.39,2.07,4.33,2.07,4.29-1,4.29-2.07S458.61,614.79,455.71,614.79Zm-2.89-4.31V610h5.75v.53Z"/><path class="b" d="M473.33,611.47c-.11,5.49-3.3,9.51-7.75,11.88l-.38-.49c4.47-2.28,7.27-6,7.61-10.84h-7v-.55ZM477.66,627V609.5h.52V627Z"/><path class="b" d="M487.34,617.49v-6.7h7.58v6.7Zm7.09-6.17h-6.58v5.62h6.58Zm-5.32,16-.29-.49c3.12-.61,5.81-2.64,5.81-4.27v-.11h-5.32v-.53h11.15v.53h-5.28v.11c0,1.63,2.56,3.66,5.68,4.27l-.27.49c-2.63-.57-5-2.26-5.68-3.8C494.29,625.06,491.74,626.75,489.11,627.32Zm3.17-7.23v-.51h5.21v.51Zm7.05-.51V609.5h.5v10.08Z"/><path class="b" d="M516.16,621.7a25.93,25.93,0,0,1-5.83.57h-1.51V611.74H515v.51h-5.63v9.51a32.17,32.17,0,0,0,6.73-.53Zm5.32,5.3v-9.6h-3.37V626h-.49V610h.49v6.87h3.37V609.5H522V627Z"/><path class="b" d="M524.84,613.12v-.53h9.49v.53Zm4.69,6.8c-2,0-3.59-1.21-3.59-2.83s1.55-2.79,3.59-2.79,3.59,1.16,3.59,2.79S531.6,619.92,529.53,619.92Zm0-5.09c-1.84,0-3,1.08-3,2.26s1.21,2.32,3,2.32,3-1,3-2.32S531.37,614.83,529.53,614.83ZM536.85,627v-4.84h-10.1v-.51h10.61V627Zm-9.68-16.44V610h4.78v.51Zm10.19,5v5.07h-.52V609.5h.52v5.56h2.71v.55Z"/><path class="b" d="M546.38,626.45v-6.78c-1.93.08-3.61.1-5.14.13l-.07-.59c1,0,3.17,0,5.43-.13s4.6-.21,5.9-.38l.07.55c-1.26.17-3.35.27-5.66.4v6.8Zm4.27-12.53c0,2.14-1.8,3.51-4.11,3.51s-4.17-1.37-4.17-3.49,1.88-3.49,4.17-3.49S550.65,611.81,550.65,613.92Zm-7.77,0c0,1.8,1.61,3,3.66,3s3.59-1.16,3.59-3-1.51-3-3.59-3S542.88,612.16,542.88,614Zm11.18,13V609.5h.5V627Z"/><path class="b" d="M566.47,611.47a13.09,13.09,0,0,1-7.61,12.34l-.42-.49a12.78,12.78,0,0,0,6.64-6.95l-6.44.67-.22-.59,6.82-.55A15.16,15.16,0,0,0,566,612h-6.75v-.55ZM570.73,627V609.5h.52V627Z"/><path class="b" d="M584.54,611.45V613c0,2.9,2.42,4.92,4.27,5.64l-.31.47a7.77,7.77,0,0,1-4.22-4.4,8,8,0,0,1-4.33,4.86l-.34-.49C582,618,584,615.84,584,613v-1.54h-4.11v-.51h8.71v.51ZM591.68,627v-5.33H581.6v-.55h10.59V627Zm.49-11.86v5h-.51V609.5h.51v5.13h2.72v.51Z"/><path class="b" d="M605.19,618.82a7.88,7.88,0,0,1-4.27-4.48,8.08,8.08,0,0,1-4.37,5l-.29-.47a7.09,7.09,0,0,0,4.4-6.25v-2.09h.49v2.07c0,3,2.51,5,4.38,5.75Zm-1,8.14c-3.5,0-5.55-1.23-5.55-3.13s2.06-3.06,5.55-3.06,5.54,1.16,5.54,3.06S607.74,627,604.24,627Zm0-5.67c-3.32,0-5,1.08-5,2.54s1.73,2.58,5,2.58,5-1.1,5-2.58S607.5,621.29,604.24,621.29Zm.49-6.85v-.51H609V609.5h.52v11H609v-6.11Z"/><path class="b" d="M612.7,616.94v-.53h12a20.52,20.52,0,0,0,.45-4.29v-1.33H614.72v-.51h10.89v1.46a23.68,23.68,0,0,1-.47,4.67h2.56v.53Zm1.95,9.7v-3.93h10.59v-2.5H614.52v-.51h11.22v3.53H615.15v2.9h11.22v.51Z"/><path class="b" d="M629.29,619.6V619h15v.55Zm7.48-2.89c-3.5,0-5.65-1.27-5.65-3.26s2.15-3.28,5.65-3.28,5.63,1.27,5.63,3.28S640.28,616.71,636.78,616.71Zm-5.3,9.6v-4.76h.5v4.25h10.61v.51Zm5.3-15.64c-3.25,0-5.12,1.2-5.12,2.77s1.88,2.75,5.12,2.75,5.1-1.2,5.1-2.75S640,610.68,636.78,610.68Z"/><path class="b" d="M660,619.44a8.51,8.51,0,0,1-4.29-4.78,8.54,8.54,0,0,1-4.35,5.31l-.29-.49a7.6,7.6,0,0,0,4.38-6.57v-2.37H656v2.35c0,3,2.51,5.33,4.38,6.07Zm-5.92,6.76V621h.5v4.65H664.9v.51Zm5.41-11.62v-.51h4.27v-4.56h.52v12.79h-.52v-7.73Z"/><path class="b" d="M676.66,619.48a7.13,7.13,0,0,1-4.26-3.85c-.45,1.82-2.33,3.51-4.36,4.31l-.31-.47c2.54-1,4.42-3,4.42-5.43v-.68h-4.09v-.51h8.68v.51h-4.08V614c0,2.54,2.27,4.33,4.27,4.92Zm3,7.52v-5.47h-9.92V621h10.44v6Zm-9.52-16.34v-.51h4.49v.51Zm10,4.5V620h-.52V609.5h.52v5.14h2.71v.51Z"/><path class="b" d="M691.39,623.34v-4h-7.27v-.55h15v.55H691.9v4Zm-5.9-6.76-.32-.55c3-.47,6.2-2.77,6.2-5v-1.1h.5V611c0,2.22,3.21,4.52,6.2,5l-.32.55c-3-.65-5.46-2.56-6.13-4.33C691,614.05,688.47,615.93,685.49,616.58Zm.7,9.72v-4.71h.5v4.19h10.66v.51Z"/><path class="b" d="M714.88,619.44a8.51,8.51,0,0,1-4.29-4.78,8.54,8.54,0,0,1-4.35,5.31l-.29-.49a7.6,7.6,0,0,0,4.38-6.57v-2.37h.49v2.35c0,3,2.51,5.33,4.38,6.07ZM709,626.2V621h.5v4.65h10.26v.51Zm5.41-11.62v-.51h4.27v-4.56h.52v12.79h-.52v-7.73Z"/><path class="b" d="M727.56,611.45v1.4c0,3,2.43,4.86,4.29,5.56l-.34.49a7.55,7.55,0,0,1-4.18-4.35c-.47,2.07-2.47,3.91-4.44,4.86l-.36-.47c2.4-1.08,4.53-3.23,4.53-6.07v-1.42h-4.18v-.51h8.78v.51Zm2.83,15.47c-3.5,0-5.55-1.23-5.55-3.13s2.06-3.06,5.55-3.06,5.54,1.16,5.54,3.06S733.89,626.92,730.39,626.92Zm0-5.67c-3.32,0-5,1.08-5,2.54s1.73,2.58,5,2.58,5-1.1,5-2.58S733.65,621.25,730.39,621.25Zm.78-6.45v-.53h4.08V609.5h.52v11h-.52v-5.69Z"/><path class="b" d="M742.67,611.21c1.91,0,3.37,2.07,3.45,5.52h3V610h.5v16h-.5v-8.75h-3c-.07,3.44-1.53,5.56-3.45,5.56s-3.43-2.22-3.43-5.81S740.69,611.21,742.67,611.21Zm0,11.09c1.66,0,2.92-2,2.92-5.28s-1.26-5.26-2.92-5.26-2.9,2-2.9,5.24S741,622.29,742.67,622.29Zm9.69,4.71V609.5h.5V627Z"/><path class="b" d="M765.16,622.75a11.42,11.42,0,0,1-4.58-6.11,11.91,11.91,0,0,1-4.42,6.51l-.42-.51a10.47,10.47,0,0,0,4.58-7.76v-3.7h.5v3.68a9.66,9.66,0,0,0,4.65,7.42Zm-1.33-6.05v-.49h4.58v-6.7h.52V627h-.52V616.69Z"/><path class="b" d="M785.13,622.79a9.65,9.65,0,0,1-3.75-5.43,9.45,9.45,0,0,1-3.82,5.9l-.4-.47a8.76,8.76,0,0,0,4-7.76v-2.66h-3.7v-.51h7.72v.51h-3.5V615a8.66,8.66,0,0,0,3.84,7.33Zm2.13,3.21v-9.38h-3.37v-.53h3.37V610h.5v16Zm3.35,1V609.5h.49V627Z"/><path class="b" d="M805.13,622.25c-1.37.19-3,.3-5.23.44s-4.22.17-5.86.21l-.13-.61c.9,0,3,0,5-.11v-3.62a3.92,3.92,0,1,1,.25-7.82,3.92,3.92,0,1,1,.23,7.82v3.61c2.15-.1,4.38-.27,5.65-.46Zm-9.7-7.61a3.47,3.47,0,0,0,3.75,3.38,3.4,3.4,0,1,0,0-6.78A3.48,3.48,0,0,0,795.43,614.64Zm11,12.36V609.5H807V627Z"/><path class="b" d="M821.42,617.76c-1.28.17-3.54.38-5.47.49s-4,.21-5.34.25l-.14-.65c1,0,3.25-.09,5.1-.17h.07v-2.52h-3.59v-4.88h7.63v.51h-7.14v3.85h7.32v.51h-3.73v2.51c2-.08,4.08-.25,5.23-.4Zm-8.21,9V623h10v-2.35h-10v-.51h10.53v3.38h-10v2.71h10.75v.55Zm10-7.65V609.5h.49v9.64Z"/><path class="b" d="M839.26,627.19v-6.91H832v-.57h15v.57h-7.27v6.91Zm-6-10-.29-.55c3-.47,6.28-2.94,6.28-5.12v-1.25h.5v1.25c0,2.18,3.28,4.65,6.28,5.13l-.31.51c-3-.65-5.55-2.7-6.22-4.46C838.88,614.45,836.28,616.5,833.29,617.15Z"/><path class="b" d="M862.43,614.57a3.92,3.92,0,0,1-4.11,4,4,4,0,1,1,0-8A3.89,3.89,0,0,1,862.43,614.57Zm-7.75,0a3.47,3.47,0,0,0,3.64,3.47,3.48,3.48,0,1,0,0-6.95A3.46,3.46,0,0,0,854.68,614.6Zm6.46,11.33a5.1,5.1,0,0,1-2.49-2.83,6.78,6.78,0,0,1-3.54,4l-.36-.46c2.07-.93,3.63-3,3.63-4.61v-1.67h.52v1.46a4.24,4.24,0,0,0,2.6,3.74Zm7.11,1.1a7,7,0,0,1-3.34-3.66,7,7,0,0,1-3.48,3.85l-.36-.44c1.82-.8,3.59-2.94,3.59-4.63v-1.84h.5V622a5.54,5.54,0,0,0,3.45,4.61Zm-1.68-7.25V609.5h.5v10.29Z"/><path class="b" d="M870.26,618.27v-.51h15v.51Zm1.35-2.56-.31-.55c3-.47,6.2-2.62,6.2-4.82v-.72h.5v.72c0,2.2,3.21,4.35,6.2,4.82l-.31.53c-3-.67-5.48-2.43-6.15-4.18C877.12,613.31,874.59,615,871.62,615.71Zm.76,11V620h.49v2.58h9.85V620h.5v6.78Zm10.33-3.64h-9.85v3.13h9.85Z"/><path class="b" d="M897.45,621.4a42.35,42.35,0,0,1-8.82.85h-.51v-11h.49v10.46a39.51,39.51,0,0,0,8.75-.85Zm2.2,5.6V609.5h.49V627Z"/><path class="b" d="M913.44,621.8a39.52,39.52,0,0,1-7.72.67h-1.48V611.28h7.58v.55h-7.07v10.08a44.43,44.43,0,0,0,8.64-.63Zm2.49-4.38V627h-.49V609.5h.49v7.4H919v.51Z"/><path class="b" d="M920.55,624.17h.85v1h-.85Z"/><rect class="c" x="215.28" y="549.09" width="769.44" height="106.52" rx="13.62" ry="13.62"/><polyline class="d" points="877.3 223.83 1172.78 223.83 1172.78 705.75 27.22 705.75 27.22 223.83 324.52 223.83"/><line class="e" x1="1158.33" y1="22.67" x2="1172.78" y2="37.11"/><line class="e" x1="1158.33" y1="37.11" x2="1172.78" y2="22.67"/><rect class="e" x="1158.33" y="22.67" width="14.45" height="14.45"/></svg>