<svg xmlns="http://www.w3.org/2000/svg" viewBox="0 0 647.55 885"><defs><style>.a{opacity:0.7;}.b,.d,.e,.f{fill:none;stroke:#fff;stroke-miterlimit:10;}.b{stroke-width:0.68px;}.c{fill:#fff;}.e{stroke-width:0.33px;}.f{stroke-width:0.63px;}</style></defs><title>event_portrait</title><rect class="a" width="647.55" height="885"/><line class="b" x1="607.97" y1="23.7" x2="622.42" y2="38.15"/><line class="b" x1="607.97" y1="38.15" x2="622.42" y2="23.7"/><rect class="b" x="608.11" y="23.7" width="14.45" height="14.45"/><path class="c" d="M99.32,375.49V380H87v8.87H82.26V380H69.92v-4.49Zm-12-14.87H71.76v-4.17H82v-2.8h5.3v2.8H97.3v4l-8.48,4.27,8.78,3.81v5.06l-13.84-6.32-12,6.07v-5.06Z"/><path class="c" d="M132.12,371.9v4.85H120.78v4.78h-4.65v-4.78h-6.46V384h20.82v4.88H105.05v-12.1h-2.32V371.9Zm-7.79-16.84c3.35,0,6.08,3.09,6.08,7s-2.73,7-6.08,7H110.49c-3.35,0-6.08-3.09-6.08-7s2.73-7,6.08-7Zm-13.85,4.74c-.68,0-1.47.93-1.47,2.26s.79,2.3,1.47,2.3h13.85c.68,0,1.47-1,1.47-2.3s-.79-2.26-1.47-2.26Z"/><path class="c" d="M156.59,359.87H146.47v-4.81H162v4.81l-4.61,28.8h-5.26Zm13.23,2.66v-7.65h4.85v34h-4.85V378.43h-6.43v-4.88h6.43v-6.14h-6.43v-4.88Z"/><path class="c" d="M206.69,383.21h-21v1.69h21v4H181.26V379.4h21v-1.65h-21v-3.81h10.32V372H179.28v-3.88h29.4V372H196.37v1.94h10.32Zm-5.81-28.16c3.38,0,6.08,2.23,6.08,5.75s-2.7,5.71-6.08,5.71H187.07c-3.35,0-6.08-2.19-6.08-5.71s2.73-5.75,6.08-5.75Zm-13.78,4.27a1.47,1.47,0,0,0,0,2.94h13.74a1.47,1.47,0,0,0,0-2.94Z"/><path class="c" d="M211.71,389.57l.68-5.89h5.06l-1.13,5.89Z"/><path class="c" d="M250.06,383.75v5H232.28V355.05h5.3v28.7Zm8.31-17.46h3.49V371h-3.49v17.81h-4.85v-34h4.85Z"/><path class="c" d="M281.84,355.05v18H264.75v-18ZM271,384.29h15.38V354.87h4.82v7.87h3.49v4.88h-3.49v21.23h-25V377H271Zm-1-16.05h6.63v-8.37H270Z"/><path class="c" d="M320.09,384V354.87h4.82v34h-28.2V384Zm-5.3-21.12v5a7.68,7.68,0,0,1-7.49,7.87h-2.43a7.68,7.68,0,0,1-7.49-7.87v-5a7.65,7.65,0,0,1,7.49-7.83h2.43A7.65,7.65,0,0,1,314.79,362.88ZM304.88,360a2.81,2.81,0,0,0-2.73,2.87v5a2.81,2.81,0,0,0,2.73,2.87h2.43a2.82,2.82,0,0,0,2.73-2.87v-5A2.82,2.82,0,0,0,307.3,360Z"/><path class="c" d="M355.18,355.05v4.88l-1.47,14.26h-5l1.47-14.26h-9.74v-4.88Zm7.52,21.69a6.05,6.05,0,1,1,0,12.1H348.76a6.05,6.05,0,1,1,0-12.1Zm-13.95,4.49a1.56,1.56,0,0,0,0,3.12H362.7a1.56,1.56,0,0,0,0-3.12Zm14.9-14.87V363H358v-4.31h5.71v-3.84h5V374.2h-5v-3.48H358v-4.35Z"/><path class="c" d="M385.05,356.13h6.26v4.27h-4.24a6.28,6.28,0,0,1,3.21,5.21v2.26c0,3.56-3.62,6.46-7.76,6.46s-7.55-2.91-7.55-6.46v-2.12a6.3,6.3,0,0,1,3.14-5.35h-4.17v-4.27h6.32v-2.48h4.79Zm11.28,20.36v-7.43h-4.89v-4.85h4.89v-9.34h5.13v34h-26V376.49Zm-10.46-9.91a3.24,3.24,0,0,0-6.46,0v.61a3.24,3.24,0,0,0,6.46,0Zm-5.4,17.56h16v-3h-16Z"/><path class="c" d="M435.46,368.31v3.88h-29.4v-3.88Zm-7.79-13.25c3.38,0,6.08,2.26,6.08,5.78s-2.7,5.75-6.08,5.75H413.86c-3.35,0-6.08-2.23-6.08-5.75s2.73-5.78,6.08-5.78Zm5.81,28.16h-21v1.69h21v4H408V379.4h21v-1.65H408v-3.81h25.43Zm-19.59-23.88a1.51,1.51,0,0,0,0,3h13.74a1.51,1.51,0,0,0,0-3Z"/><path class="c" d="M458.53,369.56V363.1h5v6.46h6.73l1.47-9.7H451.9v-4.81h25v4.81l-1.47,9.7h3.83v4h-29.4v-4ZM471.69,376a6.44,6.44,0,0,1,0,12.86H457.33a6.44,6.44,0,0,1,0-12.86Zm-14.36,4.53c-.82,0-1.47.79-1.47,1.9s.65,1.9,1.47,1.9h14.36c.82,0,1.47-.79,1.47-1.9s-.65-1.9-1.47-1.9Z"/><path class="c" d="M512,376v4.49h-6.49v8.4h-4.79v-8.4H493.9v8.4h-4.79v-8.4h-6.49V376Zm-28-13.9a6.94,6.94,0,0,1,6.8-7h13.06a6.94,6.94,0,0,1,6.8,7v2.23a6.94,6.94,0,0,1-6.8,7H490.79a6.94,6.94,0,0,1-6.8-7Zm7.76,4.42h11.14c1.91,0,2.94-1.54,2.94-3.3s-1-3.3-2.94-3.3H491.75c-1.91,0-2.94,1.54-2.94,3.3S489.83,366.47,491.75,366.47Z"/><path class="c" d="M527.63,357.06h6.6v4.49H516.28v-4.49h6.56v-3.41h4.79Zm-1.16,6.68a6.86,6.86,0,0,1,6.84,6.9v11.13a6.86,6.86,0,0,1-6.84,6.9h-2.53a6.86,6.86,0,0,1-6.84-6.9V370.64a6.86,6.86,0,0,1,6.84-6.9Zm-1.09,20.11a3,3,0,0,0,3.18-3.12v-9.05a3.06,3.06,0,0,0-3.18-3.16H525a3.06,3.06,0,0,0-3.18,3.16v9.05a3,3,0,0,0,3.18,3.12Zm17.33-15.37h3.49v4.88h-3.49v15.48h-4.82v-34h4.82Z"/><path class="c" d="M557,384.14v-14.4h5v14.4h6.43l1.78-24.1H550.32v-4.81h25V360l-1.78,24.1h4.14v4.7h-29.4v-4.7Z"/><path class="c" d="M180.21,419.44v4.74h-3.86v24.06h4v4.85H162.16V419.44Zm-12.89,28.8h3.93V424.18h-3.93Zm24.41-17.56v4.74h-3.49v17.81h-4.85v-34h4.85v11.42Z"/><path class="c" d="M223.17,435v4.63h-29.4V435Zm-.79,18.25h-6.49l-7.28-7.29-7.28,7.29h-6.5l10.53-11.1h6.49Zm-1.5-33.8v4.45h-9.13v3.81h9.13v4.45H196.06V419.44Zm-19.59,8.26h5.37V423.9h-5.37Z"/><path class="c" d="M238.37,420.45h6.26v4.74h-3.21a6,6,0,0,1,2.19,4.45v2.77c0,3.55-3.62,6.46-7.76,6.46s-7.55-2.91-7.55-6.46v-2.62a6,6,0,0,1,2.12-4.6h-3.14v-4.74h6.32V418h4.79Zm-4.72,28.27H249V419.26h4.82v9h3.49v4.88h-3.49v20.11h-25v-9.77h4.79Zm5.54-18.1a3.24,3.24,0,0,0-6.46,0v.75a3.24,3.24,0,0,0,6.46,0Z"/><path class="c" d="M278.46,437.19h-8v-4.85h8.61l1.09-8.08h-9.88v-4.81h15.25v4.81L281.64,453h-5.26Zm15.25,16.05V437.37H287V432.3h6.73v-13h4.82v34Z"/><path class="c" d="M303.82,419.44h19v4.63H320v24.35h2.8v4.63h-19v-4.63h2.63V424.08h-2.63Zm7.55,29h3.73V424.08h-3.73Zm20,4.81h-4.79v-34h4.79Z"/><path class="c" d="M347.73,436.43v-17h4.79v4.27h7.11v-4.27h4.82v17Zm26.42,12.25v4.56h-25V439.59h20.17V419.26h4.82v7.15h3.49v4.78h-3.49v13H354.4v4.53ZM352.52,431.8h7.11v-3.45h-7.11Z"/><path class="c" d="M397.39,427.88v16.74a8.43,8.43,0,1,1-16.85,0V427.88a8.43,8.43,0,1,1,16.85,0Zm-12,0v16.74a3.56,3.56,0,1,0,7.11,0V427.88a3.56,3.56,0,1,0-7.11,0Zm21.57,5.5h3.49v4.88H407v15h-4.79v-34H407Z"/><path class="c" d="M424.25,424.26H412.49v-4.81h17.13v4.81l-3.93,28.8h-5.26Zm15.52,7.61h3.49v4.88h-3.49v16.49h-5.13v-34h5.13Z"/><path class="c" d="M457.61,435.07l5.67,18.07H458l-3.08-10.27-3.56,10.27h-5.43l9.81-28.73h-9.57v-5H461.3v5ZM468,453.24v-34h4.55v11.6h3.49v4.74h-3.49v17.63Z"/><path class="c" d="M485.39,444.48h-5V419.66h5Zm0,7.72h-5V447h5Z"/><path class="c" d="M87.26,548.24a26,26,0,0,0,5.21-.46l.21,1.44a31,31,0,0,1-5.8.48H85.31V539h6.36v1.4H87v7.86ZM97,554v-9.15H95v8.3H93.46V537.23H95v6.22H97v-6.59h1.6V554Z"/><path class="c" d="M101.72,541v-1.38h9.38V541Zm4.68,6.44c-2.16,0-3.77-1.12-3.77-2.84s1.59-2.86,3.77-2.86,3.77,1.11,3.77,2.86S108.56,547.48,106.4,547.48Zm8,.92V554h-1.65v-4.21h-9v-1.42Zm-10.36-9.85v-1.4h4.73v1.4Zm2.35,4.56c-1.16,0-2.14.61-2.14,1.53s1,1.51,2.14,1.51,2.12-.61,2.12-1.51S107.54,543.11,106.4,543.11Zm8,.17v4.22h-1.65V536.86h1.65v5h2.44v1.44Z"/><path class="c" d="M130.55,548.18a19.92,19.92,0,0,0,2-.22l.14,1.38c-.86.13-2.4.29-3.8.37-1.56.11-2.89.17-4.26.17l-.25-1.48c.56,0,1.16,0,1.79,0l-.51-6.86,1.63-.24.35,7.07,1.16-.05a2.29,2.29,0,0,0,.35,0l.39-7,1.59.17Zm-5.8-7.84v-1.4h7.43v1.4Zm9,12.82V544.9h-2.09v-1.42h2.09v-6.24h1.58v15.92Zm3,.85V536.86h1.6V554Z"/><path class="c" d="M146.38,538.15c2.89,0,4.17,2.66,4.17,6.07s-1.28,6.05-4.17,6.05-4.21-2.66-4.21-6.07S143.49,538.15,146.38,538.15Zm0,1.49c-1.66,0-2.52,1.92-2.52,4.58s.86,4.56,2.52,4.56,2.52-1.92,2.52-4.56S148,539.64,146.38,539.64Zm7,14.37V536.86H155V554Z"/><path class="c" d="M167.66,549.92a10,10,0,0,1-4-5,9.61,9.61,0,0,1-4.08,5.42l-1.05-1.27a9,9,0,0,0,4.28-7.67V540h-3.7v-1.42h9V540h-3.65v1.37a8.3,8.3,0,0,0,4.14,7.27ZM172,536.86V554H170.4V536.86Z"/><path class="c" d="M188.52,545.79a19.42,19.42,0,0,0,2.26-.24l.14,1.35a41.6,41.6,0,0,1-4.38.42c-1.67.07-3.4.13-4.91.13l-.28-1.49h2.09l-.44-5.24,1.63-.2.3,5.41,1.81-.05h.33l.33-5.37,1.6.18Zm-6.7-6.11v-1.4h8.57v1.4Zm2.23,13.8v-5.09h1.65v3.67h9.4v1.42Zm6.4-13.3h2.66v-3.32h1.65v12.45h-1.65v-4.45h-2.66v-1.38h2.66v-1.94h-2.66Z"/><path class="c" d="M199,538h9v1.4h-3.7v.28c0,2.44,2.14,4.37,4,5l-.91,1.38a8,8,0,0,1-3.89-3.67,7.89,7.89,0,0,1-4,4.17l-1-1.35c2.12-.81,4.15-3.06,4.15-5.46v-.31H199Zm2.16,15.79V547h1.65v2h7.27v-2h1.65v6.81Zm8.92-3.41h-7.27v2h7.27Zm0-4.28v-9.22h1.65v9.22Z"/><path class="c" d="M221.25,547.58v-.52h7v-1.73c-2.79-.06-4.4-1-4.4-2.34s1.72-2.29,4.66-2.29,4.65,1,4.65,2.29-1.61,2.31-4.42,2.34v1.73h7.06v.52Zm.86-8V539h12.76v.54Zm11.53,9.87v4.72h-.49v-4.21H222.88v-.52Zm-5.1-8.23c-2.79,0-4.12.89-4.12,1.79s1.33,1.86,4.12,1.86,4.1-.94,4.1-1.86S231.31,541.19,228.54,541.19Zm-2.8-3.63V537h5.59v.54Z"/><path class="c" d="M238.25,546.74v-.54h14.58v.54Zm7.27-2.8c-3.4,0-5.49-1.24-5.49-3.17s2.09-3.19,5.49-3.19,5.47,1.24,5.47,3.19S248.92,543.94,245.52,543.94Zm-5.15,9.33v-4.63h.49v4.13h10.31v.5Zm5.15-15.2c-3.16,0-5,1.16-5,2.69s1.82,2.68,5,2.68,5-1.16,5-2.68S248.66,538.07,245.52,538.07Z"/><path class="c" d="M262.76,542.5v-1.42h8.06v1.42Zm4.15,7.53a3.37,3.37,0,0,1-3.61-3.38,3.6,3.6,0,1,1,3.61,3.38Zm-2.35-10.46v-1.42H269v1.42Zm2.35,5.13a2,2,0,1,0,0,3.93,1.94,1.94,0,0,0,2-2A1.92,1.92,0,0,0,266.92,544.7Zm8,9.32v-8.65h-1.68v7.8h-1.58V537.23h1.58v6.72h1.68v-7.08h1.6V554Z"/><path class="c" d="M290.7,549.94c-1.39.18-3.42.35-5.4.46-1.81.09-4.17.15-5.33.15l-.25-1.48c1.31,0,2.88,0,4.47-.05v-2.75a4,4,0,0,1-3.65-4,4.47,4.47,0,0,1,8.92,0,4,4,0,0,1-3.63,4v2.68c1.75-.07,3.59-.2,4.7-.37ZM285,539.59a2.64,2.64,0,0,0-2.75,2.66,2.59,2.59,0,0,0,2.75,2.58,2.62,2.62,0,1,0,0-5.24ZM291.56,554V536.86h1.65V554Z"/><path class="c" d="M308.68,554v-6.16h-6.5v-1.4H316.9v1.4h-6.57V554Zm6.87-9.26c-2.4-.48-5.17-2.2-6-4.1-.74,1.9-3.54,3.62-6,4.11l-.74-1.42c2.94-.41,5.89-2.51,5.89-4.91v-1.09h1.74v1.09c0,2.4,3.28,4.61,5.92,4.89Z"/><path class="c" d="M319.09,541v-1.38h9.38V541Zm4.68,6.44c-2.16,0-3.77-1.12-3.77-2.84s1.59-2.86,3.77-2.86,3.77,1.11,3.77,2.86S325.93,547.48,323.77,547.48Zm8,.92V554h-1.65v-4.21h-9v-1.42Zm-10.36-9.85v-1.4h4.73v1.4Zm2.35,4.56c-1.16,0-2.14.61-2.14,1.53s1,1.51,2.14,1.51,2.12-.61,2.12-1.51S324.91,543.11,323.77,543.11Zm8,.17v4.22h-1.65V536.86h1.65v5h2.44v1.44Z"/><path class="c" d="M348.49,554v-4.69H342v-1.4h14.72v1.4h-6.56V554ZM342.86,541v-1.4h13V541Zm6.49,6.09c-3,0-5-.9-5-2.68s2-2.68,5-2.68,5,.9,5,2.68S352.33,547,349.35,547Zm0-4c-1.6,0-3.31.37-3.31,1.29s1.72,1.29,3.31,1.29,3.31-.39,3.31-1.29S351,543.07,349.35,543.07Zm-2.81-4.54v-1.42h5.59v1.42Z"/><path class="c" d="M367.58,538.68c-.11,5.44-3.12,9.46-7.57,12l-1-1.33c3.86-1.94,6.5-5.52,6.8-9.22h-6.06v-1.46ZM370.7,554V536.86h1.65V554Z"/><path class="c" d="M376,545.73v-.52h14.58v.52Zm1.89,7.77v-3.3h10.29v-2H377.88v-.5h10.83v3.06H378.43V553h10.9v.5Zm.07-10.18v-3.17h10.13v-2.07H378v-.5h10.66v3.06H378.49v2.18h10.45v.5Z"/><path class="c" d="M403.72,538.83v1.48c0,2.82,2.35,4.78,4.15,5.48l-.3.46a7.55,7.55,0,0,1-4.1-4.28,7.75,7.75,0,0,1-4.21,4.72l-.33-.48c2.3-1.05,4.29-3.12,4.29-5.88v-1.49h-4v-.5h8.47v.5Zm6.94,15.11v-5.18h-9.8v-.54h10.29v5.72Zm.47-11.53v4.89h-.49V536.93h.49v5h2.65v.5Z"/><path class="c" d="M424.67,546a7.66,7.66,0,0,1-4.15-4.35,7.86,7.86,0,0,1-4.24,4.87L416,546a6.89,6.89,0,0,0,4.28-6.07v-2h.47v2c0,2.88,2.44,4.89,4.26,5.59Zm-.93,7.91c-3.4,0-5.4-1.2-5.4-3s2-3,5.4-3,5.38,1.13,5.38,3S427.14,553.9,423.74,553.9Zm0-5.52c-3.23,0-4.91,1.05-4.91,2.47s1.68,2.51,4.91,2.51,4.86-1.07,4.86-2.51S426.91,548.39,423.74,548.39Zm.47-6.66v-.5h4.14v-4.3h.51v10.74h-.51v-5.94Z"/><path class="c" d="M432.8,541.75v-.5H441v.5Zm4.33,7.88a3.19,3.19,0,0,1-3.29-3.17,3.29,3.29,0,0,1,6.57,0A3.19,3.19,0,0,1,437.13,549.62Zm0-5.81a2.64,2.64,0,1,0,2.77,2.64A2.72,2.72,0,0,0,437.13,543.81ZM434.8,539v-.52h4.35V539Zm11,15v-9H442.7v8h-.49V537.39h.49v7h3.08v-7.45h.47v17Z"/><path class="c" d="M456.87,553.94v-6.53h-7v-.57h14.58v.57h-7.06v6.53Zm.51-15.22v1.09c0,2.09,3.26,4,6.17,4.43l-.28.52c-2.89-.63-5.47-2.16-6.13-3.84-.65,1.72-3.3,3.25-6.19,3.87l-.25-.52c2.91-.46,6.19-2.38,6.19-4.46v-1.09h-5.57v-.5h11.64v.5Z"/><path class="c" d="M476.09,549.81a11,11,0,0,1-4.45-5.94,11.48,11.48,0,0,1-4.29,6.33l-.4-.5a10.18,10.18,0,0,0,4.45-7.55v-3.6h.49v3.58a9.32,9.32,0,0,0,4.54,7.21Zm3.24,4.13v-17h.51v17Z"/><path class="c" d="M483.84,546.54V546h14.58v.54Zm2.09,6.73v-4.72h.49v4.22h10.34v.5Zm.05-10.18v-5.53h.47v5h10.22v.5Z"/><path class="c" d="M510.09,551.1l.23-.5a6.17,6.17,0,0,0,3.24.78c2.49,0,3.7-1.35,3.7-3.21,0-2.08-1.46-3-3.68-3h-1.31v-.52h1.28c1.77,0,3.17-.89,3.17-2.75s-1.1-2.69-3-2.69a5.32,5.32,0,0,0-3,.94l-.21-.46a5.65,5.65,0,0,1,3.19-1c2.28,0,3.56,1.22,3.56,3.17a2.9,2.9,0,0,1-2.42,3v0a3.09,3.09,0,0,1,3,3.27c0,2.31-1.61,3.75-4.19,3.75A6.4,6.4,0,0,1,510.09,551.1Z"/><path class="c" d="M520.63,545.56V545c0-4.19,1.42-6.33,4-6.33s4,2.1,4,6.31v.55c0,4.21-1.37,6.35-4,6.35S520.63,549.75,520.63,545.56Zm7.45.06V545c0-3.6-1-5.79-3.44-5.79s-3.45,2.18-3.45,5.77v.61c0,3.62,1,5.81,3.45,5.81S528.08,549.24,528.08,545.62Z"/><path class="c" d="M538.79,550.4v-3.69h-7.06v-.5h14.58v.5h-7v3.69Zm-5,2.86v-4.46h.49v4h10.41v.5Zm0-9.26v-6.48h.47v2.6h9.57v-2.6h.49V544Zm10-3.38h-9.57v2.86h9.57Z"/><path class="c" d="M552.65,539.09c0,4.5-.88,7.25-3.17,10.29l-.4-.31a14.53,14.53,0,0,0,3.12-9.48h-3v-.5Zm3.54,0a31,31,0,0,1-.32,4.87h3v-6.51h.49V553h-.49v-8.5h-3.1a15.22,15.22,0,0,1-2.72,6.33l-.42-.29a16.9,16.9,0,0,0,3.07-10.33v-.57h-2.38v-.5Zm5.56,14.85v-17h.49v17Z"/><path class="c" d="M152.15,585.19l.35-1.37a5.72,5.72,0,0,0,3,.81c1.91,0,3.26-1.11,3.26-2.8,0-1.92-1-2.79-3.09-2.79a7,7,0,0,0-2.91.74l.44-7.1h6.59v1.44h-5.26l-.23,3.93a5.86,5.86,0,0,1,2.09-.41c2.44,0,4.1,1.37,4.1,4.15,0,2.21-1.46,4.3-4.66,4.3A6.63,6.63,0,0,1,152.15,585.19Z"/><path class="c" d="M163.7,579.65v-.77c0-4.17,1.47-6.44,4.33-6.44s4.31,2.25,4.31,6.42v.79c0,4.19-1.45,6.44-4.31,6.44S163.7,583.84,163.7,579.65Zm6.89,0v-.7c0-3.52-.75-5.09-2.56-5.09s-2.58,1.57-2.58,5.07v.68c0,3.51.74,5.13,2.58,5.13S170.59,583.12,170.59,579.61Z"/><path class="c" d="M175.44,579.65v-.77c0-4.17,1.47-6.44,4.33-6.44s4.31,2.25,4.31,6.42v.79c0,4.19-1.45,6.44-4.31,6.44S175.44,583.84,175.44,579.65Zm6.89,0v-.7c0-3.52-.75-5.09-2.56-5.09s-2.58,1.57-2.58,5.07v.68c0,3.51.74,5.13,2.58,5.13S182.33,583.12,182.33,579.61Z"/><path class="c" d="M187.18,579.65v-.77c0-4.17,1.47-6.44,4.33-6.44s4.31,2.25,4.31,6.42v.79c0,4.19-1.45,6.44-4.31,6.44S187.18,583.84,187.18,579.65Zm6.89,0v-.7c0-3.52-.75-5.09-2.56-5.09s-2.58,1.57-2.58,5.07v.68c0,3.51.74,5.13,2.58,5.13S194.07,583.12,194.07,579.61Z"/><path class="c" d="M203,583.34v-3c-1.59.07-3,.09-4.43.13l-.26-1.44c1.88,0,3.63,0,5.42-.09,2.09-.11,3.7-.22,5.22-.41l.12,1.31c-1.09.17-2.79.31-4.42.41v3.14Zm.68-5.28c-2.49,0-4.33-1.2-4.33-3.17s1.84-3.19,4.33-3.19S208,573,208,574.91,206.24,578.07,203.71,578.07Zm-3.21,9.56v-5h1.65v3.6h10.18v1.4Zm3.21-14.52c-1.54,0-2.56.78-2.56,1.81s1,1.77,2.56,1.77,2.56-.76,2.56-1.77S205.27,573.1,203.71,573.1Zm6.68,11v-1.83h-3.21V581h3.21V570.91H212V584.1Z"/><path class="c" d="M229.6,580a7.7,7.7,0,0,1-3.7-3.78,7.47,7.47,0,0,1-3.91,4.3l-1-1.37a6.4,6.4,0,0,0,4-5.81V571.7h1.68v1.57a5.87,5.87,0,0,0,3.86,5.37Zm-1,8.06c-3.44,0-5.49-1.29-5.49-3.36s2.05-3.36,5.49-3.36,5.5,1.29,5.5,3.36S232.08,588.06,228.62,588.06Zm-3.79-3.36c0,1.22,1.44,1.94,3.79,1.94s3.82-.72,3.82-1.94-1.46-1.94-3.82-1.94S224.84,583.49,224.84,584.71Zm9.06-7.88v4.54h-1.65V570.91h1.65v4.48h2.44v1.44Z"/><path class="c" d="M241.23,578.51a32,32,0,0,0,6.36-.54l.23,1.38a38.27,38.27,0,0,1-7.29.59h-1.65v-7.71h7.4v1.4h-5.77v4.87Zm4.42,9.5c-3.52,0-5.43-1.33-5.43-3.32s1.91-3.36,5.43-3.36,5.47,1.35,5.47,3.36S249.18,588,245.64,588Zm0-5.26c-2.35,0-3.73.78-3.73,1.94s1.39,1.9,3.73,1.9,3.77-.74,3.77-1.9S248,582.75,245.64,582.75Zm5.26-6v4.35h-1.65V570.91h1.65v4.39h2.44v1.44Z"/><path class="c" d="M266.31,583.71c-1.49.2-3.89.37-6,.48-1.86.09-3.58.13-4.87.15l-.26-1.48c1.56,0,3.47,0,5.4-.13,2.3-.09,4.22-.22,5.52-.39Zm-5.75-3.49a4,4,0,0,1-4.24-3.91,4,4,0,0,1,4.24-4,4,4,0,0,1,4.28,4C264.84,578.69,262.94,580.22,260.56,580.22Zm0-6.49a2.55,2.55,0,0,0-2.61,2.56,2.48,2.48,0,0,0,2.61,2.47,2.52,2.52,0,1,0,0-5Zm8.26-2.82v17.16h-1.63V570.91Z"/><path class="c" d="M278.11,585.74v-1.42h14.72v1.42ZM291.48,581c-2.56-.76-5.26-2.93-6-4.85-.67,1.94-3.38,4.11-6,4.83l-.84-1.4c2.66-.5,6-3,6-5.87v-1.35h1.7v1.35c0,2.86,3.56,5.41,6,5.92Z"/><path class="c" d="M297.35,582.58a36.61,36.61,0,0,0,7.41-.57l.16,1.42a45,45,0,0,1-7.68.59h-1.52V572.49h7.78v1.4h-6.15v3.45h5.75v1.4h-5.75Zm10.34-5h2.54V579h-2.54v9h-1.63V570.91h1.63Z"/><path class="c" d="M312.78,579.89v-8h1.65v2.68h4.14v-2.69h1.65v8Zm5.78-3.93h-4.14v2.51h4.14Zm5.28,12.12v-4.82h-9.26v-1.4H325.5v6.22Zm-2.73-11.53v-1.48h2.73v-4.17h1.65V581h-1.65v-4.43Z"/><path class="c" d="M329.11,585.74v-1.42h14.72v1.42ZM342.49,581c-2.56-.76-5.26-2.93-6-4.85-.67,1.94-3.38,4.11-6,4.83l-.84-1.4c2.66-.5,6-3,6-5.87v-1.35h1.7v1.35c0,2.86,3.56,5.41,6,5.92Z"/><path class="c" d="M360.19,580a7.7,7.7,0,0,1-3.7-3.78,7.47,7.47,0,0,1-3.91,4.3l-1-1.37a6.4,6.4,0,0,0,4-5.81V571.7h1.68v1.57a5.87,5.87,0,0,0,3.86,5.37Zm-1,8.06c-3.44,0-5.49-1.29-5.49-3.36s2.05-3.36,5.49-3.36,5.5,1.29,5.5,3.36S362.66,588.06,359.21,588.06Zm-3.79-3.36c0,1.22,1.44,1.94,3.79,1.94s3.82-.72,3.82-1.94-1.45-1.94-3.82-1.94S355.42,583.49,355.42,584.71Zm9.06-7.88v4.54h-1.65V570.91h1.65v4.48h2.44v1.44Z"/><path class="c" d="M370.62,587.82v-5.44h4.79v-1.72h-6.5v-1.42h14.72v1.42h-6.57v1.72h4.86v5.44Zm-.28-14.74v-1.4h11.78v1.4Zm0,4.83V576.5h2.47l-.46-2.55,1.65-.26.37,2.8h3.72l.37-2.82,1.67.26-.51,2.56h2.47v1.42Zm9.9,5.85h-8v2.68h8Z"/><path class="c" d="M390.46,582.94V579c-1.54.06-3,.09-4.43.11l-.26-1.46q2.87,0,5.52-.11c.61,0,1.19-.06,1.74-.09a19,19,0,0,0,.39-4h-6.19v-1.4h7.85a28.8,28.8,0,0,1-.44,5.28c.61-.05,1.19-.11,1.75-.18l.19,1.35c-1.21.18-2.82.31-4.47.42v4ZM388,587.62v-5.26h1.65v3.84h10.1v1.42Zm6.19-7.51h3.52v-9.21h1.65v13h-1.65v-2.51h-3.52Z"/><path class="c" d="M403,579.32v-.5h14.58v.5Zm7.27-2.16c-3.63,0-5.49-1.24-5.49-2.9s1.86-2.86,5.49-2.86,5.47,1.2,5.47,2.86S413.88,577.16,410.25,577.16Zm-5.38,10.53v-3.58h10v-2.25h-10v-.52h10.54v3.28h-10v2.56h10.9v.5Zm5.38-15.79c-3.33,0-5,1.07-5,2.36s1.65,2.36,5,2.36,5-1.09,5-2.36S413.57,571.9,410.25,571.9Z"/><path class="c" d="M425.77,585.43v-.5h14.58v.5Zm2-5.41v-7.29h10.6v.5H428.27v6.27h10.25V580Z"/><path class="c" d="M452.51,579.19a49.88,49.88,0,0,1-8.4.57h-.51v-4.35h6.49v-3h-6.5v-.52h7v4.06h-6.5v3.32a52.33,52.33,0,0,0,8.36-.55Zm-6.91,8.54v-6.46h.47v2.58h9.22v-2.64h.47v6.51Zm9.69-3.34h-9.22v2.82h9.22Zm0-4.13V571h.47v9.26Z"/><path class="c" d="M470.06,582.55a41.18,41.18,0,0,1-8.57.83H461V572.7h.47v10.16A38.41,38.41,0,0,0,470,582ZM472.2,588V571h.47v17Z"/><path class="c" d="M486.49,582.94a38.42,38.42,0,0,1-7.5.65h-1.44V572.72h7.36v.53H478V583a43.1,43.1,0,0,0,8.4-.61Zm2.42-4.26V588h-.47V571h.47v7.19h3v.5Z"/><path class="c" d="M494.58,585.09h.82v1h-.82Zm.12-13h.6l0,10.83h-.51Z"/><path class="d" d="M102.35,230.56H81.7v-9.35h31.6v9.35l-9.42,56H93.14Zm27,5.16V220.87h9.91v66h-9.91V266.63H116.23v-9.49h13.12V245.21H116.23v-9.49Z"/><path class="d" d="M204.62,275.91H161.79v3.28h42.83v7.67h-51.9V268.51h42.83V265.3H152.72v-7.4h21.07v-3.77H148.67v-7.53h60v7.53H183.55v3.77h21.07Zm-11.86-54.69c6.91,0,12.42,4.33,12.42,11.16s-5.51,11.09-12.42,11.09H164.58c-6.84,0-12.42-4.26-12.42-11.09s5.58-11.16,12.42-11.16Zm-28.12,8.3a2.86,2.86,0,1,0,0,5.72h28a2.86,2.86,0,1,0,0-5.72Z"/><path class="d" d="M217.39,255.82v-34.6h9.77v8.93h13.33v-8.93h9.77v34.6ZM231.9,262h28.39a12.42,12.42,0,1,1,0,24.84H231.9a12.42,12.42,0,1,1,0-24.84Zm8.58-14.93v-8.44H227.16v8.44Zm-8.44,31h28.11a3.67,3.67,0,0,0,0-7.26H232a3.67,3.67,0,0,0,0,7.26Zm29.51-21.21v-36h9.77v11.65h7.12V242h-7.12v14.86Z"/><path class="d" d="M306.69,223.31h12.77v8.3H310.8c3.91,2.3,6.56,6,6.56,10.12v4.4c0,6.91-7.39,12.56-15.84,12.56S286.1,253,286.1,246.12V242c0-4.6,2.72-8.16,6.42-10.39H284v-8.3h12.91v-4.81h9.77Zm38.72,19.6h-7.12v28.81l-2.65,15.14h-9.56l2.72-15.14H287.29v-8.16h40.6V220.87h10.39v12.63h7.12Zm-37,.7c0-3.21-2.93-5.86-6.56-5.86s-6.63,2.65-6.63,5.86v1.19c0,3.28,3,5.86,6.63,5.86s6.56-2.58,6.56-5.86Z"/><path class="d" d="M394.52,220.87c9.07,0,16.25,7.88,16.25,17v32.09c0,9.14-7.33,17-16.53,17h-3.42a17,17,0,0,1-17.16-17V237.82a17,17,0,0,1,17.16-17Zm-3.7,9.91a7.16,7.16,0,0,0-7.25,7v32.09a7.16,7.16,0,0,0,7.25,7H394a7,7,0,0,0,6.91-7V237.82a7,7,0,0,0-6.77-7Zm38.65,56.09H418.72v-66h10.74Z"/><path class="d" d="M439.93,257.21v-36h9.7v10.12h7.74V221.21h9.56V235.1h5.37V220.87h9.49v47.65H472.3V244.38h-5.37v12.84Zm13.67,20.23h33.21V220.87h9.63v66H443.56V264.12h10Zm3.77-29.79v-7.12h-7.74v7.12Z"/><path class="d" d="M565.85,277.72v9.14h-60v-9.14Zm-3.21-56.51v9.42H520v8h42.63v9.42H520v7.46h42.63V265H509.2V221.21Z"/><path class="c" d="M252.49,143.56v-.4c0-5.63,3.56-7.64,7.64-7.64a9.44,9.44,0,0,1,4.22.86v1.55A9.88,9.88,0,0,0,260,137c-4,0-5.44,2.73-5.44,5.9v.61c0,3.49,1.16,6,5.49,6a10.42,10.42,0,0,0,3-.44V145h-3.47V143.5H265v6.68a15.48,15.48,0,0,1-5,.82C255.41,151,252.49,148.7,252.49,143.56Z"/><path class="c" d="M270.95,135.77h1.93v13.48h7.3v1.49h-9.23Z"/><path class="c" d="M284.46,143.43v-.38c0-4.7,2.68-7.54,7.15-7.54s7.05,2.67,7.05,7.56v.38c0,4.7-2.68,7.54-7.12,7.54S284.46,148.32,284.46,143.43Zm12.13.34v-.69c0-3.63-1.43-6.09-5.08-6.11-3.33,0-5,2.41-5,5.75v.69c0,3.63,1.43,6.13,5.06,6.13C294.94,149.54,296.6,147.11,296.6,143.77Z"/><path class="c" d="M304.17,135.77h4.94c3.74,0,5.22,1.39,5.22,3.76a3.2,3.2,0,0,1-2.7,3.28v.1c2,.29,3.42,1.34,3.42,3.61,0,2.48-1.84,4.22-5.47,4.22h-5.42Zm4.67,6.53c2,0,3.54-.63,3.54-2.56s-1.16-2.48-3.42-2.48h-2.88v5Zm.63,7c2.34,0,3.56-.92,3.56-2.86s-1.36-2.71-3.77-2.71h-3.2v5.56Z"/><path class="c" d="M324.87,135.77h1.86l5.9,15h-2l-1.7-4.37h-6.49l-1.68,4.37h-1.84ZM323,144.88h5.33l-2.63-6.76h0Z"/><path class="c" d="M337.43,135.77h1.93v13.48h7.3v1.49h-9.23Z"/><path class="c" d="M350.9,149.75v-.52a9.72,9.72,0,0,0,4.45,1c3.11,0,4.42-1.26,4.42-3.36s-1.41-2.86-3.58-3.51l-1-.31c-2.77-.86-3.92-1.83-3.92-3.93,0-1.91,1.5-3.42,4.56-3.42a8.26,8.26,0,0,1,3.81.82v.52a8.18,8.18,0,0,0-3.83-.82c-2.65,0-3.92,1.2-3.92,2.86,0,1.85.91,2.6,3.54,3.46l1,.27c2.45.78,4.06,1.6,4.06,4s-1.52,3.91-5.06,3.91A9.89,9.89,0,0,1,350.9,149.75Z"/><path class="c" d="M366.37,135.9h.77l9.75,13.75h0V135.9h.57v14.7h-.66L367,136.65h0v13.94h-.59Z"/><path class="c" d="M384.06,145.7V135.9h.61v9.76c0,3.36,1.81,4.62,4.92,4.62s4.9-1.26,4.9-4.62V135.9h.57v9.78c0,3.55-2,5.08-5.49,5.08S384.06,149.21,384.06,145.7Z"/><path class="c" d="M346,87A25.27,25.27,0,0,0,324.3,62a4.05,4.05,0,0,0,.6-2.11,4.15,4.15,0,1,0-5.28,4v4a19.26,19.26,0,0,0,0,38.44V116H308.7a1.13,1.13,0,0,0,0,2.26h23.74a1.13,1.13,0,0,0,0-2.26H321.89v-3.77A25.28,25.28,0,0,0,346,87Zm-2.26,0a23.07,23.07,0,0,1-21.86,23V106.2a19.26,19.26,0,0,0,0-38.44V64A23.07,23.07,0,0,1,343.75,87ZM327.92,99a4.89,4.89,0,0,1,4.9-4.9,7.28,7.28,0,0,0,3.77-1.06,17.14,17.14,0,0,1-9.72,9.72A7.28,7.28,0,0,0,327.92,99Zm7.91-13.19a7.91,7.91,0,0,1-7.91-7.91,4.86,4.86,0,0,1,3-4.52,16.79,16.79,0,0,1,6.71,12.44Zm-10.18-7.91a10.23,10.23,0,0,0,10.18,10.18h1.73a4.91,4.91,0,0,1-4.75,3.77A7.21,7.21,0,0,0,325.66,99a4.85,4.85,0,0,1-3.77,4.75V70.1a16.1,16.1,0,0,1,6.86,2A7.11,7.11,0,0,0,325.66,77.94Zm-6.78-18.09a1.88,1.88,0,1,1,1.88,1.88A1.87,1.87,0,0,1,318.88,59.85ZM310,73.94a7.22,7.22,0,0,0,5.8,5.8A4.94,4.94,0,0,1,311,83.67a4.89,4.89,0,0,1-4.9-4.9v-.15A15.63,15.63,0,0,1,310,73.94Zm-5.43,8a7.17,7.17,0,0,0,13.57-3.24A1.16,1.16,0,0,0,317,77.56a4.89,4.89,0,0,1-4.9-4.9v-.23a16.38,16.38,0,0,1,7.54-2.34v33.84a15.32,15.32,0,0,1-3.24-.53,7,7,0,0,0,1.73-4.67,10.25,10.25,0,0,0-10.18-10.25h-4.07A10.1,10.1,0,0,1,303.8,87,18.59,18.59,0,0,1,304.56,81.93Zm-.3,8.82h3.69a7.91,7.91,0,0,1,7.91,7.91,4.78,4.78,0,0,1-1.88,3.84A16.87,16.87,0,0,1,304.25,90.75Z"/><circle class="c" cx="598.43" cy="256.87" r="2.5"/><circle class="c" cx="49.33" cy="257.23" r="2.5"/><path class="c" d="M163.12,734.94a4.16,4.16,0,1,1-4.15-3.85A3.9,3.9,0,0,1,163.12,734.94Zm-7.05,0a2.73,2.73,0,0,0,2.9,2.73,2.73,2.73,0,1,0,0-5.45A2.71,2.71,0,0,0,156.07,734.94Zm1.25,12.95v-4.37h9.45v-2h-9.54v-1.1H168v4.14h-9.45v2.24h10.1v1.1Zm9.43-8.41v-9.11H168v9.11Z"/><path class="c" d="M180.22,743.69a12.49,12.49,0,0,1-4.29-5.58,12.42,12.42,0,0,1-4.29,6l-.85-1a10.17,10.17,0,0,0,4.51-7.78V732h1.26v3.3a9.11,9.11,0,0,0,4.47,7.35Zm3.19,4.33V730.37h1.23V748Z"/><path class="c" d="M199.66,730.75H201v17.48h-1.3Z"/><path class="c" d="M214.83,744.93l3.64-3.72c1.91-2,3-3.08,3-5.22,0-1.82-1.06-2.7-2.85-2.7a5.76,5.76,0,0,0-3.12,1.08l-.49-1.14a6.41,6.41,0,0,1,3.77-1.21c2.83,0,4.11,1.82,4.11,3.82,0,2.85-1.44,4-3.57,6.17l-2.53,2.54h6.29v1.23h-8.3Z"/><path class="c" d="M225.78,739.36v-.72c0-4.29,1.52-6.62,4.37-6.62s4.35,2.3,4.35,6.61v.74c0,4.31-1.48,6.63-4.35,6.63S225.78,743.67,225.78,739.36Zm7.3,0v-.7c0-3.64-.87-5.45-2.94-5.45s-3,1.78-3,5.43v.68c0,3.63.87,5.47,3,5.47S233.08,743,233.08,739.36Z"/><path class="c" d="M237.4,744.55h3.43v-10.8l-3.57,1.31v-1.18l4-1.73h.92v12.4h3.16v1.23H237.4Z"/><path class="c" d="M255.23,733.44h-7.36v-1.23h8.87v.89l-5.36,12.68h-1.48Z"/><path class="c" d="M267.7,731h1.1l-4.58,16.8h-1.1Z"/><path class="c" d="M271.11,744.55h3.43v-10.8L271,735.05v-1.18l4-1.73h.92v12.4H279v1.23h-7.92Z"/><path class="c" d="M285.17,731h1.1l-4.58,16.8h-1.1Z"/><path class="c" d="M288.58,744.55H292v-10.8l-3.57,1.31v-1.18l4-1.73h.92v12.4h3.16v1.23h-7.92Z"/><path class="c" d="M305.59,748v-6h-6.94v-1.1H313.8V742h-7v6Zm-4.92-9.32v-7.63h1.23v2.71h8.68v-2.71h1.23v7.63Zm9.9-3.82h-8.68v2.71h8.68Z"/><path class="c" d="M323,738h-5.75v4.56a36.71,36.71,0,0,0,7.61-.59l.16,1.12a53.12,53.12,0,0,1-9,.63V732.07h7.65v1.1h-6.42v3.74H323Zm4.67,10v-9.66H324v-1.1h3.7v-6.89h1.23V748Z"/><path class="c" d="M343.22,739.69c.78,0,1.28-.7,1.42-1.77l.83.27c-.27,1.78-1.42,2.58-2.33,2.58a3.1,3.1,0,0,1-2.07-.93c-.78-.7-1.15-1.12-1.86-1.12s-1.17.7-1.46,1.82l-.83-.32c.41-1.92,1.35-2.6,2.47-2.6a3.54,3.54,0,0,1,1.93,1C342,739.25,342.48,739.69,343.22,739.69Z"/><path class="c" d="M360.95,740.37a8.3,8.3,0,0,1-4.18-4.38,9.19,9.19,0,0,1-4.22,5l-.76-1c2.16-1.08,4.33-3.49,4.33-6.38v-2.22h1.23v2.18a6.42,6.42,0,0,0,4.33,5.77Zm-6.1,7.08V742.1h1.23v4.25h9.85v1.1Zm5.93-11.64v-1.1h3.55v-4.35h1.23v12.81h-1.23v-7.36Z"/><path class="c" d="M377.32,740.35a7.74,7.74,0,0,1-4.09-3.62,7.56,7.56,0,0,1-4.29,4.1l-.67-1c2.16-.64,4.33-2.9,4.33-5v0h-3.75v-1.1h8.71v1.1h-3.72v0c0,2.07,2.18,4.06,4.15,4.54ZM380.1,748v-5.09h-9.58v-1.08h10.8V748ZM371,731.94v-1.1h4.46v1.1Zm10.32,4.31v4.65h-1.23V730.37h1.23v4.78h2.62v1.1Z"/><path class="c" d="M392.1,744.38v-3.68h-7v-1.1h15.15v1.1h-6.91v3.68Zm6.69-6.76a9.11,9.11,0,0,1-6.13-4.27c-.61,1.58-3,3.68-6.08,4.29l-.6-1c2.81-.32,6.06-2.62,6.06-5v-.66h1.26v.66c0,2.45,3.45,4.71,6.08,5Zm-11.69,9.79v-4.88h1.23v3.78h10.06v1.1Z"/><path class="c" d="M407.41,743.45v-11.2H415v11.2Zm6.35-10.1h-5.12v9h5.12Zm5.79,5.31V748h-1.23V730.37h1.23v7.19h2.83v1.1Z"/><path class="c" d="M431.65,731.64c-.36,4.9-3.55,7.67-7.77,9l-.65-1.1c3.5-.8,6.57-3.57,7-6.83H424v-1.1Zm-5.93,16.12v-6.38h10.44v6.38Zm9.22-5.28h-8v4.18h8Zm1.21-6.38v4.35h-1.23V730.37h1.23V735h2.62v1.1Z"/><path class="c" d="M455.2,743.69a12.48,12.48,0,0,1-4.29-5.58,12.42,12.42,0,0,1-4.29,6l-.85-1a10.17,10.17,0,0,0,4.51-7.78V732h1.26v3.3a9.11,9.11,0,0,0,4.47,7.35Zm3.19,4.33V730.37h1.23V748Z"/><path class="c" d="M467.28,732.32a17.5,17.5,0,0,1-4.2,11.56l-1-.78c2.52-2.41,3.91-6.89,4-9.68h-3.19v-1.1Zm4.6,0a20.23,20.23,0,0,1-4,12.68l-1.08-.72c2.87-3,3.79-8.58,3.79-10.86H468v-1.1Zm3.72,5.49h2.62v1.1H475.6V748h-1.23V730.37h1.23Z"/><path class="c" d="M488.58,743.58c-1.57-1.14-3.68-3.25-4.29-5.47a11.44,11.44,0,0,1-4.29,6l-.81-1a9.64,9.64,0,0,0,4.46-7.69v-2.07h-4v-1.1h9.25v1.1h-4v2a8.85,8.85,0,0,0,4.49,7.25Zm4.15-13.21V748H491.5V730.37Z"/><path class="c" d="M169.56,785.42l-1.69,1-.15-.29,1.69-1-1.69-1,.15-.31,1.69,1,0-2.08h.34v2.08l1.69-1,.15.31-1.69,1,1.69,1-.15.29-1.69-1v2.05h-.34Z"/><path class="c" d="M179.39,793.26V790h-6.18v-.44H186V790h-6.15v3.23Zm-4.42,2.5v-3.91h.43v3.47h9.11v.44Zm0-8.1V782h.41v2.28h8.37V782h.43v5.66Zm8.79-3h-8.37v2.5h8.37Z"/><path class="c" d="M195.85,789a45.32,45.32,0,0,1-7.33.48h-.46v-3.86h5.69v-2.73H188v-.44h6.12v3.62h-5.67v3a43.42,43.42,0,0,0,7.3-.5Zm-2.1,7.23c-2.93,0-4.63-1-4.63-2.58s1.7-2.52,4.63-2.52,4.62.9,4.62,2.52S196.66,796.25,193.75,796.25Zm0-4.65c-2.75,0-4.2.82-4.2,2.07s1.46,2.11,4.2,2.11,4.16-.86,4.16-2.11S196.45,791.6,193.75,791.6Zm6.67-3.86h-2.33v2.92h-.43v-9.18h.43v2.66h2.33v.44h-2.33v2.73h2.33Z"/><path class="c" d="M205.44,782.74c1.84,0,3.34,1.89,3.34,5.05s-1.5,5.07-3.34,5.07-3.37-2-3.37-5.08S203.55,782.74,205.44,782.74Zm0,9.62c1.58,0,2.91-1.76,2.91-4.57s-1.33-4.58-2.91-4.58-2.91,1.73-2.91,4.57S203.86,792.36,205.44,792.36Zm6.93,4V781.48h.43v14.88Z"/><path class="c" d="M226.22,796.23c-3,0-4.72-.86-4.72-2.4s1.66-2.31,4.49-2.36v-1.74h-6.15v-.44H232.6v.44h-6.18v1.74c2.85,0,4.51.84,4.51,2.36S229.19,796.23,226.22,796.23Zm.21-12v.19c0,1.65,2.68,2.91,5.23,3.16l-.26.42c-2.39-.27-4.57-1.34-5.18-2.7-.55,1.37-2.81,2.47-5.2,2.74l-.26-.42c2.55-.26,5.25-1.57,5.25-3.21v-.19h-4.75v-.44h9.94v.44Zm-.21,7.7c-2.93,0-4.25.79-4.25,1.89s1.32,1.94,4.25,1.94,4.23-.82,4.23-1.94S229.13,791.94,226.22,791.94ZM224,782.19v-.47h4.45v.47Z"/><path class="c" d="M240.13,793.26V790h-6.18v-.44h12.76V790h-6.15v3.23Zm-4.42,2.5v-3.91h.43v3.47h9.11v.44Zm0-8.1V782h.41v2.28h8.37V782h.43v5.66Zm8.79-3h-8.37v2.5h8.37Z"/><path class="c" d="M248,785.68v-.44h8.36v.44Zm4.28,7.33a3,3,0,0,1-3.1-3,3.11,3.11,0,0,1,6.21,0A3,3,0,0,1,252.24,793Zm0-5.46a2.52,2.52,0,0,0-2.62,2.5,2.63,2.63,0,1,0,2.62-2.5ZM250,783.08v-.44h4.16v.44Zm8.65,5.39v7.89h-.43V781.48h.43V788h2.56v.47Z"/><path class="c" d="M270.28,792.76a9.14,9.14,0,0,1-3.79-5,9.62,9.62,0,0,1-3.82,5.33l-.38-.42a8.56,8.56,0,0,0,4-6.44v-2.7h-3.65v-.47h7.84v.47h-3.76v2.68a7.86,7.86,0,0,0,3.88,6.08Zm2.82,3.6V781.48h.45v14.88Z"/><path class="c" d="M288,785.79a3.33,3.33,0,0,1-3.47,3.44,3.41,3.41,0,1,1,0-6.81A3.3,3.3,0,0,1,288,785.79Zm-6.56,0a3.07,3.07,0,0,0,6.13,0,2.9,2.9,0,0,0-3-2.94A2.93,2.93,0,0,0,281.45,785.82Zm4.92,9.39a15.09,15.09,0,0,1-4.23.58v-5h.41v4.52a11.62,11.62,0,0,0,3.73-.56Zm-.43-3.21v-.44H293V792Zm3.53,4.37c-1.67,0-2.53-.89-2.53-1.79s.86-1.78,2.53-1.78,2.58.89,2.58,1.78S291.15,796.38,289.47,796.38Zm0-3.1c-1.4,0-2.09.65-2.09,1.31s.69,1.34,2.09,1.34,2.12-.66,2.12-1.34S290.86,793.28,289.47,793.28Zm-1.58-2.92v-.44h3.41v.44Zm3.47-4.83v3.37h-.44v-7.42h.44v3.62h2.32v.44Z"/><path class="c" d="M294.68,790.07v-.47h12.76v.47Zm6.36-2.45c-3,0-4.8-1.08-4.8-2.78S298.07,782,301,782s4.78,1.08,4.78,2.79S304,787.61,301,787.61Zm-4.51,8.17v-4.05H297v3.62h9v.44Zm4.51-13.3c-2.76,0-4.36,1-4.36,2.36s1.6,2.34,4.36,2.34,4.34-1,4.34-2.34S303.79,782.48,301,782.48Z"/><path class="c" d="M319.24,796.38v-4.71h-6.15v-.44h12.76v.44h-6.18v4.71Zm-5.4-11.91V784H325v.44Zm5.63,5.44c-2.61,0-4.13-.94-4.13-2.21s1.52-2.15,4.13-2.15,4.1.9,4.1,2.15S322.07,789.91,319.47,789.91Zm0-3.92c-2.5,0-3.68.84-3.68,1.71s1.18,1.76,3.68,1.76,3.65-.86,3.65-1.76S321.94,786,319.47,786ZM317,782.32v-.45h4.89v.45Z"/><path class="c" d="M334.45,783.16c-.09,4.67-2.81,8.09-6.59,10.1l-.32-.42a11.06,11.06,0,0,0,6.47-9.22h-5.93v-.47Zm3.68,13.2V781.48h.44v14.88Z"/><path class="c" d="M346.37,788.28v-5.7h6.44v5.7Zm6-5.25h-5.6v4.78h5.6Zm-4.52,13.61-.25-.42c2.65-.52,4.94-2.24,4.94-3.63v-.1H348V792h9.48v.45H353v.1c0,1.39,2.18,3.11,4.83,3.63l-.23.42c-2.24-.48-4.29-1.92-4.83-3.23C352.27,794.72,350.11,796.15,347.87,796.64Zm2.7-6.15v-.44H355v.44Zm6-.44v-8.57H357v8.57Z"/><path class="c" d="M370.88,791.86a22.05,22.05,0,0,1-5,.48h-1.29v-9h5.23v.44h-4.78v8.09a27.36,27.36,0,0,0,5.72-.45Zm4.52,4.5V788.2h-2.87v7.31h-.41V781.88h.41v5.84h2.87v-6.25h.44v14.88Z"/><path class="c" d="M378.25,784.56v-.45h8.07v.45Zm4,5.78c-1.73,0-3.05-1-3.05-2.4s1.32-2.37,3.05-2.37,3.05,1,3.05,2.37S384,790.34,382.24,790.34Zm0-4.33c-1.56,0-2.58.92-2.58,1.92s1,2,2.58,2,2.59-.89,2.59-2S383.8,786,382.24,786Zm6.23,10.35v-4.12h-8.59v-.44h9v4.55Zm-8.23-14v-.44h4.06v.44Zm8.66,4.29V791h-.45v-9.51h.45v4.73h2.3v.47Z"/><path class="c" d="M396.57,795.89v-5.76c-1.64.06-3.07.08-4.37.11l-.06-.5c.81,0,2.7,0,4.62-.11s3.91-.18,5-.32l.06.47c-1.07.15-2.85.23-4.82.34v5.78Zm3.63-10.65c0,1.82-1.53,3-3.5,3s-3.54-1.16-3.54-3,1.6-3,3.54-3S400.2,783.45,400.2,785.24Zm-6.61,0c0,1.53,1.37,2.52,3.11,2.52s3.05-1,3.05-2.53-1.29-2.52-3.05-2.52S393.59,783.74,393.59,785.27Zm9.51,11.09V781.48h.43v14.88Z"/><path class="c" d="M413.65,783.16a11.13,11.13,0,0,1-6.47,10.49l-.35-.42a10.87,10.87,0,0,0,5.64-5.91l-5.47.57-.18-.5,5.8-.47a12.89,12.89,0,0,0,.61-3.29h-5.74v-.47Zm3.62,13.2V781.48h.44v14.88Z"/><path class="c" d="M429,783.14v1.29c0,2.47,2.05,4.18,3.63,4.79l-.26.4a6.61,6.61,0,0,1-3.59-3.75,6.78,6.78,0,0,1-3.68,4.13l-.29-.42a5.87,5.87,0,0,0,3.76-5.15v-1.31h-3.5v-.44h7.41v.44Zm6.07,13.22v-4.54h-8.57v-.47h9v5Zm.41-10.09v4.28h-.43v-9.07h.43v4.36h2.32v.44Z"/><path class="c" d="M446.58,789.41a6.7,6.7,0,0,1-3.63-3.81,6.87,6.87,0,0,1-3.71,4.26l-.24-.4a6,6,0,0,0,3.74-5.31v-1.78h.41v1.76c0,2.52,2.13,4.28,3.73,4.89Zm-.81,6.92c-3,0-4.72-1-4.72-2.66s1.75-2.6,4.72-2.6,4.71,1,4.71,2.6S448.74,796.33,445.77,796.33Zm0-4.83c-2.82,0-4.29.92-4.29,2.16s1.47,2.2,4.29,2.2,4.25-.94,4.25-2.2S448.54,791.5,445.77,791.5Zm.41-5.83v-.44h3.62v-3.76h.45v9.39h-.45v-5.2Z"/><path class="c" d="M453,787.81v-.45h10.17a17.45,17.45,0,0,0,.38-3.65v-1.13h-8.83v-.44h9.26v1.24a20.13,20.13,0,0,1-.4,4h2.18v.45Zm1.66,8.25v-3.34h9v-2.13h-9.11v-.44H464v3h-9v2.47h9.54v.44Z"/><path class="c" d="M467.07,790.07v-.47h12.76v.47Zm6.36-2.45c-3,0-4.8-1.08-4.8-2.78s1.83-2.79,4.8-2.79,4.78,1.08,4.78,2.79S476.41,787.61,473.43,787.61Zm-4.51,8.17v-4.05h.43v3.62h9v.44Zm4.51-13.3c-2.76,0-4.36,1-4.36,2.36s1.6,2.34,4.36,2.34,4.34-1,4.34-2.34S476.18,782.48,473.43,782.48Z"/><path class="c" d="M216.45,814.37a7.23,7.23,0,0,1-3.65-4.07,7.26,7.26,0,0,1-3.7,4.52l-.25-.42a6.46,6.46,0,0,0,3.73-5.58v-2H213v2a6.06,6.06,0,0,0,3.73,5.17Zm-5,5.75v-4.39h.43v4h8.73v.44Zm4.6-9.88v-.44h3.63v-3.87h.45v10.88h-.45v-6.57Z"/><path class="c" d="M230.58,814.4a6.06,6.06,0,0,1-3.62-3.28,6.06,6.06,0,0,1-3.71,3.66l-.26-.4c2.16-.86,3.76-2.52,3.76-4.62v-.58h-3.48v-.44h7.38v.44h-3.47v.58c0,2.16,1.93,3.68,3.63,4.18Zm2.59,6.39v-4.65h-8.44v-.47h8.88v5.12Zm-8.1-13.9v-.44h3.82v.44Zm8.53,3.82v4.15h-.44v-9h.44v4.37h2.3v.44Z"/><path class="c" d="M243.11,817.68v-3.41h-6.18v-.47h12.76v.47h-6.15v3.41Zm-5-5.75-.28-.47c2.55-.4,5.28-2.36,5.28-4.24v-.94h.43v.94c0,1.89,2.73,3.84,5.28,4.24l-.28.47c-2.53-.55-4.65-2.18-5.21-3.68C242.76,809.78,240.63,811.38,238.1,811.93Zm.6,8.26v-4h.43v3.57h9.06v.44Z"/><path class="c" d="M263.08,814.37a7.23,7.23,0,0,1-3.65-4.07,7.26,7.26,0,0,1-3.7,4.52l-.25-.42a6.46,6.46,0,0,0,3.73-5.58v-2h.41v2a6.06,6.06,0,0,0,3.73,5.17Zm-5,5.75v-4.39h.43v4h8.73v.44Zm4.6-9.88v-.44h3.63v-3.87h.45v10.88h-.45v-6.57Z"/><path class="c" d="M273.86,807.57v1.19c0,2.52,2.07,4.13,3.65,4.73l-.29.42a6.42,6.42,0,0,1-3.56-3.7,6.89,6.89,0,0,1-3.77,4.13l-.31-.4c2-.92,3.85-2.74,3.85-5.17v-1.21h-3.56v-.44h7.47v.44Zm2.41,13.15c-3,0-4.72-1-4.72-2.66s1.75-2.6,4.72-2.6,4.71,1,4.71,2.6S279.24,820.73,276.27,820.73Zm0-4.83c-2.82,0-4.29.92-4.29,2.16s1.47,2.2,4.29,2.2,4.25-.94,4.25-2.2S279,815.9,276.27,815.9Zm.66-5.49V810h3.47v-4.05h.45v9.35h-.45v-4.84Z"/><path class="c" d="M286.71,807.36c1.63,0,2.87,1.76,2.93,4.7h2.52v-5.7h.43v13.57h-.43V812.5h-2.52c-.06,2.92-1.3,4.73-2.93,4.73s-2.91-1.89-2.91-4.94S285,807.36,286.71,807.36Zm0,9.43c1.41,0,2.48-1.73,2.48-4.49s-1.07-4.47-2.48-4.47-2.47,1.69-2.47,4.46S285.3,816.79,286.71,816.79Zm8.24,4V805.91h.43v14.88Z"/><path class="c" d="M305.84,817.18a9.71,9.71,0,0,1-3.9-5.2,10.12,10.12,0,0,1-3.76,5.54l-.35-.44a8.91,8.91,0,0,0,3.9-6.6v-3.15h.43v3.13a8.21,8.21,0,0,0,4,6.31ZM304.7,812v-.42h3.9v-5.7H309v14.88h-.44V812Z"/><path class="c" d="M322.82,817.21a8.21,8.21,0,0,1-3.19-4.62,8,8,0,0,1-3.25,5l-.34-.4a7.45,7.45,0,0,0,3.37-6.6v-2.26h-3.14v-.44h6.56v.44h-3v2.28a7.36,7.36,0,0,0,3.27,6.23Zm1.81,2.73v-8h-2.87v-.45h2.87v-5.15h.43v13.57Zm2.85.86V805.91h.41v14.88Z"/><path class="c" d="M339.83,816.76c-1.17.16-2.53.26-4.45.37s-3.59.15-5,.18l-.11-.52c.77,0,2.52,0,4.26-.1v-3.08a3.33,3.33,0,1,1,.22-6.65,3.33,3.33,0,1,1,.2,6.65v3.07c1.83-.08,3.73-.23,4.8-.39Zm-8.25-6.47a3,3,0,0,0,3.19,2.87,2.89,2.89,0,1,0,0-5.76A3,3,0,0,0,331.57,810.28Zm9.36,10.51V805.91h.45v14.88Z"/><path class="c" d="M353.68,812.93c-1.09.15-3,.32-4.65.42s-3.44.18-4.54.21l-.12-.55c.87,0,2.76-.08,4.34-.15h.06v-2.15h-3.05v-4.15h6.49V807h-6.07v3.28h6.23v.44h-3.17v2.13c1.7-.06,3.47-.21,4.45-.34Zm-7,7.68V817.4h8.53v-2h-8.54V815h9v2.87h-8.53v2.31h9.14v.47Zm8.5-6.5v-8.2h.41v8.2Z"/><path class="c" d="M368.84,821v-5.88h-6.15v-.48h12.76v.48h-6.18V821Zm-5.08-8.54-.24-.47c2.55-.4,5.34-2.5,5.34-4.36v-1.06h.43v1.06c0,1.86,2.79,4,5.34,4.36l-.26.44c-2.53-.55-4.72-2.29-5.29-3.79C368.52,810.12,366.31,811.87,363.77,812.41Z"/><path class="c" d="M388.55,810.22a3.34,3.34,0,0,1-3.5,3.44,3.41,3.41,0,1,1,0-6.81A3.3,3.3,0,0,1,388.55,810.22Zm-6.59,0a3,3,0,0,0,3.1,3,3,3,0,1,0,0-5.91A2.94,2.94,0,0,0,382,810.25Zm5.49,9.64a4.34,4.34,0,0,1-2.12-2.4,5.77,5.77,0,0,1-3,3.37l-.31-.39c1.76-.79,3.08-2.53,3.08-3.92v-1.42h.45v1.24a3.6,3.6,0,0,0,2.21,3.18Zm6,.94a6,6,0,0,1-2.84-3.11,6,6,0,0,1-3,3.28l-.31-.37c1.55-.68,3.05-2.5,3.05-3.94v-1.57h.43v1.42a4.71,4.71,0,0,0,2.93,3.92Zm-1.43-6.17v-8.75h.43v8.75Z"/><path class="c" d="M395.21,813.37v-.44H408v.44Zm1.15-2.18-.26-.47c2.55-.4,5.28-2.23,5.28-4.1V806h.43v.61c0,1.87,2.73,3.7,5.28,4.1l-.26.45c-2.53-.57-4.66-2.07-5.23-3.55C401,809.15,398.89,810.62,396.36,811.19Zm.64,9.38V814.8h.41V817h8.37V814.8h.43v5.76Zm8.79-3.1h-8.37v2.66h8.37Z"/><path class="c" d="M418.32,816a36,36,0,0,1-7.5.73h-.43v-9.35h.41v8.89a33.6,33.6,0,0,0,7.44-.73Zm1.87,4.76V805.91h.41v14.88Z"/><path class="c" d="M431.92,816.37a33.6,33.6,0,0,1-6.56.57H424.1v-9.51h6.44v.47h-6v8.57a37.78,37.78,0,0,0,7.35-.53Zm2.12-3.73v8.15h-.41V805.91H434v6.3h2.61v.44Z"/><path class="c" d="M438,818.39h.72v.86H438Z"/><line class="e" y1="256.87" x2="49.33" y2="256.87"/><line class="e" x1="598.43" y1="256.87" x2="647.55" y2="256.87"/><line class="f" x1="77.51" y1="668.58" x2="570.04" y2="668.58"/></svg>