<?xml version="1.0" encoding="utf-8"?>
<!-- Generator: Adobe Illustrator 19.2.1, SVG Export Plug-In . SVG Version: 6.00 Build 0)  -->
<svg version="1.1" id="Layer_1" xmlns="http://www.w3.org/2000/svg" xmlns:xlink="http://www.w3.org/1999/xlink" x="0px" y="0px"
	 viewBox="0 0 48 48" style="enable-background:new 0 0 48 48;" xml:space="preserve">
<style type="text/css">
	.st0{opacity:0.6;}
	.st1{fill:#FDBA12;}
</style>
<g class="st0">
	<path class="st1" d="M43.2,6.8c-5.1-5.1-13.3-5.1-18.4,0c-0.3,0.3-0.6,0.6-0.8,0.9c-0.3-0.3-0.5-0.6-0.8-0.9
		c-5.1-5.1-13.3-5.1-18.4,0s-5.1,13.3,0,18.4l18.5,18.5c0.2,0.2,0.5,0.3,0.7,0.3s0.5-0.1,0.7-0.3l18.5-18.5
		C48.3,20.1,48.3,11.9,43.2,6.8z"/>
</g>
<g>
	<path class="st1" d="M24,7.7c-0.3-0.3-0.5-0.6-0.8-0.9c-5.1-5.1-13.3-5.1-18.4,0s-5.1,13.3,0,18.4l18.5,18.5
		c0.2,0.2,0.5,0.3,0.7,0.3"/>
</g>
</svg>
