<svg xmlns="http://www.w3.org/2000/svg" viewBox="0 0 287.369 70.872"><title>home_header_mobile</title><path d="M14.589,17.172L14.3,4.608q0-.288-0.018-1.08t-0.054-1.62a1.3,1.3,0,0,1,.306-0.99A1.521,1.521,0,0,1,15.7.54q1.368,0,2.736-.018T21.05,0.5q1.242,0,2.286.018T25.1,0.576a1.311,1.311,0,0,1,.774.216,0.954,0.954,0,0,1,.306.828,0.8,0.8,0,0,1-.414.864,2.661,2.661,0,0,1-.882.144H23.66q-0.864,0-1.944.018T19.5,2.664h-2.07a1.186,1.186,0,0,0-.666.126,1.035,1.035,0,0,0-.162.738l0.144,8.46h3.384q1.367,0,2.718.018t2.07,0.054a2.1,2.1,0,0,1,.99.27,1,1,0,0,1,.378.918,0.877,0.877,0,0,1-.324.81,1.144,1.144,0,0,1-.792.126q-0.36-.036-1.476-0.072t-2.448-.054q-1.332-.018-2.592.018t-1.872.108l0.072,12.06v0.864a1.1,1.1,0,0,1-.252.684,0.921,0.921,0,0,1-.522.4,1.393,1.393,0,0,1-.7.036,1.119,1.119,0,0,1-.612-0.342,0.894,0.894,0,0,1-.18-0.774V17.172Z" fill="#333"/><path d="M30.266,27.936a1.321,1.321,0,0,1-.864-0.36,0.825,0.825,0,0,1-.216-0.648,0.881,0.881,0,0,1,.324-0.576,1.358,1.358,0,0,1,.828-0.288q0.72,0,1.224-.018t1.224-.018q0-5.651.072-11.592T32.714,2.556H30.23A1.219,1.219,0,0,1,29.4,2.178a1.025,1.025,0,0,1-.252-0.666A0.934,0.934,0,0,1,29.438.828,1.3,1.3,0,0,1,30.3.5q1.98,0,3.924.018T38.114,0.54a1.175,1.175,0,0,1,.936.972,0.88,0.88,0,0,1-.216.666,1.319,1.319,0,0,1-.792.414H36.548q-0.738,0-1.494-.036,0.071,1.152.054,2.34T35.09,6.84V26.028q0.828-.035,1.458-0.018t1.458,0.018a1.357,1.357,0,0,1,.756.522,0.869,0.869,0,0,1,.144.666,1.11,1.11,0,0,1-.972.72H30.266Z" fill="#333"/><path d="M42.232,1.44a0.909,0.909,0,0,1,.2-0.7A1.021,1.021,0,0,1,42.952.4a1.223,1.223,0,0,1,.72,0,0.861,0.861,0,0,1,.54.5Q45.94,4.284,47.56,7.4t3.276,6.246q1.26,2.376,2.358,4.734t2.394,4.806q0-3.636.018-6.984t0.018-6.192q0-2.843-.018-5.022t-0.054-3.51a1.577,1.577,0,0,1,.36-0.864,0.924,0.924,0,0,1,.72-0.324A1.392,1.392,0,0,1,57.5.63a0.868,0.868,0,0,1,.36.846q0,0.216-.018.864T57.8,3.744Q57.784,4.5,57.784,5.2v5.724q0,2.214.018,4.572T57.82,20.52v6.048q0,0.324-.018.7a2.192,2.192,0,0,1-.126.666,1.162,1.162,0,0,1-.342.486,1,1,0,0,1-.666.2,1.27,1.27,0,0,1-1.116-1.188q-1.332-2.412-2.772-5.4T49.612,15.8q-1.369-2.556-2.592-4.824T44.644,6.336q0.071,0.972.126,2.052t0.108,2.178q0.054,1.1.09,2.142t0.072,1.944q0.071,2.088.108,3.69t0.072,3.042q0.036,1.441.054,2.9T45.292,27.5a1.019,1.019,0,0,1-.378.864,1.317,1.317,0,0,1-.81.288,1.166,1.166,0,0,1-.738-0.27,0.966,0.966,0,0,1-.342-0.81q0.035-1.729.036-3.24T43.024,21.33q-0.037-1.493-.108-3.024t-0.108-3.258q-0.073-1.548-.126-3.258T42.556,8.316q-0.073-1.764-.144-3.51T42.232,1.44Z" fill="#333"/><path d="M62.443,1.4A1.2,1.2,0,0,1,62.623.81,0.985,0.985,0,0,1,62.983.5,2.31,2.31,0,0,1,64.171.432a16.126,16.126,0,0,1,5,.936,9.573,9.573,0,0,1,3.762,2.484,11.014,11.014,0,0,1,2.34,4.176A18.978,18.978,0,0,1,76.051,14a22.8,22.8,0,0,1-.774,5.9,12.888,12.888,0,0,1-2.142,4.446,9.233,9.233,0,0,1-3.456,2.772,10.3,10.3,0,0,1-4.68.882,4.377,4.377,0,0,1-1.3-.144,1.146,1.146,0,0,1-.594-0.45,2.008,2.008,0,0,1-.234-0.954q-0.073-1.08-.09-2.484t-0.036-2.952q-0.018-1.548-.036-3.2t-0.054-3.276Q62.586,11.2,62.5,7.956T62.443,1.4Zm2.376,13.032q0.036,2.808.072,5.706T65,25.848a5.377,5.377,0,0,0,3.564-.486,7.818,7.818,0,0,0,2.79-2.52,13.321,13.321,0,0,0,1.836-4.014,18.074,18.074,0,0,0,.666-4.968,16.672,16.672,0,0,0-.63-4.68,10.766,10.766,0,0,0-1.836-3.69A7.319,7.319,0,0,0,64.6,2.664q0,2.952.072,5.9T64.819,14.436Z" fill="#333"/><path d="M101.9,1.008a1.032,1.032,0,0,1,.594-0.594,1.086,1.086,0,0,1,.7-0.018,1.2,1.2,0,0,1,.63.54,0.983,0.983,0,0,1-.054.972q-1.585,3.168-3.222,6.372t-3.51,6.7q0,1.728-.018,3.222T97,21.15q0,1.458-.018,2.97t-0.018,3.24a1.185,1.185,0,0,1-.324.846,1.128,1.128,0,0,1-.72.378,1.1,1.1,0,0,1-.774-0.252,1.06,1.06,0,0,1-.378-0.9q0-1.693.018-3.222t0.018-3.024q0-1.493.018-3.006t0.018-3.2q-0.647-1.224-1.53-2.808t-1.836-3.33q-0.954-1.745-1.854-3.564T88,1.764a0.907,0.907,0,0,1,.036-0.756A1.356,1.356,0,0,1,88.506.5,1.334,1.334,0,0,1,89.37.36a0.792,0.792,0,0,1,.648.54q0.432,0.972,1.134,2.448t1.53,3.1q0.828,1.62,1.674,3.2t1.566,2.808q0.864-1.62,1.62-3.078t1.494-2.844q0.737-1.386,1.44-2.736T101.9,1.008Z" fill="#333"/><path d="M105.2,14.616q-0.037-1.4.036-3.024a24.692,24.692,0,0,1,.36-3.24,21.453,21.453,0,0,1,.792-3.114,9.353,9.353,0,0,1,1.35-2.628A6.894,6.894,0,0,1,109.771.774a5.747,5.747,0,0,1,2.844-.738,5.6,5.6,0,0,1,5.454,3.4q1.674,3.438,1.638,10.134a43.382,43.382,0,0,1-.522,6.876A14.177,14.177,0,0,1,117.709,25a6.258,6.258,0,0,1-2.484,2.538,7.4,7.4,0,0,1-3.51.792,3.858,3.858,0,0,1-2.934-1.3,10.338,10.338,0,0,1-2-3.312,20.913,20.913,0,0,1-1.17-4.446A33.821,33.821,0,0,1,105.2,14.616ZM112.831,2.2a3.216,3.216,0,0,0-2.2.612,5.363,5.363,0,0,0-1.494,1.818,10.521,10.521,0,0,0-.918,2.556,26.526,26.526,0,0,0-.486,2.808,25.429,25.429,0,0,0-.18,2.574q-0.018,1.188-.018,1.872a36.257,36.257,0,0,0,.324,4.284,20.478,20.478,0,0,0,.846,3.78,8.892,8.892,0,0,0,1.368,2.682,2.338,2.338,0,0,0,1.854,1.026,4.805,4.805,0,0,0,2.214-.5,4.271,4.271,0,0,0,1.728-1.872,12.381,12.381,0,0,0,1.134-3.8,43.27,43.27,0,0,0,.432-6.318q0.036-5.724-1.1-8.55T112.831,2.2Z" fill="#333"/><path d="M130.384,26.46a3.6,3.6,0,0,0,2.718-.99,6.156,6.156,0,0,0,1.422-2.556,14.511,14.511,0,0,0,.558-3.456q0.089-1.89.09-3.726,0.035-3.383-.036-7.218T135.028,1.3A1.127,1.127,0,0,1,135.353.63a1.236,1.236,0,0,1,.54-0.306,1.308,1.308,0,0,1,.828.144,1.233,1.233,0,0,1,.612.756q0,1.693.036,3.636T137.423,8.8q0.018,2,.036,3.96t0.018,3.654a32.927,32.927,0,0,1-.36,5.094,12.576,12.576,0,0,1-1.188,3.87,6.211,6.211,0,0,1-2.16,2.43,5.671,5.671,0,0,1-3.312.774,7.315,7.315,0,0,1-2.772-.54,5.441,5.441,0,0,1-1.908-1.35,6.18,6.18,0,0,1-1.17-1.926,12.492,12.492,0,0,1-.63-2.286,20.6,20.6,0,0,1-.288-2.466q-0.073-1.26-.072-2.412-0.036-4.176-.072-8.136t0.036-8.1a1.107,1.107,0,0,1,.36-0.738,1.2,1.2,0,0,1,.648-0.27,1.168,1.168,0,0,1,.756.2,1.408,1.408,0,0,1,.54.738q-0.036,2.052-.036,4.014V9.2q0,1.926.018,3.888t0.054,4.05q0.035,1.332.126,2.952a13.494,13.494,0,0,0,.5,3.042,5.725,5.725,0,0,0,1.314,2.376A3.3,3.3,0,0,0,130.384,26.46Z" fill="#333"/><path d="M141.915,27.4q0-3.059.018-6.1t0.018-6.138q0-3.1-.018-6.354t-0.054-6.786c0-.168.005-0.354,0.018-0.558A2,2,0,0,1,142,.9a0.812,0.812,0,0,1,.288-0.4A1.008,1.008,0,0,1,142.886.36q1.08,0.073,2.5.234a26.073,26.073,0,0,1,3.078.558,7.6,7.6,0,0,1,3.942,2.3,7.311,7.311,0,0,1,1.746,4.608,7.31,7.31,0,0,1-.252,2.394,6.363,6.363,0,0,1-1.134,2.214,8.589,8.589,0,0,1-2.142,1.908,11.884,11.884,0,0,1-3.24,1.4q0.828,1.369,1.656,2.664t1.674,2.628q0.845,1.332,1.746,2.718t1.872,2.97a1.311,1.311,0,0,1,.216.666,1.109,1.109,0,0,1-.144.558,0.938,0.938,0,0,1-.774.432,1.028,1.028,0,0,1-.918-0.54q-1.944-2.773-3.834-5.688t-3.726-5.94a2.412,2.412,0,0,1-.486.09q-0.234.018-.486,0.054,0,1.835.018,3.528t0,3.114q-0.018,1.423-.036,2.5t-0.054,1.728a1.078,1.078,0,0,1-1.008,1.08,1.146,1.146,0,0,1-.81-0.252A1.06,1.06,0,0,1,141.915,27.4Zm2.2-24.912q0,2.665.018,5.76t0.054,6.264a15.664,15.664,0,0,0,3.762-.882,7.285,7.285,0,0,0,2.376-1.44,4.633,4.633,0,0,0,1.224-1.854,6.689,6.689,0,0,0,.342-2.16,5.31,5.31,0,0,0-.27-1.656,4.7,4.7,0,0,0-.846-1.53,5.541,5.541,0,0,0-1.494-1.242,7.605,7.605,0,0,0-2.214-.828q-0.613-.108-1.368-0.234T144.111,2.484Z" fill="#333"/><path d="M180.4,4.392a1.01,1.01,0,0,1-.144.846,1.173,1.173,0,0,1-.648.45,1.1,1.1,0,0,1-.828-0.036,0.931,0.931,0,0,1-.54-0.756,3.423,3.423,0,0,0-1.134-2.07,3.543,3.543,0,0,0-2.25-.774,5.4,5.4,0,0,0-1.944.252,4.173,4.173,0,0,0-1.386.774,3.275,3.275,0,0,0-.846,1.116,3.123,3.123,0,0,0-.288,1.314,5.193,5.193,0,0,0,1.26,3.114,36.914,36.914,0,0,0,3.528,3.834q1.729,1.656,2.88,2.952a17.332,17.332,0,0,1,1.854,2.448,7.979,7.979,0,0,1,1.242,4.644,6.644,6.644,0,0,1-.594,2.772,5.311,5.311,0,0,1-1.494,1.89,6.092,6.092,0,0,1-2.178,1.08,9.949,9.949,0,0,1-2.646.342,7.169,7.169,0,0,1-2.628-.478,6.85,6.85,0,0,1-2.142-1.314,5.956,5.956,0,0,1-1.422-1.935,5.569,5.569,0,0,1-.5-2.358,0.955,0.955,0,0,1,.288-0.828,1.267,1.267,0,0,1,.756-0.324,1.18,1.18,0,0,1,.773.216,1.064,1.064,0,0,1,.45.792,4.183,4.183,0,0,0,1.278,2.988,4.5,4.5,0,0,0,3.149,1.188,4.912,4.912,0,0,0,3.4-1.008,3.828,3.828,0,0,0,1.206-3.06,6.643,6.643,0,0,0-.324-2.142,7.99,7.99,0,0,0-.972-1.908,14.961,14.961,0,0,0-1.62-1.962q-0.973-1.008-2.268-2.3t-2.322-2.394A20.788,20.788,0,0,1,169.6,9.648a9.082,9.082,0,0,1-1.1-1.98,5.515,5.515,0,0,1-.378-2.016,6.207,6.207,0,0,1,.359-2.07,4.9,4.9,0,0,1,1.134-1.818A5.66,5.66,0,0,1,171.632.486,8.265,8.265,0,0,1,174.638,0a6.606,6.606,0,0,1,3.744,1.008A5.119,5.119,0,0,1,180.4,4.392Z" fill="#333"/><path d="M197.043,1.584a1.142,1.142,0,0,1,.307.72,1.337,1.337,0,0,1-.162.72,1.123,1.123,0,0,1-.595.54,0.682,0.682,0,0,1-.737-0.18,3.981,3.981,0,0,0-1.548-.846,6.141,6.141,0,0,0-1.836-.306,5,5,0,0,0-3.312,1.08,7.3,7.3,0,0,0-2.034,2.826,14.719,14.719,0,0,0-1.008,3.978,33.209,33.209,0,0,0-.234,4.5q0.108,5.76,1.71,8.658a4.865,4.865,0,0,0,4.374,2.9,8.629,8.629,0,0,0,2.16-.252,4.039,4.039,0,0,0,1.836-1.116,1.113,1.113,0,0,1,.9-0.324,1.052,1.052,0,0,1,.684.4,1.2,1.2,0,0,1-.18,1.584,5.361,5.361,0,0,1-2.16,1.4,9.635,9.635,0,0,1-3.24.468,6.5,6.5,0,0,1-3.672-1.026,8.189,8.189,0,0,1-2.592-2.88,15.1,15.1,0,0,1-1.565-4.392,29.292,29.292,0,0,1-.559-5.562,30.8,30.8,0,0,1,.414-5.58,15.17,15.17,0,0,1,1.494-4.59,8.437,8.437,0,0,1,2.718-3.1,7.051,7.051,0,0,1,4.05-1.134,9.82,9.82,0,0,1,2.809.4A4.222,4.222,0,0,1,197.043,1.584Z" fill="#333"/><path d="M212.721,1.4a1.345,1.345,0,0,1,.4-0.756A1,1,0,0,1,213.8.4a1.152,1.152,0,0,1,.685.234,1.312,1.312,0,0,1,.468.7q0,3.313.054,6.5t0.126,6.354q0.072,3.168.126,6.372t0.055,6.516a1.143,1.143,0,0,1-.4.864,1.2,1.2,0,0,1-.756.288,1.031,1.031,0,0,1-.7-0.27,1.257,1.257,0,0,1-.378-0.81q-0.037-3.168-.072-6.336T212.9,14.472q-2.484-.036-4.752-0.036t-4.752.072a4.2,4.2,0,0,0-.019.9q0.018,0.9.036,2.25t0.036,2.97q0.018,1.62.036,3.078t0.036,2.5q0.018,1.044.018,1.3a1.142,1.142,0,0,1-.4.864,1.244,1.244,0,0,1-.792.288,1.027,1.027,0,0,1-.7-0.27,1.255,1.255,0,0,1-.378-0.81q-0.073-2.125-.09-3.87t-0.019-3.384q0-1.638-.036-3.366T201.057,13.1q0-.648-0.018-2.07t-0.018-3.15q0-1.728.018-3.528t0.054-3.24a0.728,0.728,0,0,1,.378-0.594,1.451,1.451,0,0,1,.738-0.2,1.492,1.492,0,0,1,.846.252,0.776,0.776,0,0,1,.343.756q-0.073,2.484-.072,5.256v5.688q2.628-.035,4.86-0.036t4.68,0.036q-0.073-2.88-.108-5.418T212.721,1.4Z" fill="#333"/><path d="M218.949,14.616q-0.037-1.4.036-3.024a24.691,24.691,0,0,1,.359-3.24,21.579,21.579,0,0,1,.792-3.114,9.354,9.354,0,0,1,1.351-2.628A6.9,6.9,0,0,1,223.522.774a5.745,5.745,0,0,1,2.844-.738,5.6,5.6,0,0,1,5.454,3.4q1.674,3.438,1.638,10.134a43.563,43.563,0,0,1-.521,6.876A14.189,14.189,0,0,1,231.459,25a6.26,6.26,0,0,1-2.483,2.538,7.4,7.4,0,0,1-3.511.792,3.858,3.858,0,0,1-2.934-1.3,10.338,10.338,0,0,1-2-3.312,20.913,20.913,0,0,1-1.17-4.446A33.821,33.821,0,0,1,218.949,14.616ZM226.581,2.2a3.216,3.216,0,0,0-2.2.612,5.361,5.361,0,0,0-1.493,1.818,10.5,10.5,0,0,0-.918,2.556,26.16,26.16,0,0,0-.486,2.808,25.42,25.42,0,0,0-.18,2.574q-0.019,1.188-.019,1.872a36.153,36.153,0,0,0,.324,4.284,20.438,20.438,0,0,0,.846,3.78,8.892,8.892,0,0,0,1.368,2.682,2.337,2.337,0,0,0,1.854,1.026,4.809,4.809,0,0,0,2.215-.5,4.275,4.275,0,0,0,1.728-1.872,12.342,12.342,0,0,0,1.134-3.8,43.319,43.319,0,0,0,.433-6.318q0.035-5.724-1.1-8.55T226.581,2.2Z" fill="#333"/><path d="M236.794,14.616q-0.037-1.4.036-3.024a24.691,24.691,0,0,1,.359-3.24,21.579,21.579,0,0,1,.792-3.114,9.354,9.354,0,0,1,1.351-2.628A6.9,6.9,0,0,1,241.366.774,5.745,5.745,0,0,1,244.21.036a5.6,5.6,0,0,1,5.454,3.4q1.674,3.438,1.638,10.134a43.563,43.563,0,0,1-.521,6.876A14.189,14.189,0,0,1,249.3,25a6.26,6.26,0,0,1-2.483,2.538,7.4,7.4,0,0,1-3.511.792,3.858,3.858,0,0,1-2.934-1.3,10.338,10.338,0,0,1-2-3.312,20.913,20.913,0,0,1-1.17-4.446A33.821,33.821,0,0,1,236.794,14.616ZM244.426,2.2a3.216,3.216,0,0,0-2.2.612,5.361,5.361,0,0,0-1.493,1.818,10.5,10.5,0,0,0-.918,2.556,26.16,26.16,0,0,0-.486,2.808,25.421,25.421,0,0,0-.18,2.574q-0.019,1.188-.019,1.872a36.153,36.153,0,0,0,.324,4.284,20.438,20.438,0,0,0,.846,3.78,8.892,8.892,0,0,0,1.368,2.682,2.337,2.337,0,0,0,1.854,1.026,4.809,4.809,0,0,0,2.215-.5,4.275,4.275,0,0,0,1.728-1.872,12.342,12.342,0,0,0,1.134-3.8,43.319,43.319,0,0,0,.433-6.318q0.035-5.724-1.1-8.55T244.426,2.2Z" fill="#333"/><path d="M255.287,1.08a1.129,1.129,0,0,1,.323-0.666,1.236,1.236,0,0,1,.54-0.306,1.252,1.252,0,0,1,1.4.9q-0.072,3.061-.054,6.03t0.036,5.94q0.018,2.97,0,5.994T257.411,25.2a2,2,0,0,1-.019.216,0.588,0.588,0,0,0,.036.288,0.514,0.514,0,0,0,.234.252,1.162,1.162,0,0,0,.575.108q2.052,0.072,4.356.018t4.356-.09a0.758,0.758,0,0,1,.63.3,1.3,1.3,0,0,1,.27.689,0.981,0.981,0,0,1-.162.654,0.778,0.778,0,0,1-.7.3q-0.791.035-2.159,0.054l-2.845.036q-1.477.018-2.88,0.018h-2.231a2.426,2.426,0,0,1-1.387-.318,1.41,1.41,0,0,1-.414-1.273q0.072-2.513.091-5.573t0.018-6.372q0-3.311.018-6.732T255.287,1.08Z" fill="#333"/><path d="M272.134,28.872a2,2,0,0,1-1.62-.684,1.684,1.684,0,0,1-.4-1.512,2.058,2.058,0,0,1,.666-1.188,2.21,2.21,0,0,1,1.206-.468,1.817,1.817,0,0,1,1.458.522,1.963,1.963,0,0,1,.126,2.754A1.814,1.814,0,0,1,272.134,28.872Z" fill="#333"/><path d="M12.856,46.392a1.006,1.006,0,0,1-.144.846,1.167,1.167,0,0,1-.648.45,1.1,1.1,0,0,1-.828-0.036A0.93,0.93,0,0,1,10.7,46.9a3.426,3.426,0,0,0-1.134-2.07,3.544,3.544,0,0,0-2.25-.774,5.4,5.4,0,0,0-1.944.252,4.17,4.17,0,0,0-1.386.774,3.281,3.281,0,0,0-.846,1.116,3.123,3.123,0,0,0-.288,1.314,5.19,5.19,0,0,0,1.26,3.114,36.859,36.859,0,0,0,3.528,3.834q1.728,1.656,2.88,2.952a17.376,17.376,0,0,1,1.854,2.448,8.451,8.451,0,0,1,.99,2.268,8.524,8.524,0,0,1,.252,2.376,6.659,6.659,0,0,1-.594,2.772,5.316,5.316,0,0,1-1.494,1.89,6.092,6.092,0,0,1-2.178,1.08,9.948,9.948,0,0,1-2.646.342,7.164,7.164,0,0,1-2.628-.478A6.836,6.836,0,0,1,1.93,68.792,5.949,5.949,0,0,1,.508,66.858,5.576,5.576,0,0,1,0,64.5a0.959,0.959,0,0,1,.288-0.828,1.269,1.269,0,0,1,.756-0.324,1.181,1.181,0,0,1,.774.216,1.065,1.065,0,0,1,.45.792A4.183,4.183,0,0,0,3.55,67.344,4.5,4.5,0,0,0,6.7,68.532a4.911,4.911,0,0,0,3.4-1.008,3.828,3.828,0,0,0,1.206-3.06,6.629,6.629,0,0,0-.324-2.142,7.972,7.972,0,0,0-.972-1.908,15.039,15.039,0,0,0-1.62-1.962q-0.972-1.008-2.268-2.3T3.8,53.754a20.92,20.92,0,0,1-1.746-2.106,9.085,9.085,0,0,1-1.1-1.98A5.515,5.515,0,0,1,.58,47.652a6.208,6.208,0,0,1,.36-2.07,4.878,4.878,0,0,1,1.134-1.818A5.649,5.649,0,0,1,4.09,42.486,8.265,8.265,0,0,1,7.1,42a6.606,6.606,0,0,1,3.744,1.008A5.121,5.121,0,0,1,12.856,46.392Z" fill="#333"/><path d="M28.451,43.4a1.342,1.342,0,0,1,.4-0.756,1.006,1.006,0,0,1,.684-0.252,1.153,1.153,0,0,1,.684.234,1.309,1.309,0,0,1,.468.7q0,3.313.054,6.5t0.126,6.354q0.072,3.168.126,6.372t0.054,6.516a1.139,1.139,0,0,1-.4.864,1.2,1.2,0,0,1-.756.288,1.031,1.031,0,0,1-.7-0.27,1.257,1.257,0,0,1-.378-0.81q-0.036-3.168-.072-6.336t-0.108-6.336q-2.484-.036-4.752-0.036t-4.752.072a4.23,4.23,0,0,0-.018.9q0.018,0.9.036,2.25t0.036,2.97q0.018,1.62.036,3.078t0.036,2.5q0.018,1.044.018,1.3a1.139,1.139,0,0,1-.4.864,1.242,1.242,0,0,1-.792.288,1.029,1.029,0,0,1-.7-0.27A1.255,1.255,0,0,1,17,69.576q-0.073-2.125-.09-3.87t-0.018-3.384q0-1.638-.036-3.366T16.787,55.1q0-.648-0.018-2.07t-0.018-3.15q0-1.728.018-3.528t0.054-3.24a0.724,0.724,0,0,1,.378-0.594,1.448,1.448,0,0,1,.738-0.2,1.494,1.494,0,0,1,.846.252,0.775,0.775,0,0,1,.342.756q-0.073,2.484-.072,5.256v5.688q2.627-.035,4.86-0.036t4.68,0.036q-0.073-2.88-.108-5.418T28.451,43.4Z" fill="#333"/><path d="M40.932,43.3A1,1,0,0,1,41.8,42.36a0.855,0.855,0,0,1,.7-0.054,0.939,0.939,0,0,1,.522.594q0.935,2.773,1.8,6.084t1.692,6.822q0.828,3.51,1.656,6.984t1.692,6.534a0.964,0.964,0,0,1-.072.828,1.029,1.029,0,0,1-.576.432,1.155,1.155,0,0,1-.846-0.036,1.119,1.119,0,0,1-.63-0.792q-0.648-2.16-1.17-4.14T45.612,61.8H38.448q-0.5,1.729-.972,3.672T36.5,69.792a0.861,0.861,0,0,1-.63.756,1.3,1.3,0,0,1-.954-0.072,1.126,1.126,0,0,1-.468-0.45,0.951,0.951,0,0,1-.072-0.738q0.756-3.6,1.62-6.678t1.728-6.084q0.864-3.005,1.674-6.192T40.932,43.3Zm1.3,4.284q-0.324,1.8-.7,3.366t-0.774,3.006q-0.4,1.44-.828,2.844T39.06,59.64q0.612,0,1.368.018t1.566,0.018h3.114q-0.792-3.383-1.44-6.336T42.228,47.58Z" fill="#333"/><path d="M53.442,69.4q0-3.059.018-6.1t0.018-6.138q0-3.1-.018-6.354t-0.054-6.786c0-.168.005-0.354,0.018-0.558a2,2,0,0,1,.108-0.558,0.812,0.812,0,0,1,.288-0.4,1.008,1.008,0,0,1,.594-0.144q1.08,0.073,2.5.234a26.073,26.073,0,0,1,3.078.558,7.6,7.6,0,0,1,3.942,2.3,7.95,7.95,0,0,1,1.494,7A6.363,6.363,0,0,1,64.3,54.672a8.589,8.589,0,0,1-2.142,1.908,11.884,11.884,0,0,1-3.24,1.4q0.828,1.369,1.656,2.664t1.674,2.628q0.845,1.332,1.746,2.718t1.872,2.97a1.311,1.311,0,0,1,.216.666,1.109,1.109,0,0,1-.144.558,0.938,0.938,0,0,1-.774.432,1.028,1.028,0,0,1-.918-0.54q-1.944-2.773-3.834-5.688t-3.726-5.94a2.412,2.412,0,0,1-.486.09q-0.234.018-.486,0.054,0,1.835.018,3.528t0,3.114q-0.018,1.423-.036,2.5t-0.054,1.728a1.078,1.078,0,0,1-1.008,1.08,1.146,1.146,0,0,1-.81-0.252A1.06,1.06,0,0,1,53.442,69.4Zm2.2-24.912q0,2.665.018,5.76t0.054,6.264a15.664,15.664,0,0,0,3.762-.882,7.285,7.285,0,0,0,2.376-1.44,4.633,4.633,0,0,0,1.224-1.854,6.689,6.689,0,0,0,.342-2.16,5.31,5.31,0,0,0-.27-1.656,4.7,4.7,0,0,0-.846-1.53A5.541,5.541,0,0,0,60.8,45.744a7.605,7.605,0,0,0-2.214-.828q-0.613-.108-1.368-0.234T55.638,44.484Z" fill="#333"/><path d="M69.912,58.452L69.84,45.888V45.42q0-.324-0.018-0.666c-0.013-.228-0.018-0.45-0.018-0.666V43.62a1.355,1.355,0,0,1,.27-0.756,0.817,0.817,0,0,1,.846-0.324q1.115,0.036,2.718.018l3.15-.036q1.548-.018,2.79,0a13.687,13.687,0,0,1,1.674.09,0.569,0.569,0,0,1,.378.324,1.107,1.107,0,0,1,.162.54,0.885,0.885,0,0,1-.4.9,2.055,2.055,0,0,1-.864.18H78.984q-1.116,0-2.394-.018T74.2,44.52H71.964L72.144,55q1.692,0.036,3.2.036h2.61q1.314,0,2.034-.072a1.707,1.707,0,0,1,.324-0.036h0.54a0.558,0.558,0,0,1,.468.36,1.366,1.366,0,0,1,.144.5,1.109,1.109,0,0,1-.288.846,1.2,1.2,0,0,1-.756.306q-0.181,0-.63.018t-1.062.036q-0.612.018-1.35,0.018H72.108l0.036,6.48V67.2a0.819,0.819,0,0,0,.18.7,1.36,1.36,0,0,0,.576.09h5.832l3.1-.072a0.568,0.568,0,0,1,.612.342,1.538,1.538,0,0,1,.18.63,1.287,1.287,0,0,1-.252.756,1.012,1.012,0,0,1-.792.252q-1.369.036-2.574,0.054t-2.376.018q-1.17,0-2.394-.018t-2.556-.018a2.214,2.214,0,0,1-1.242-.342,1.179,1.179,0,0,1-.522-1.062V58.452Z" fill="#333"/><path d="M107.639,43.008a1.032,1.032,0,0,1,.594-0.594,1.086,1.086,0,0,1,.7-0.018,1.2,1.2,0,0,1,.63.54,0.983,0.983,0,0,1-.054.972q-1.585,3.168-3.222,6.372t-3.51,6.7q0,1.728-.018,3.222t-0.018,2.952q0,1.458-.018,2.97t-0.018,3.24a1.185,1.185,0,0,1-.324.846,1.128,1.128,0,0,1-.72.378,1.1,1.1,0,0,1-.774-0.252,1.06,1.06,0,0,1-.378-0.9q0-1.693.018-3.222t0.018-3.024q0-1.493.018-3.006t0.018-3.2q-0.647-1.224-1.53-2.808t-1.836-3.33q-0.954-1.745-1.854-3.564t-1.62-3.51a0.907,0.907,0,0,1,.036-0.756,1.356,1.356,0,0,1,.468-0.5,1.334,1.334,0,0,1,.864-0.144,0.792,0.792,0,0,1,.648.54q0.432,0.972,1.134,2.448t1.53,3.1q0.828,1.62,1.674,3.2t1.566,2.808q0.864-1.62,1.62-3.078t1.494-2.844q0.737-1.386,1.44-2.736T107.639,43.008Z" fill="#333"/><path d="M110.94,56.616q-0.037-1.4.036-3.024a24.692,24.692,0,0,1,.36-3.24,21.453,21.453,0,0,1,.792-3.114,9.353,9.353,0,0,1,1.35-2.628,6.894,6.894,0,0,1,2.034-1.836,5.747,5.747,0,0,1,2.844-.738,5.6,5.6,0,0,1,5.454,3.4q1.674,3.438,1.638,10.134a43.382,43.382,0,0,1-.522,6.876A14.177,14.177,0,0,1,123.45,67a6.258,6.258,0,0,1-2.484,2.538,7.4,7.4,0,0,1-3.51.792,3.858,3.858,0,0,1-2.934-1.3,10.338,10.338,0,0,1-2-3.312,20.913,20.913,0,0,1-1.17-4.446A33.821,33.821,0,0,1,110.94,56.616Zm7.632-12.42a3.216,3.216,0,0,0-2.2.612,5.363,5.363,0,0,0-1.494,1.818,10.521,10.521,0,0,0-.918,2.556,26.526,26.526,0,0,0-.486,2.808,25.429,25.429,0,0,0-.18,2.574q-0.018,1.188-.018,1.872a36.257,36.257,0,0,0,.324,4.284,20.478,20.478,0,0,0,.846,3.78,8.892,8.892,0,0,0,1.368,2.682,2.338,2.338,0,0,0,1.854,1.026,4.805,4.805,0,0,0,2.214-.5,4.271,4.271,0,0,0,1.728-1.872,12.381,12.381,0,0,0,1.134-3.8,43.27,43.27,0,0,0,.432-6.318q0.036-5.724-1.1-8.55T118.572,44.2Z" fill="#333"/><path d="M136.126,68.46a3.6,3.6,0,0,0,2.718-.99,6.156,6.156,0,0,0,1.422-2.556,14.511,14.511,0,0,0,.558-3.456q0.089-1.89.09-3.726,0.035-3.383-.036-7.218T140.77,43.3a1.127,1.127,0,0,1,.324-0.666,1.236,1.236,0,0,1,.54-0.306,1.308,1.308,0,0,1,.828.144,1.233,1.233,0,0,1,.612.756q0,1.693.036,3.636t0.054,3.942q0.018,2,.036,3.96t0.018,3.654a32.927,32.927,0,0,1-.36,5.094,12.576,12.576,0,0,1-1.188,3.87,6.211,6.211,0,0,1-2.16,2.43,5.671,5.671,0,0,1-3.312.774,7.315,7.315,0,0,1-2.772-.54,5.441,5.441,0,0,1-1.908-1.35,6.18,6.18,0,0,1-1.17-1.926,12.492,12.492,0,0,1-.63-2.286,20.6,20.6,0,0,1-.288-2.466q-0.073-1.26-.072-2.412-0.036-4.176-.072-8.136t0.036-8.1a1.107,1.107,0,0,1,.36-0.738,1.2,1.2,0,0,1,.648-0.27,1.168,1.168,0,0,1,.756.2,1.408,1.408,0,0,1,.54.738q-0.036,2.052-.036,4.014V51.2q0,1.926.018,3.888t0.054,4.05q0.035,1.332.126,2.952a13.494,13.494,0,0,0,.5,3.042,5.725,5.725,0,0,0,1.314,2.376A3.3,3.3,0,0,0,136.126,68.46Z" fill="#333"/><path d="M147.656,69.4q0-3.059.018-6.1t0.018-6.138q0-3.1-.018-6.354t-0.054-6.786c0-.168.005-0.354,0.018-0.558a2,2,0,0,1,.108-0.558,0.812,0.812,0,0,1,.288-0.4,1.008,1.008,0,0,1,.594-0.144q1.08,0.073,2.5.234a26.073,26.073,0,0,1,3.078.558,7.6,7.6,0,0,1,3.942,2.3,7.95,7.95,0,0,1,1.494,7,6.363,6.363,0,0,1-1.134,2.214,8.589,8.589,0,0,1-2.142,1.908,11.884,11.884,0,0,1-3.24,1.4q0.828,1.369,1.656,2.664t1.674,2.628q0.845,1.332,1.746,2.718t1.872,2.97a1.311,1.311,0,0,1,.216.666,1.109,1.109,0,0,1-.144.558,0.938,0.938,0,0,1-.774.432,1.028,1.028,0,0,1-.918-0.54q-1.944-2.773-3.834-5.688t-3.726-5.94a2.412,2.412,0,0,1-.486.09q-0.234.018-.486,0.054,0,1.835.018,3.528t0,3.114q-0.018,1.423-.036,2.5t-0.054,1.728a1.078,1.078,0,0,1-1.008,1.08,1.146,1.146,0,0,1-.81-0.252A1.06,1.06,0,0,1,147.656,69.4Zm2.2-24.912q0,2.665.018,5.76t0.054,6.264a15.664,15.664,0,0,0,3.762-.882,7.285,7.285,0,0,0,2.376-1.44,4.633,4.633,0,0,0,1.224-1.854,6.689,6.689,0,0,0,.342-2.16,5.31,5.31,0,0,0-.27-1.656,4.7,4.7,0,0,0-.846-1.53,5.541,5.541,0,0,0-1.494-1.242,7.605,7.605,0,0,0-2.214-.828q-0.613-.108-1.368-0.234T149.852,44.484Z" fill="#333"/><path d="M186.139,46.392a1.01,1.01,0,0,1-.144.846,1.173,1.173,0,0,1-.648.45,1.1,1.1,0,0,1-.828-0.036,0.931,0.931,0,0,1-.54-0.756,3.423,3.423,0,0,0-1.134-2.07,3.543,3.543,0,0,0-2.25-.774,5.4,5.4,0,0,0-1.944.252,4.173,4.173,0,0,0-1.386.774,3.275,3.275,0,0,0-.846,1.116,3.123,3.123,0,0,0-.288,1.314,5.193,5.193,0,0,0,1.26,3.114,36.914,36.914,0,0,0,3.528,3.834q1.729,1.656,2.88,2.952a17.332,17.332,0,0,1,1.854,2.448,7.979,7.979,0,0,1,1.242,4.644,6.644,6.644,0,0,1-.594,2.772,5.311,5.311,0,0,1-1.494,1.89,6.092,6.092,0,0,1-2.178,1.08,9.949,9.949,0,0,1-2.646.342,7.169,7.169,0,0,1-2.628-.478,6.85,6.85,0,0,1-2.142-1.314,5.956,5.956,0,0,1-1.422-1.935,5.569,5.569,0,0,1-.5-2.358,0.955,0.955,0,0,1,.288-0.828,1.267,1.267,0,0,1,.756-0.324,1.18,1.18,0,0,1,.773.216,1.064,1.064,0,0,1,.45.792,4.183,4.183,0,0,0,1.278,2.988,4.5,4.5,0,0,0,3.149,1.188,4.912,4.912,0,0,0,3.4-1.008,3.828,3.828,0,0,0,1.206-3.06,6.643,6.643,0,0,0-.324-2.142,7.99,7.99,0,0,0-.972-1.908,14.961,14.961,0,0,0-1.62-1.962q-0.973-1.008-2.268-2.3t-2.322-2.394a20.788,20.788,0,0,1-1.746-2.106,9.082,9.082,0,0,1-1.1-1.98,5.515,5.515,0,0,1-.378-2.016,6.207,6.207,0,0,1,.359-2.07,4.9,4.9,0,0,1,1.134-1.818,5.66,5.66,0,0,1,2.017-1.278A8.265,8.265,0,0,1,180.379,42a6.606,6.606,0,0,1,3.744,1.008A5.119,5.119,0,0,1,186.139,46.392Z" fill="#333"/><path d="M189.837,44.664a1.384,1.384,0,0,1-1.152-.367,1.105,1.105,0,0,1-.323-0.842,1,1,0,0,1,.287-0.623,1.017,1.017,0,0,1,.757-0.256q3.2-.072,6.714-0.072t6.714,0.072a0.826,0.826,0,0,1,.666.275,1.138,1.138,0,0,1,.27.641,1.15,1.15,0,0,1-.216.77,0.933,0.933,0,0,1-.828.366h-5.8q0.035,2.916.09,6.228t0.126,6.12q0.072,3.2,0,6.228T197,69.468a1.127,1.127,0,0,1-.433.9,1.211,1.211,0,0,1-.827.252,1.124,1.124,0,0,1-.685-0.306,1.265,1.265,0,0,1-.359-0.774q0.072-3.2.144-6.228t0-6.228q-0.037-1.4-.09-2.988t-0.09-3.2q-0.037-1.62-.055-3.222t-0.018-3.042q-1.225.037-2.43,0.018T189.837,44.664Z" fill="#333"/><path d="M205.141,56.616q-0.037-1.4.036-3.024a24.691,24.691,0,0,1,.359-3.24,21.579,21.579,0,0,1,.792-3.114,9.354,9.354,0,0,1,1.351-2.628,6.9,6.9,0,0,1,2.034-1.836,5.745,5.745,0,0,1,2.844-.738,5.6,5.6,0,0,1,5.454,3.4q1.674,3.438,1.638,10.134a43.563,43.563,0,0,1-.521,6.876A14.189,14.189,0,0,1,217.651,67a6.26,6.26,0,0,1-2.483,2.538,7.4,7.4,0,0,1-3.511.792,3.858,3.858,0,0,1-2.934-1.3,10.338,10.338,0,0,1-2-3.312,20.913,20.913,0,0,1-1.17-4.446A33.821,33.821,0,0,1,205.141,56.616Zm7.632-12.42a3.216,3.216,0,0,0-2.2.612,5.361,5.361,0,0,0-1.493,1.818,10.5,10.5,0,0,0-.918,2.556,26.16,26.16,0,0,0-.486,2.808,25.421,25.421,0,0,0-.18,2.574q-0.019,1.188-.019,1.872a36.153,36.153,0,0,0,.324,4.284,20.438,20.438,0,0,0,.846,3.78,8.892,8.892,0,0,0,1.368,2.682,2.337,2.337,0,0,0,1.854,1.026,4.809,4.809,0,0,0,2.215-.5,4.275,4.275,0,0,0,1.728-1.872,12.342,12.342,0,0,0,1.134-3.8,43.319,43.319,0,0,0,.433-6.318q0.035-5.724-1.1-8.55T212.773,44.2Z" fill="#333"/><path d="M223.6,69.4q0-3.059.019-6.1t0.018-6.138q0-3.1-.018-6.354t-0.055-6.786c0-.168.006-0.354,0.019-0.558a1.98,1.98,0,0,1,.108-0.558,0.813,0.813,0,0,1,.287-0.4,1.011,1.011,0,0,1,.595-0.144q1.08,0.073,2.5.234a26.126,26.126,0,0,1,3.078.558,7.6,7.6,0,0,1,3.941,2.3,7.95,7.95,0,0,1,1.494,7,6.363,6.363,0,0,1-1.134,2.214,8.592,8.592,0,0,1-2.143,1.908,11.877,11.877,0,0,1-3.239,1.4q0.828,1.369,1.655,2.664t1.675,2.628q0.845,1.332,1.745,2.718t1.872,2.97a1.309,1.309,0,0,1,.217.666,1.109,1.109,0,0,1-.145.558,0.937,0.937,0,0,1-.773.432,1.027,1.027,0,0,1-.918-0.54q-1.945-2.773-3.834-5.688t-3.727-5.94a2.411,2.411,0,0,1-.486.09c-0.156.012-.318,0.03-0.485,0.054q0,1.835.018,3.528t0,3.114q-0.018,1.423-.036,2.5T225.8,69.468a1.079,1.079,0,0,1-1.008,1.08,1.148,1.148,0,0,1-.811-0.252A1.06,1.06,0,0,1,223.6,69.4Zm2.2-24.912q0,2.665.018,5.76t0.055,6.264a15.664,15.664,0,0,0,3.762-.882,7.274,7.274,0,0,0,2.376-1.44,4.622,4.622,0,0,0,1.224-1.854,6.663,6.663,0,0,0,.343-2.16,5.3,5.3,0,0,0-.271-1.656,4.693,4.693,0,0,0-.846-1.53,5.541,5.541,0,0,0-1.494-1.242,7.605,7.605,0,0,0-2.214-.828q-0.612-.108-1.368-0.234T225.8,44.484Z" fill="#333"/><path d="M240.485,69.936a1.322,1.322,0,0,1-.864-0.36,0.825,0.825,0,0,1-.216-0.648,0.882,0.882,0,0,1,.324-0.576,1.356,1.356,0,0,1,.828-0.288q0.719,0,1.224-.018T243,68.028q0-5.651.072-11.592t-0.144-11.88h-2.484a1.22,1.22,0,0,1-.828-0.378,1.025,1.025,0,0,1-.252-0.666,0.934,0.934,0,0,1,.288-0.684,1.294,1.294,0,0,1,.864-0.324q1.979,0,3.924.018t3.888,0.018a1.176,1.176,0,0,1,.937.972,0.881,0.881,0,0,1-.217.666,1.316,1.316,0,0,1-.792.414h-1.493q-0.738,0-1.494-.036,0.072,1.152.054,2.34t-0.018,1.944V68.028q0.828-.035,1.458-0.018t1.458,0.018a1.362,1.362,0,0,1,.756.522,0.871,0.871,0,0,1,.144.666,1.11,1.11,0,0,1-.972.72h-7.668Z" fill="#333"/><path d="M252.54,58.452l-0.071-12.564V45.42c0-.216-0.007-0.437-0.019-0.666s-0.018-.45-0.018-0.666V43.62a1.358,1.358,0,0,1,.27-0.756,0.818,0.818,0,0,1,.847-0.324q1.115,0.036,2.718.018l3.15-.036q1.547-.018,2.789,0a13.707,13.707,0,0,1,1.675.09,0.571,0.571,0,0,1,.378.324,1.118,1.118,0,0,1,.162.54,0.886,0.886,0,0,1-.4.9,2.059,2.059,0,0,1-.864.18h-1.548q-1.116,0-2.394-.018t-2.395-.018h-2.231L254.773,55q1.692,0.036,3.2.036h2.61q1.313,0,2.033-.072a1.72,1.72,0,0,1,.324-0.036h0.54a0.558,0.558,0,0,1,.468.36,1.369,1.369,0,0,1,.145.5,1.111,1.111,0,0,1-.288.846,1.2,1.2,0,0,1-.756.306q-0.18,0-.63.018c-0.3.012-.654,0.024-1.062,0.036s-0.858.018-1.35,0.018h-5.274l0.036,6.48V67.2a0.821,0.821,0,0,0,.18.7,1.363,1.363,0,0,0,.576.09h5.832l3.1-.072a0.569,0.569,0,0,1,.612.342,1.536,1.536,0,0,1,.18.63,1.277,1.277,0,0,1-.252.756,1.011,1.011,0,0,1-.792.252q-1.368.036-2.573,0.054t-2.376.018q-1.17,0-2.395-.018t-2.556-.018a2.214,2.214,0,0,1-1.242-.342,1.179,1.179,0,0,1-.522-1.062V58.452Z" fill="#333"/><path d="M280.39,46.392a1.01,1.01,0,0,1-.144.846,1.173,1.173,0,0,1-.648.45,1.1,1.1,0,0,1-.828-0.036,0.931,0.931,0,0,1-.54-0.756,3.423,3.423,0,0,0-1.134-2.07,3.543,3.543,0,0,0-2.25-.774,5.4,5.4,0,0,0-1.944.252,4.173,4.173,0,0,0-1.386.774,3.275,3.275,0,0,0-.846,1.116,3.123,3.123,0,0,0-.288,1.314,5.193,5.193,0,0,0,1.26,3.114,36.914,36.914,0,0,0,3.528,3.834q1.729,1.656,2.88,2.952a17.332,17.332,0,0,1,1.854,2.448,7.979,7.979,0,0,1,1.242,4.644,6.644,6.644,0,0,1-.594,2.772,5.311,5.311,0,0,1-1.494,1.89,6.092,6.092,0,0,1-2.178,1.08,9.949,9.949,0,0,1-2.646.342,7.169,7.169,0,0,1-2.628-.478,6.85,6.85,0,0,1-2.142-1.314,5.956,5.956,0,0,1-1.422-1.935,5.569,5.569,0,0,1-.5-2.358,0.955,0.955,0,0,1,.288-0.828,1.267,1.267,0,0,1,.756-0.324,1.18,1.18,0,0,1,.773.216,1.064,1.064,0,0,1,.45.792,4.183,4.183,0,0,0,1.278,2.988,4.5,4.5,0,0,0,3.149,1.188,4.912,4.912,0,0,0,3.4-1.008,3.828,3.828,0,0,0,1.206-3.06,6.643,6.643,0,0,0-.324-2.142,7.99,7.99,0,0,0-.972-1.908,14.961,14.961,0,0,0-1.62-1.962q-0.973-1.008-2.268-2.3t-2.322-2.394a20.788,20.788,0,0,1-1.746-2.106,9.082,9.082,0,0,1-1.1-1.98,5.515,5.515,0,0,1-.378-2.016,6.207,6.207,0,0,1,.359-2.07,4.9,4.9,0,0,1,1.134-1.818,5.66,5.66,0,0,1,2.017-1.278A8.265,8.265,0,0,1,274.63,42a6.606,6.606,0,0,1,3.744,1.008A5.119,5.119,0,0,1,280.39,46.392Z" fill="#333"/><path d="M285.425,70.872a2,2,0,0,1-1.62-.684,1.684,1.684,0,0,1-.4-1.512,2.058,2.058,0,0,1,.666-1.188,2.21,2.21,0,0,1,1.206-.468,1.817,1.817,0,0,1,1.458.522,1.963,1.963,0,0,1,.126,2.754A1.814,1.814,0,0,1,285.425,70.872Z" fill="#333"/></svg>