<svg xmlns="http://www.w3.org/2000/svg" viewBox="0 0 829.33 43.308"><title>home_header</title><path d="M0.545,25.758L0.114,6.912q0-.431-0.027-1.62T0.005,2.862A1.946,1.946,0,0,1,.465,1.377,2.28,2.28,0,0,1,2.22.81q2.052,0,4.1-.027t3.915-.027q1.863,0,3.429.027t2.646,0.081a1.968,1.968,0,0,1,1.161.324,1.431,1.431,0,0,1,.459,1.242,1.194,1.194,0,0,1-.621,1.3,3.987,3.987,0,0,1-1.323.216H14.154q-1.3,0-2.916.027T7.916,4h-3.1a1.784,1.784,0,0,0-1,.189A1.553,1.553,0,0,0,3.57,5.292l0.216,12.69H8.862q2.052,0,4.077.027t3.1,0.081a3.159,3.159,0,0,1,1.485.4,1.5,1.5,0,0,1,.567,1.377,1.315,1.315,0,0,1-.486,1.215,1.713,1.713,0,0,1-1.188.189q-0.54-.053-2.214-0.108t-3.672-.081q-2-.027-3.888.027t-2.808.162l0.108,18.09v1.3a1.652,1.652,0,0,1-.378,1.026,1.382,1.382,0,0,1-.783.594,2.1,2.1,0,0,1-1.053.054,1.68,1.68,0,0,1-.918-0.513,1.343,1.343,0,0,1-.27-1.161v-14.9Z" fill="#333"/><path d="M23.749,41.9a1.98,1.98,0,0,1-1.3-.54,1.237,1.237,0,0,1-.324-0.972,1.323,1.323,0,0,1,.486-0.864,2.041,2.041,0,0,1,1.242-.432q1.08,0,1.836-.027t1.836-.027q0-8.477.108-17.388T27.421,3.834H23.7a1.829,1.829,0,0,1-1.242-.567,1.537,1.537,0,0,1-.378-1,1.4,1.4,0,0,1,.432-1.026A1.942,1.942,0,0,1,23.8.756q2.969,0,5.886.027T35.521,0.81a1.764,1.764,0,0,1,1.4,1.458,1.321,1.321,0,0,1-.324,1,1.98,1.98,0,0,1-1.188.621H33.172q-1.107,0-2.241-.054,0.108,1.729.081,3.51T30.985,10.26V39.042q1.241-.053,2.187-0.027t2.187,0.027a2.031,2.031,0,0,1,1.134.783,1.3,1.3,0,0,1,.216,1,1.668,1.668,0,0,1-1.458,1.08h-11.5Z" fill="#333"/><path d="M41.374,2.16a1.361,1.361,0,0,1,.3-1.053A1.532,1.532,0,0,1,42.454.594a1.841,1.841,0,0,1,1.08,0,1.292,1.292,0,0,1,.81.756q2.592,5.076,5.022,9.747t4.914,9.369q1.89,3.564,3.537,7.1t3.591,7.209q0-5.454.027-10.476t0.027-9.288q0-4.265-.027-7.533T61.354,2.214a2.367,2.367,0,0,1,.54-1.3,1.385,1.385,0,0,1,1.08-.486,2.09,2.09,0,0,1,1.3.513,1.3,1.3,0,0,1,.54,1.269q0,0.324-.027,1.3T64.729,5.616Q64.7,6.75,64.7,7.8v8.586q0,3.321.027,6.858t0.027,7.533v9.072q0,0.486-.027,1.053a3.311,3.311,0,0,1-.189,1,1.749,1.749,0,0,1-.513.729,1.509,1.509,0,0,1-1,.3q-1.189,0-1.674-1.782-2-3.617-4.158-8.1t-4.752-9.342q-2.053-3.833-3.888-7.236T44.992,9.5q0.108,1.458.189,3.078t0.162,3.267q0.081,1.648.135,3.213t0.108,2.916q0.108,3.133.162,5.535t0.108,4.563q0.053,2.161.081,4.347t0.027,4.833a1.528,1.528,0,0,1-.567,1.3,1.971,1.971,0,0,1-1.215.432,1.751,1.751,0,0,1-1.107-.405,1.452,1.452,0,0,1-.513-1.215q0.053-2.592.054-4.86T42.562,32q-0.055-2.24-.162-4.536t-0.162-4.887q-0.108-2.321-.189-4.887T41.86,12.474q-0.109-2.645-.216-5.265T41.374,2.16Z" fill="#333"/><path d="M71.35,2.106a1.786,1.786,0,0,1,.27-0.891A1.466,1.466,0,0,1,72.16.756,3.465,3.465,0,0,1,73.942.648a24.224,24.224,0,0,1,7.506,1.4,14.354,14.354,0,0,1,5.643,3.726,16.541,16.541,0,0,1,3.51,6.264,28.455,28.455,0,0,1,1.161,8.964A34.185,34.185,0,0,1,90.6,29.862a19.332,19.332,0,0,1-3.213,6.669A13.836,13.836,0,0,1,82.2,40.689a15.453,15.453,0,0,1-7.02,1.323A6.587,6.587,0,0,1,73.24,41.8a1.718,1.718,0,0,1-.891-0.675A2.99,2.99,0,0,1,72,39.69q-0.109-1.62-.135-3.726t-0.054-4.428q-0.028-2.321-.054-4.806t-0.081-4.914q-0.108-5.022-.243-9.882T71.35,2.106Zm3.564,19.548q0.053,4.212.108,8.559t0.162,8.559a8.058,8.058,0,0,0,5.346-.729,11.73,11.73,0,0,0,4.185-3.78,19.99,19.99,0,0,0,2.754-6.021,27.1,27.1,0,0,0,1-7.452,25.006,25.006,0,0,0-.945-7.02,16.144,16.144,0,0,0-2.754-5.535A10.976,10.976,0,0,0,74.59,4q0,4.428.108,8.856T74.914,21.654Z" fill="#333"/><path d="M130.533,1.512a1.549,1.549,0,0,1,.891-0.891,1.636,1.636,0,0,1,1.053-.027,1.8,1.8,0,0,1,.945.81,1.474,1.474,0,0,1-.081,1.458q-2.377,4.752-4.833,9.558t-5.265,10.044q0,2.592-.027,4.833t-0.027,4.428q0,2.187-.027,4.455t-0.027,4.86a1.774,1.774,0,0,1-.486,1.269,1.685,1.685,0,0,1-1.08.567,1.641,1.641,0,0,1-1.161-.378,1.59,1.59,0,0,1-.567-1.35q0-2.539.027-4.833t0.027-4.536q0-2.24.027-4.509t0.027-4.806q-0.972-1.835-2.295-4.212T114.9,13.257q-1.431-2.619-2.781-5.346t-2.43-5.265a1.361,1.361,0,0,1,.054-1.134,2.032,2.032,0,0,1,.7-0.756,2,2,0,0,1,1.3-.216,1.187,1.187,0,0,1,.972.81q0.648,1.458,1.7,3.672t2.295,4.644q1.241,2.43,2.511,4.806t2.349,4.212q1.3-2.43,2.43-4.617T126.24,9.8q1.107-2.079,2.16-4.1T130.533,1.512Z" fill="#333"/><path d="M135.128,21.924q-0.055-2.106.054-4.536a37.019,37.019,0,0,1,.54-4.86,32.211,32.211,0,0,1,1.188-4.671,14.036,14.036,0,0,1,2.025-3.942,10.338,10.338,0,0,1,3.051-2.754A8.618,8.618,0,0,1,146.252.054a8.391,8.391,0,0,1,8.181,5.1q2.511,5.158,2.457,15.2a65.172,65.172,0,0,1-.783,10.314,21.317,21.317,0,0,1-2.214,6.831,9.391,9.391,0,0,1-3.726,3.807A11.094,11.094,0,0,1,144.9,42.5a5.786,5.786,0,0,1-4.4-1.944,15.52,15.52,0,0,1-3-4.968,31.378,31.378,0,0,1-1.755-6.669A50.662,50.662,0,0,1,135.128,21.924Zm11.448-18.63a4.823,4.823,0,0,0-3.294.918,8.037,8.037,0,0,0-2.241,2.727,15.781,15.781,0,0,0-1.377,3.834,39.611,39.611,0,0,0-.729,4.212,38.267,38.267,0,0,0-.27,3.861q-0.028,1.782-.027,2.808a54.345,54.345,0,0,0,.486,6.426,30.654,30.654,0,0,0,1.269,5.67,13.32,13.32,0,0,0,2.052,4.023,3.5,3.5,0,0,0,2.781,1.539,7.213,7.213,0,0,0,3.321-.756,6.405,6.405,0,0,0,2.592-2.808,18.545,18.545,0,0,0,1.7-5.7,64.925,64.925,0,0,0,.648-9.477q0.053-8.586-1.647-12.825T146.575,3.294Z" fill="#333"/><path d="M172.571,39.69a5.4,5.4,0,0,0,4.077-1.485,9.23,9.23,0,0,0,2.133-3.834,21.689,21.689,0,0,0,.837-5.184q0.135-2.834.135-5.589,0.053-5.075-.054-10.827T179.537,1.944a1.689,1.689,0,0,1,.486-1,1.846,1.846,0,0,1,.81-0.459A1.958,1.958,0,0,1,182.075.7a1.846,1.846,0,0,1,.918,1.134q0,2.539.054,5.454t0.081,5.913q0.026,3,.054,5.94t0.027,5.481a49.436,49.436,0,0,1-.54,7.641,18.868,18.868,0,0,1-1.782,5.805,9.309,9.309,0,0,1-3.24,3.645,8.507,8.507,0,0,1-4.968,1.161,10.967,10.967,0,0,1-4.158-.81,8.169,8.169,0,0,1-2.862-2.025,9.276,9.276,0,0,1-1.755-2.889,18.806,18.806,0,0,1-.945-3.429,30.863,30.863,0,0,1-.432-3.7q-0.109-1.89-.108-3.618-0.054-6.264-.108-12.2t0.054-12.15a1.662,1.662,0,0,1,.54-1.107A1.8,1.8,0,0,1,163.877.54a1.751,1.751,0,0,1,1.134.3,2.117,2.117,0,0,1,.81,1.107q-0.054,3.078-.054,6.021V13.8q0,2.889.027,5.832t0.081,6.075q0.053,2,.189,4.428a20.275,20.275,0,0,0,.756,4.563,8.583,8.583,0,0,0,1.971,3.564A4.947,4.947,0,0,0,172.571,39.69Z" fill="#333"/><path d="M189.532,41.094q0-4.589.027-9.153t0.027-9.207q0-4.644-.027-9.531T189.478,3.024q0-.377.027-0.837a2.986,2.986,0,0,1,.162-0.837A1.215,1.215,0,0,1,190.1.756,1.514,1.514,0,0,1,190.99.54q1.62,0.109,3.753.351a39.032,39.032,0,0,1,4.617.837,11.41,11.41,0,0,1,5.913,3.456,10.972,10.972,0,0,1,2.619,6.912,10.951,10.951,0,0,1-.378,3.591,9.557,9.557,0,0,1-1.7,3.321A12.874,12.874,0,0,1,202.6,21.87a17.807,17.807,0,0,1-4.86,2.106q1.241,2.053,2.484,4t2.511,3.942q1.268,2,2.619,4.077t2.808,4.455a1.963,1.963,0,0,1,.324,1,1.665,1.665,0,0,1-.216.837,1.405,1.405,0,0,1-1.161.648,1.539,1.539,0,0,1-1.377-.81q-2.917-4.159-5.751-8.532t-5.589-8.91a3.6,3.6,0,0,1-.729.135q-0.352.028-.729,0.081,0,2.754.027,5.292t0,4.671q-0.028,2.134-.054,3.753T192.826,41.2a1.619,1.619,0,0,1-1.512,1.62,1.725,1.725,0,0,1-1.215-.378A1.59,1.59,0,0,1,189.532,41.094Zm3.294-37.368q0,4,.027,8.64t0.081,9.4a23.47,23.47,0,0,0,5.643-1.323,10.913,10.913,0,0,0,3.564-2.16,6.95,6.95,0,0,0,1.836-2.781,10.018,10.018,0,0,0,.513-3.24,7.973,7.973,0,0,0-.4-2.484,7.051,7.051,0,0,0-1.269-2.3,8.317,8.317,0,0,0-2.241-1.863,11.422,11.422,0,0,0-3.321-1.242q-0.919-.162-2.052-0.351T192.826,3.726Z" fill="#333"/><path d="M247.257,6.588a1.513,1.513,0,0,1-.216,1.269,1.753,1.753,0,0,1-.972.675,1.654,1.654,0,0,1-1.242-.054,1.4,1.4,0,0,1-.81-1.134,5.139,5.139,0,0,0-1.7-3.1,5.315,5.315,0,0,0-3.375-1.161,8.105,8.105,0,0,0-2.916.378,6.253,6.253,0,0,0-2.079,1.161,4.914,4.914,0,0,0-1.269,1.674,4.683,4.683,0,0,0-.432,1.971,7.782,7.782,0,0,0,1.89,4.671,55.175,55.175,0,0,0,5.292,5.751q2.592,2.484,4.32,4.428a25.954,25.954,0,0,1,2.781,3.672,12.66,12.66,0,0,1,1.485,3.4,12.8,12.8,0,0,1,.378,3.564,9.992,9.992,0,0,1-.891,4.158,7.979,7.979,0,0,1-2.241,2.835,9.157,9.157,0,0,1-3.267,1.62,14.9,14.9,0,0,1-3.969.513,10.748,10.748,0,0,1-3.942-.716,10.256,10.256,0,0,1-3.213-1.971,8.94,8.94,0,0,1-2.133-2.9,8.367,8.367,0,0,1-.756-3.537,1.436,1.436,0,0,1,.432-1.242,1.908,1.908,0,0,1,1.134-.486,1.775,1.775,0,0,1,1.161.324,1.6,1.6,0,0,1,.675,1.188,6.277,6.277,0,0,0,1.917,4.482,6.753,6.753,0,0,0,4.725,1.782,7.37,7.37,0,0,0,5.1-1.512,5.74,5.74,0,0,0,1.809-4.59,9.962,9.962,0,0,0-.486-3.213,11.982,11.982,0,0,0-1.458-2.862,22.584,22.584,0,0,0-2.43-2.943q-1.458-1.511-3.4-3.456t-3.483-3.591a31.315,31.315,0,0,1-2.619-3.159,13.627,13.627,0,0,1-1.647-2.97,8.268,8.268,0,0,1-.567-3.024,9.327,9.327,0,0,1,.54-3.1,7.335,7.335,0,0,1,1.7-2.727A8.491,8.491,0,0,1,234.108.729,12.4,12.4,0,0,1,238.617,0a9.9,9.9,0,0,1,5.616,1.513A7.677,7.677,0,0,1,247.257,6.588Z" fill="#333"/><path d="M271.908,2.376a1.717,1.717,0,0,1,.459,1.08,2,2,0,0,1-.243,1.08,1.684,1.684,0,0,1-.891.81,1.025,1.025,0,0,1-1.107-.27A5.954,5.954,0,0,0,267.8,3.807a9.211,9.211,0,0,0-2.754-.459,7.5,7.5,0,0,0-4.968,1.62,10.944,10.944,0,0,0-3.051,4.239,22.106,22.106,0,0,0-1.512,5.967,49.567,49.567,0,0,0-.351,6.75q0.163,8.64,2.565,12.987t6.561,4.347a12.938,12.938,0,0,0,3.24-.378,6.063,6.063,0,0,0,2.754-1.674,1.67,1.67,0,0,1,1.35-.486,1.581,1.581,0,0,1,1.026.594,1.808,1.808,0,0,1-.27,2.376,8.048,8.048,0,0,1-3.24,2.106,14.476,14.476,0,0,1-4.86.7,9.733,9.733,0,0,1-5.508-1.539,12.276,12.276,0,0,1-3.888-4.32,22.648,22.648,0,0,1-2.349-6.588,44.01,44.01,0,0,1-.837-8.343,46.2,46.2,0,0,1,.621-8.37,22.753,22.753,0,0,1,2.241-6.885,12.667,12.667,0,0,1,4.077-4.644,10.575,10.575,0,0,1,6.075-1.7A14.724,14.724,0,0,1,268.938.7,6.337,6.337,0,0,1,271.908,2.376Z" fill="#333"/><path d="M295.1,2.106a2.015,2.015,0,0,1,.594-1.134,1.507,1.507,0,0,1,1.026-.378,1.725,1.725,0,0,1,1.026.351,1.962,1.962,0,0,1,.7,1.053q0,4.969.081,9.747t0.189,9.531q0.108,4.752.189,9.558t0.081,9.774a1.71,1.71,0,0,1-.594,1.3,1.793,1.793,0,0,1-1.134.432,1.545,1.545,0,0,1-1.053-.405,1.884,1.884,0,0,1-.567-1.215q-0.054-4.751-.108-9.5t-0.162-9.5q-3.726-.053-7.128-0.054t-7.128.108a6.315,6.315,0,0,0-.027,1.35q0.026,1.351.054,3.375t0.054,4.455q0.026,2.429.054,4.617t0.054,3.753q0.026,1.566.027,1.944a1.71,1.71,0,0,1-.594,1.3,1.863,1.863,0,0,1-1.188.432,1.545,1.545,0,0,1-1.053-.405,1.884,1.884,0,0,1-.567-1.215q-0.109-3.187-.135-5.805t-0.027-5.076q0-2.457-.054-5.049T277.6,19.656q0-.972-0.027-3.1t-0.027-4.725q0-2.592.027-5.292t0.081-4.86A1.087,1.087,0,0,1,278.22.783a2.177,2.177,0,0,1,1.107-.3A2.242,2.242,0,0,1,280.6.864,1.165,1.165,0,0,1,281.109,2Q281,5.725,281,9.882v8.532q3.941-.053,7.29-0.054t7.02,0.054q-0.109-4.319-.162-8.127T295.1,2.106Z" fill="#333"/><path d="M304.108,21.924q-0.055-2.106.054-4.536a37.019,37.019,0,0,1,.54-4.86,32.211,32.211,0,0,1,1.188-4.671,14.036,14.036,0,0,1,2.025-3.942,10.338,10.338,0,0,1,3.051-2.754A8.618,8.618,0,0,1,315.232.054a8.391,8.391,0,0,1,8.181,5.1q2.511,5.158,2.457,15.2a65.172,65.172,0,0,1-.783,10.314,21.317,21.317,0,0,1-2.214,6.831,9.391,9.391,0,0,1-3.726,3.807,11.094,11.094,0,0,1-5.265,1.188,5.786,5.786,0,0,1-4.4-1.944,15.52,15.52,0,0,1-3-4.968,31.378,31.378,0,0,1-1.755-6.669A50.662,50.662,0,0,1,304.108,21.924Zm11.448-18.63a4.823,4.823,0,0,0-3.294.918,8.037,8.037,0,0,0-2.241,2.727,15.781,15.781,0,0,0-1.377,3.834,39.611,39.611,0,0,0-.729,4.212,38.267,38.267,0,0,0-.27,3.861q-0.028,1.782-.027,2.808a54.345,54.345,0,0,0,.486,6.426,30.654,30.654,0,0,0,1.269,5.67,13.32,13.32,0,0,0,2.052,4.023,3.5,3.5,0,0,0,2.781,1.539,7.213,7.213,0,0,0,3.321-.756,6.405,6.405,0,0,0,2.592-2.808,18.545,18.545,0,0,0,1.7-5.7,64.925,64.925,0,0,0,.648-9.477q0.053-8.586-1.647-12.825T315.555,3.294Z" fill="#333"/><path d="M330.546,21.924q-0.055-2.106.054-4.536a37.019,37.019,0,0,1,.54-4.86,32.211,32.211,0,0,1,1.188-4.671,14.036,14.036,0,0,1,2.025-3.942A10.338,10.338,0,0,1,337.4,1.161,8.618,8.618,0,0,1,341.67.054a8.391,8.391,0,0,1,8.181,5.1q2.511,5.158,2.457,15.2a65.172,65.172,0,0,1-.783,10.314,21.317,21.317,0,0,1-2.214,6.831,9.391,9.391,0,0,1-3.726,3.807A11.094,11.094,0,0,1,340.32,42.5a5.786,5.786,0,0,1-4.4-1.944,15.52,15.52,0,0,1-3-4.968,31.378,31.378,0,0,1-1.755-6.669A50.662,50.662,0,0,1,330.546,21.924Zm11.448-18.63a4.823,4.823,0,0,0-3.294.918,8.037,8.037,0,0,0-2.241,2.727,15.781,15.781,0,0,0-1.377,3.834,39.611,39.611,0,0,0-.729,4.212,38.267,38.267,0,0,0-.27,3.861q-0.028,1.782-.027,2.808a54.345,54.345,0,0,0,.486,6.426,30.654,30.654,0,0,0,1.269,5.67,13.32,13.32,0,0,0,2.052,4.023,3.5,3.5,0,0,0,2.781,1.539,7.213,7.213,0,0,0,3.321-.756,6.405,6.405,0,0,0,2.592-2.808,18.545,18.545,0,0,0,1.7-5.7,64.925,64.925,0,0,0,.648-9.477q0.053-8.586-1.647-12.825T341.993,3.294Z" fill="#333"/><path d="M357.95,1.62a1.7,1.7,0,0,1,.486-1,1.855,1.855,0,0,1,.81-0.459,1.879,1.879,0,0,1,2.106,1.35q-0.108,4.59-.081,9.045t0.054,8.91q0.026,4.455,0,8.991T361.137,37.8a2.843,2.843,0,0,1-.027.324,0.888,0.888,0,0,0,.054.432,0.771,0.771,0,0,0,.351.378,1.744,1.744,0,0,0,.864.162q3.078,0.108,6.534.027t6.534-.135a1.135,1.135,0,0,1,.945.451,1.938,1.938,0,0,1,.4,1.033,1.471,1.471,0,0,1-.243.981,1.167,1.167,0,0,1-1.053.451q-1.188.053-3.24,0.081l-4.266.054q-2.215.027-4.32,0.027h-3.348a3.635,3.635,0,0,1-2.079-.477,2.11,2.11,0,0,1-.621-1.91q0.108-3.769.135-8.359t0.027-9.558q0-4.967.027-10.1T357.95,1.62Z" fill="#333"/><path d="M382.942,43.308a3,3,0,0,1-2.43-1.026,2.528,2.528,0,0,1-.594-2.268,3.091,3.091,0,0,1,1-1.782,3.313,3.313,0,0,1,1.809-.7,2.725,2.725,0,0,1,2.187.783,2.945,2.945,0,0,1,.189,4.131A2.721,2.721,0,0,1,382.942,43.308Z" fill="#333"/><path d="M422.2,6.588a1.513,1.513,0,0,1-.216,1.269,1.753,1.753,0,0,1-.972.675,1.654,1.654,0,0,1-1.242-.054,1.4,1.4,0,0,1-.81-1.134,5.139,5.139,0,0,0-1.7-3.1,5.315,5.315,0,0,0-3.375-1.161,8.105,8.105,0,0,0-2.916.378,6.253,6.253,0,0,0-2.079,1.161,4.914,4.914,0,0,0-1.269,1.674,4.683,4.683,0,0,0-.432,1.971,7.782,7.782,0,0,0,1.89,4.671,55.175,55.175,0,0,0,5.292,5.751q2.592,2.484,4.32,4.428a25.954,25.954,0,0,1,2.781,3.672,12.66,12.66,0,0,1,1.485,3.4,12.8,12.8,0,0,1,.378,3.564,9.992,9.992,0,0,1-.891,4.158,7.979,7.979,0,0,1-2.241,2.835,9.157,9.157,0,0,1-3.267,1.62,14.9,14.9,0,0,1-3.969.513,10.748,10.748,0,0,1-3.942-.716,10.256,10.256,0,0,1-3.213-1.971,8.94,8.94,0,0,1-2.133-2.9,8.367,8.367,0,0,1-.756-3.537,1.436,1.436,0,0,1,.432-1.242,1.908,1.908,0,0,1,1.134-.486,1.775,1.775,0,0,1,1.161.324,1.6,1.6,0,0,1,.675,1.188,6.277,6.277,0,0,0,1.917,4.482,6.753,6.753,0,0,0,4.725,1.782,7.37,7.37,0,0,0,5.1-1.512,5.74,5.74,0,0,0,1.809-4.59,9.962,9.962,0,0,0-.486-3.213,11.982,11.982,0,0,0-1.458-2.862,22.584,22.584,0,0,0-2.43-2.943q-1.458-1.511-3.4-3.456t-3.483-3.591A31.315,31.315,0,0,1,406,14.472a13.627,13.627,0,0,1-1.647-2.97,8.268,8.268,0,0,1-.567-3.024,9.327,9.327,0,0,1,.54-3.1,7.335,7.335,0,0,1,1.7-2.727A8.491,8.491,0,0,1,409.05.729,12.4,12.4,0,0,1,413.559,0a9.9,9.9,0,0,1,5.616,1.513A7.677,7.677,0,0,1,422.2,6.588Z" fill="#333"/><path d="M445.267,2.106a2.008,2.008,0,0,1,.594-1.134,1.51,1.51,0,0,1,1.027-.378,1.725,1.725,0,0,1,1.025.351,1.96,1.96,0,0,1,.7,1.053q0,4.969.082,9.747t0.188,9.531q0.108,4.752.189,9.558t0.082,9.774a1.713,1.713,0,0,1-.594,1.3,1.8,1.8,0,0,1-1.135.432,1.542,1.542,0,0,1-1.053-.405,1.875,1.875,0,0,1-.566-1.215q-0.056-4.751-.109-9.5t-0.162-9.5q-3.727-.053-7.127-0.054t-7.128.108a6.315,6.315,0,0,0-.027,1.35q0.026,1.351.054,3.375t0.054,4.455q0.026,2.429.054,4.617t0.054,3.753q0.026,1.566.027,1.944a1.71,1.71,0,0,1-.594,1.3,1.863,1.863,0,0,1-1.188.432,1.545,1.545,0,0,1-1.053-.405,1.884,1.884,0,0,1-.567-1.215q-0.109-3.187-.135-5.805t-0.027-5.076q0-2.457-.054-5.049t-0.108-5.778q0-.972-0.027-3.1t-0.027-4.725q0-2.592.027-5.292t0.081-4.86a1.087,1.087,0,0,1,.567-0.891,2.177,2.177,0,0,1,1.107-.3,2.242,2.242,0,0,1,1.269.378A1.165,1.165,0,0,1,431.282,2q-0.109,3.727-.108,7.884v8.532q3.941-.053,7.29-0.054t7.021,0.054q-0.108-4.319-.162-8.127T445.267,2.106Z" fill="#333"/><path d="M463.664,1.944a1.5,1.5,0,0,1,1.3-1.4,1.283,1.283,0,0,1,1.053-.081,1.411,1.411,0,0,1,.783.891q1.4,4.159,2.7,9.126t2.538,10.233q1.241,5.265,2.484,10.476t2.537,9.8a1.446,1.446,0,0,1-.107,1.242,1.549,1.549,0,0,1-.864.648,1.733,1.733,0,0,1-1.269-.054,1.678,1.678,0,0,1-.945-1.188q-0.973-3.24-1.755-6.21T470.684,29.7H459.939q-0.757,2.592-1.458,5.508t-1.458,6.48a1.292,1.292,0,0,1-.945,1.134,1.945,1.945,0,0,1-1.431-.108,1.683,1.683,0,0,1-.7-0.675,1.43,1.43,0,0,1-.108-1.107q1.134-5.4,2.43-10.017t2.593-9.126q1.295-4.508,2.511-9.288T463.664,1.944Zm1.944,6.426q-0.486,2.7-1.054,5.049t-1.16,4.509q-0.6,2.161-1.242,4.266t-1.3,4.266q0.917,0,2.052.027t2.349,0.027h4.671q-1.188-5.075-2.159-9.5T465.609,8.37Z" fill="#333"/><path d="M482.084,41.094q0-4.589.027-9.153t0.026-9.207q0-4.644-.026-9.531T482.031,3.024c0-.251.008-0.531,0.026-0.837a3.039,3.039,0,0,1,.162-0.837,1.22,1.22,0,0,1,.433-0.594A1.512,1.512,0,0,1,483.542.54q1.62,0.109,3.753.351a39.032,39.032,0,0,1,4.617.837,11.41,11.41,0,0,1,5.913,3.456,10.978,10.978,0,0,1,2.619,6.912,10.991,10.991,0,0,1-.378,3.591,9.567,9.567,0,0,1-1.7,3.321,12.889,12.889,0,0,1-3.213,2.862,17.817,17.817,0,0,1-4.86,2.106q1.242,2.053,2.484,4t2.511,3.942q1.269,2,2.619,4.077t2.808,4.455a1.968,1.968,0,0,1,.324,1,1.665,1.665,0,0,1-.216.837,1.407,1.407,0,0,1-1.161.648,1.539,1.539,0,0,1-1.377-.81q-2.917-4.159-5.751-8.532t-5.589-8.91a3.624,3.624,0,0,1-.729.135q-0.352.028-.729,0.081,0,2.754.026,5.292t0,4.671q-0.028,2.134-.054,3.753T485.378,41.2a1.62,1.62,0,0,1-1.512,1.62,1.723,1.723,0,0,1-1.215-.378A1.59,1.59,0,0,1,482.084,41.094Zm3.294-37.368q0,4,.027,8.64t0.081,9.4a23.472,23.472,0,0,0,5.643-1.323,10.926,10.926,0,0,0,3.564-2.16A6.955,6.955,0,0,0,496.53,15.5a10.018,10.018,0,0,0,.513-3.24,7.959,7.959,0,0,0-.405-2.484,7.041,7.041,0,0,0-1.269-2.3,8.31,8.31,0,0,0-2.241-1.863,11.425,11.425,0,0,0-3.321-1.242q-0.918-.162-2.052-0.351T485.378,3.726Z" fill="#333"/><path d="M506.438,24.678L506.329,5.832V5.13q0-.486-0.027-1c-0.019-.342-0.026-0.675-0.026-1V2.43a2.029,2.029,0,0,1,.405-1.134A1.224,1.224,0,0,1,507.95.81q1.673,0.055,4.077.027l4.725-.054q2.322-.026,4.186,0a20.679,20.679,0,0,1,2.511.135,0.856,0.856,0,0,1,.567.486,1.676,1.676,0,0,1,.242.81,1.328,1.328,0,0,1-.594,1.35,3.086,3.086,0,0,1-1.3.27h-2.322q-1.674,0-3.591-.027t-3.591-.027h-3.348l0.27,15.714q2.537,0.054,4.806.054h3.915q1.972,0,3.052-.108a2.527,2.527,0,0,1,.485-0.054h0.811a0.838,0.838,0,0,1,.7.54,2.07,2.07,0,0,1,.216.756,1.665,1.665,0,0,1-.433,1.269,1.8,1.8,0,0,1-1.134.459c-0.181,0-.5.009-0.945,0.027s-0.98.037-1.593,0.054-1.287.027-2.024,0.027h-7.911l0.054,9.72V37.8a1.229,1.229,0,0,0,.271,1.053,2.036,2.036,0,0,0,.863.135h8.748l4.645-.108a0.853,0.853,0,0,1,.918.513,2.315,2.315,0,0,1,.27.945,1.929,1.929,0,0,1-.378,1.134,1.515,1.515,0,0,1-1.187.378q-2.054.053-3.861,0.081t-3.564.027q-1.755,0-3.591-.027t-3.834-.027a3.317,3.317,0,0,1-1.862-.513,1.769,1.769,0,0,1-.783-1.593V24.678Z" fill="#333"/><path d="M563.029,1.512a1.547,1.547,0,0,1,.891-0.891,1.635,1.635,0,0,1,1.053-.027,1.8,1.8,0,0,1,.945.81,1.474,1.474,0,0,1-.081,1.458Q563.459,7.614,561,12.42t-5.265,10.044q0,2.592-.027,4.833t-0.027,4.428q0,2.187-.026,4.455t-0.027,4.86a1.774,1.774,0,0,1-.486,1.269,1.682,1.682,0,0,1-1.079.567A1.639,1.639,0,0,1,552.9,42.5a1.59,1.59,0,0,1-.567-1.35q0-2.539.027-4.833t0.026-4.536q0-2.24.027-4.509t0.027-4.806q-0.973-1.835-2.295-4.212T547.4,13.257q-1.433-2.619-2.781-5.346t-2.431-5.265a1.363,1.363,0,0,1,.055-1.134,2.024,2.024,0,0,1,.7-0.756,2,2,0,0,1,1.3-.216,1.188,1.188,0,0,1,.972.81q0.647,1.458,1.7,3.672T549.2,9.666q1.242,2.43,2.511,4.806t2.35,4.212q1.295-2.43,2.43-4.617T558.736,9.8q1.106-2.079,2.16-4.1T563.029,1.512Z" fill="#333"/><path d="M567.622,21.924q-0.054-2.106.055-4.536a36.854,36.854,0,0,1,.54-4.86A32.022,32.022,0,0,1,569.4,7.857a14.036,14.036,0,0,1,2.025-3.942,10.326,10.326,0,0,1,3.051-2.754A8.615,8.615,0,0,1,578.746.054a8.392,8.392,0,0,1,8.182,5.1q2.511,5.158,2.457,15.2a65.108,65.108,0,0,1-.783,10.314,21.317,21.317,0,0,1-2.214,6.831,9.389,9.389,0,0,1-3.727,3.807A11.091,11.091,0,0,1,577.4,42.5a5.787,5.787,0,0,1-4.4-1.944,15.538,15.538,0,0,1-3-4.968,31.407,31.407,0,0,1-1.755-6.669A50.89,50.89,0,0,1,567.622,21.924Zm11.448-18.63a4.823,4.823,0,0,0-3.294.918,8.049,8.049,0,0,0-2.241,2.727,15.822,15.822,0,0,0-1.377,3.834,39.731,39.731,0,0,0-.729,4.212,38.276,38.276,0,0,0-.271,3.861q-0.028,1.782-.026,2.808a54.345,54.345,0,0,0,.485,6.426,30.692,30.692,0,0,0,1.27,5.67,13.331,13.331,0,0,0,2.052,4.023,3.5,3.5,0,0,0,2.781,1.539,7.208,7.208,0,0,0,3.32-.756,6.4,6.4,0,0,0,2.593-2.808,18.561,18.561,0,0,0,1.7-5.7,64.778,64.778,0,0,0,.648-9.477q0.053-8.586-1.646-12.825T579.071,3.294Z" fill="#333"/><path d="M605.067,39.69a5.4,5.4,0,0,0,4.077-1.485,9.224,9.224,0,0,0,2.133-3.834,21.689,21.689,0,0,0,.837-5.184q0.135-2.834.135-5.589,0.054-5.075-.054-10.827T612.033,1.944a1.7,1.7,0,0,1,.486-1,1.844,1.844,0,0,1,.81-0.459A1.958,1.958,0,0,1,614.571.7a1.846,1.846,0,0,1,.918,1.134q0,2.539.054,5.454t0.081,5.913q0.028,3,.055,5.94t0.026,5.481a49.436,49.436,0,0,1-.54,7.641,18.882,18.882,0,0,1-1.781,5.805,9.318,9.318,0,0,1-3.24,3.645,8.5,8.5,0,0,1-4.968,1.161,10.968,10.968,0,0,1-4.158-.81,8.169,8.169,0,0,1-2.862-2.025,9.267,9.267,0,0,1-1.755-2.889,18.885,18.885,0,0,1-.945-3.429,30.863,30.863,0,0,1-.432-3.7q-0.108-1.89-.108-3.618-0.054-6.264-.107-12.2t0.054-12.15A1.666,1.666,0,0,1,595.4.945,1.8,1.8,0,0,1,596.372.54a1.752,1.752,0,0,1,1.135.3,2.116,2.116,0,0,1,.81,1.107q-0.054,3.078-.054,6.021V13.8q0,2.889.026,5.832T598.37,25.7q0.054,2,.189,4.428a20.248,20.248,0,0,0,.756,4.563,8.577,8.577,0,0,0,1.971,3.564A4.948,4.948,0,0,0,605.067,39.69Z" fill="#333"/><path d="M622.028,41.094q0-4.589.027-9.153t0.026-9.207q0-4.644-.026-9.531T621.974,3.024c0-.251.008-0.531,0.026-0.837a3.039,3.039,0,0,1,.162-0.837A1.22,1.22,0,0,1,622.6.756,1.512,1.512,0,0,1,623.486.54q1.62,0.109,3.753.351a39.032,39.032,0,0,1,4.617.837,11.41,11.41,0,0,1,5.913,3.456,10.978,10.978,0,0,1,2.619,6.912,10.991,10.991,0,0,1-.378,3.591,9.567,9.567,0,0,1-1.7,3.321A12.889,12.889,0,0,1,635.1,21.87a17.817,17.817,0,0,1-4.86,2.106q1.242,2.053,2.484,4t2.511,3.942q1.269,2,2.619,4.077t2.808,4.455a1.968,1.968,0,0,1,.324,1,1.665,1.665,0,0,1-.216.837,1.407,1.407,0,0,1-1.161.648,1.539,1.539,0,0,1-1.377-.81q-2.917-4.159-5.751-8.532t-5.589-8.91a3.624,3.624,0,0,1-.729.135q-0.352.028-.729,0.081,0,2.754.026,5.292t0,4.671q-0.028,2.134-.054,3.753T625.322,41.2a1.62,1.62,0,0,1-1.512,1.62,1.723,1.723,0,0,1-1.215-.378A1.59,1.59,0,0,1,622.028,41.094Zm3.294-37.368q0,4,.027,8.64t0.081,9.4a23.472,23.472,0,0,0,5.643-1.323,10.926,10.926,0,0,0,3.564-2.16,6.955,6.955,0,0,0,1.836-2.781,10.018,10.018,0,0,0,.513-3.24,7.959,7.959,0,0,0-.405-2.484,7.041,7.041,0,0,0-1.269-2.3,8.31,8.31,0,0,0-2.241-1.863,11.425,11.425,0,0,0-3.321-1.242q-0.918-.162-2.052-0.351T625.322,3.726Z" fill="#333"/><path d="M679.752,6.588a1.511,1.511,0,0,1-.216,1.269,1.751,1.751,0,0,1-.972.675,1.655,1.655,0,0,1-1.242-.054,1.4,1.4,0,0,1-.811-1.134,5.135,5.135,0,0,0-1.7-3.1,5.317,5.317,0,0,0-3.375-1.161,8.1,8.1,0,0,0-2.916.378,6.251,6.251,0,0,0-2.079,1.161,4.922,4.922,0,0,0-1.27,1.674,4.69,4.69,0,0,0-.432,1.971,7.782,7.782,0,0,0,1.89,4.671,55.284,55.284,0,0,0,5.292,5.751q2.593,2.484,4.32,4.428a26.035,26.035,0,0,1,2.781,3.672,11.976,11.976,0,0,1,1.862,6.966A9.992,9.992,0,0,1,680,37.908a7.98,7.98,0,0,1-2.241,2.835,9.146,9.146,0,0,1-3.267,1.62,14.9,14.9,0,0,1-3.969.513,10.749,10.749,0,0,1-3.942-.716,10.251,10.251,0,0,1-3.213-1.971,8.925,8.925,0,0,1-2.133-2.9,8.36,8.36,0,0,1-.756-3.537,1.433,1.433,0,0,1,.432-1.242,1.91,1.91,0,0,1,1.134-.486,1.776,1.776,0,0,1,1.161.324,1.6,1.6,0,0,1,.675,1.188,6.281,6.281,0,0,0,1.917,4.482,6.753,6.753,0,0,0,4.726,1.782,7.367,7.367,0,0,0,5.1-1.512,5.738,5.738,0,0,0,1.809-4.59,9.949,9.949,0,0,0-.485-3.213,12,12,0,0,0-1.458-2.862,22.657,22.657,0,0,0-2.43-2.943q-1.459-1.511-3.4-3.456t-3.483-3.591a31.447,31.447,0,0,1-2.619-3.159,13.665,13.665,0,0,1-1.646-2.97,8.269,8.269,0,0,1-.567-3.024,9.316,9.316,0,0,1,.54-3.1,7.328,7.328,0,0,1,1.7-2.727A8.484,8.484,0,0,1,666.6.729,12.39,12.39,0,0,1,671.113,0a9.906,9.906,0,0,1,5.616,1.513A7.676,7.676,0,0,1,679.752,6.588Z" fill="#333"/><path d="M684.991,4a2.07,2.07,0,0,1-1.728-.55,1.66,1.66,0,0,1-.486-1.263,1.5,1.5,0,0,1,.433-0.934,1.521,1.521,0,0,1,1.134-.385q4.8-.108,10.071-0.108t10.07,0.108a1.24,1.24,0,0,1,1,.413,1.706,1.706,0,0,1,.405.962,1.725,1.725,0,0,1-.324,1.154,1.4,1.4,0,0,1-1.242.549h-8.693q0.053,4.374.135,9.342t0.188,9.18q0.108,4.807,0,9.342t-0.216,9.4a1.692,1.692,0,0,1-.647,1.35,1.817,1.817,0,0,1-1.242.378,1.683,1.683,0,0,1-1.026-.459,1.9,1.9,0,0,1-.54-1.161q0.108-4.805.217-9.342t0-9.342q-0.056-2.106-.136-4.482t-0.135-4.806q-0.054-2.43-.081-4.833t-0.027-4.563q-1.835.054-3.645,0.027T684.991,4Z" fill="#333"/><path d="M707.594,21.924q-0.054-2.106.055-4.536a36.854,36.854,0,0,1,.54-4.86,32.022,32.022,0,0,1,1.188-4.671A14.036,14.036,0,0,1,711.4,3.915a10.326,10.326,0,0,1,3.051-2.754A8.615,8.615,0,0,1,718.718.054a8.392,8.392,0,0,1,8.182,5.1q2.511,5.158,2.457,15.2a65.108,65.108,0,0,1-.783,10.314A21.317,21.317,0,0,1,726.36,37.5a9.389,9.389,0,0,1-3.727,3.807,11.091,11.091,0,0,1-5.265,1.188,5.787,5.787,0,0,1-4.4-1.944,15.538,15.538,0,0,1-3-4.968,31.407,31.407,0,0,1-1.755-6.669A50.89,50.89,0,0,1,707.594,21.924Zm11.448-18.63a4.823,4.823,0,0,0-3.294.918,8.049,8.049,0,0,0-2.241,2.727,15.822,15.822,0,0,0-1.377,3.834,39.731,39.731,0,0,0-.729,4.212,38.276,38.276,0,0,0-.271,3.861q-0.028,1.782-.026,2.808a54.345,54.345,0,0,0,.485,6.426,30.692,30.692,0,0,0,1.27,5.67,13.331,13.331,0,0,0,2.052,4.023,3.5,3.5,0,0,0,2.781,1.539,7.208,7.208,0,0,0,3.32-.756,6.4,6.4,0,0,0,2.593-2.808,18.561,18.561,0,0,0,1.7-5.7,64.778,64.778,0,0,0,.648-9.477q0.053-8.586-1.646-12.825T719.042,3.294Z" fill="#333"/><path d="M734.962,41.094q0-4.589.027-9.153t0.026-9.207q0-4.644-.026-9.531T734.909,3.024c0-.251.008-0.531,0.026-0.837A3.039,3.039,0,0,1,735.1,1.35,1.22,1.22,0,0,1,735.53.756,1.512,1.512,0,0,1,736.42.54q1.62,0.109,3.753.351a39.032,39.032,0,0,1,4.617.837A11.41,11.41,0,0,1,750.7,5.184a10.978,10.978,0,0,1,2.619,6.912,10.991,10.991,0,0,1-.378,3.591,9.567,9.567,0,0,1-1.7,3.321,12.889,12.889,0,0,1-3.213,2.862,17.817,17.817,0,0,1-4.86,2.106q1.242,2.053,2.484,4t2.511,3.942q1.269,2,2.619,4.077t2.808,4.455a1.968,1.968,0,0,1,.324,1,1.665,1.665,0,0,1-.216.837,1.407,1.407,0,0,1-1.161.648,1.539,1.539,0,0,1-1.377-.81q-2.917-4.159-5.751-8.532t-5.589-8.91a3.624,3.624,0,0,1-.729.135q-0.352.028-.729,0.081,0,2.754.026,5.292t0,4.671q-0.028,2.134-.054,3.753T738.256,41.2a1.62,1.62,0,0,1-1.512,1.62,1.723,1.723,0,0,1-1.215-.378A1.59,1.59,0,0,1,734.962,41.094Zm3.294-37.368q0,4,.027,8.64t0.081,9.4a23.472,23.472,0,0,0,5.643-1.323,10.926,10.926,0,0,0,3.564-2.16,6.955,6.955,0,0,0,1.836-2.781,10.018,10.018,0,0,0,.513-3.24,7.959,7.959,0,0,0-.405-2.484,7.041,7.041,0,0,0-1.269-2.3,8.31,8.31,0,0,0-2.241-1.863,11.425,11.425,0,0,0-3.321-1.242q-0.918-.162-2.052-0.351T738.256,3.726Z" fill="#333"/><path d="M759.958,41.9a1.976,1.976,0,0,1-1.3-.54,1.236,1.236,0,0,1-.324-0.972,1.322,1.322,0,0,1,.486-0.864,2.037,2.037,0,0,1,1.241-.432q1.08,0,1.836-.027t1.836-.027q0-8.477.108-17.388T763.63,3.834H759.9a1.826,1.826,0,0,1-1.241-.567,1.532,1.532,0,0,1-.378-1,1.4,1.4,0,0,1,.432-1.026,1.943,1.943,0,0,1,1.3-.486q2.969,0,5.886.027T771.73,0.81a1.764,1.764,0,0,1,1.4,1.458,1.321,1.321,0,0,1-.324,1,1.979,1.979,0,0,1-1.187.621h-2.241q-1.107,0-2.241-.054,0.108,1.729.081,3.51t-0.027,2.916V39.042q1.242-.053,2.188-0.027t2.187,0.027a2.037,2.037,0,0,1,1.135.783,1.306,1.306,0,0,1,.216,1,1.668,1.668,0,0,1-1.458,1.08h-11.5Z" fill="#333"/><path d="M777.719,24.678L777.611,5.832V5.13q0-.486-0.027-1c-0.019-.342-0.026-0.675-0.026-1V2.43a2.029,2.029,0,0,1,.405-1.134A1.224,1.224,0,0,1,779.231.81q1.673,0.055,4.077.027l4.725-.054q2.322-.026,4.186,0a20.679,20.679,0,0,1,2.511.135,0.856,0.856,0,0,1,.567.486,1.676,1.676,0,0,1,.242.81,1.328,1.328,0,0,1-.594,1.35,3.086,3.086,0,0,1-1.3.27h-2.322q-1.674,0-3.591-.027t-3.591-.027H780.8l0.27,15.714q2.537,0.054,4.806.054h3.915q1.972,0,3.052-.108a2.527,2.527,0,0,1,.485-0.054h0.811a0.838,0.838,0,0,1,.7.54,2.07,2.07,0,0,1,.216.756,1.665,1.665,0,0,1-.433,1.269,1.8,1.8,0,0,1-1.134.459c-0.181,0-.5.009-0.945,0.027s-0.98.037-1.593,0.054-1.287.027-2.024,0.027h-7.911l0.054,9.72V37.8a1.229,1.229,0,0,0,.271,1.053,2.036,2.036,0,0,0,.863.135h8.748l4.645-.108a0.853,0.853,0,0,1,.918.513,2.315,2.315,0,0,1,.27.945,1.929,1.929,0,0,1-.378,1.134,1.515,1.515,0,0,1-1.187.378q-2.054.053-3.861,0.081t-3.564.027q-1.755,0-3.591-.027t-3.834-.027a3.317,3.317,0,0,1-1.862-.513,1.769,1.769,0,0,1-.783-1.593V24.678Z" fill="#333"/><path d="M819.168,6.588a1.511,1.511,0,0,1-.216,1.269,1.751,1.751,0,0,1-.972.675,1.655,1.655,0,0,1-1.242-.054,1.4,1.4,0,0,1-.811-1.134,5.135,5.135,0,0,0-1.7-3.1,5.317,5.317,0,0,0-3.375-1.161,8.1,8.1,0,0,0-2.916.378,6.251,6.251,0,0,0-2.079,1.161,4.922,4.922,0,0,0-1.27,1.674,4.69,4.69,0,0,0-.432,1.971,7.782,7.782,0,0,0,1.89,4.671,55.284,55.284,0,0,0,5.292,5.751q2.593,2.484,4.32,4.428a26.035,26.035,0,0,1,2.781,3.672A11.976,11.976,0,0,1,820.3,33.75a9.992,9.992,0,0,1-.891,4.158,7.98,7.98,0,0,1-2.241,2.835,9.146,9.146,0,0,1-3.267,1.62,14.9,14.9,0,0,1-3.969.513,10.749,10.749,0,0,1-3.942-.716,10.251,10.251,0,0,1-3.213-1.971,8.925,8.925,0,0,1-2.133-2.9,8.36,8.36,0,0,1-.756-3.537,1.433,1.433,0,0,1,.432-1.242,1.91,1.91,0,0,1,1.134-.486,1.776,1.776,0,0,1,1.161.324,1.6,1.6,0,0,1,.675,1.188,6.281,6.281,0,0,0,1.917,4.482,6.753,6.753,0,0,0,4.726,1.782,7.367,7.367,0,0,0,5.1-1.512,5.738,5.738,0,0,0,1.809-4.59,9.949,9.949,0,0,0-.485-3.213,12,12,0,0,0-1.458-2.862,22.657,22.657,0,0,0-2.43-2.943q-1.459-1.511-3.4-3.456t-3.483-3.591a31.447,31.447,0,0,1-2.619-3.159,13.665,13.665,0,0,1-1.646-2.97,8.269,8.269,0,0,1-.567-3.024,9.316,9.316,0,0,1,.54-3.1A7.328,7.328,0,0,1,803,2.646,8.484,8.484,0,0,1,806.02.729,12.39,12.39,0,0,1,810.529,0a9.906,9.906,0,0,1,5.616,1.513A7.676,7.676,0,0,1,819.168,6.588Z" fill="#333"/><path d="M826.414,43.308a3,3,0,0,1-2.43-1.026,2.531,2.531,0,0,1-.595-2.268,3.1,3.1,0,0,1,1-1.782,3.316,3.316,0,0,1,1.81-.7,2.724,2.724,0,0,1,2.187.783,2.944,2.944,0,0,1,.189,4.131A2.721,2.721,0,0,1,826.414,43.308Z" fill="#333"/></svg>