<svg class="nc-icon glyph" xmlns="http://www.w3.org/2000/svg" xmlns:xlink="http://www.w3.org/1999/xlink" x="0px" y="0px" width="48px" height="48px" viewBox="0 0 48 48"><g>
<path fill="#014347" d="M40.7,20C39.4,12.4,32.9,6.5,25,6.1V3c0-0.6-0.4-1-1-1c-0.6,0-1,0.4-1,1v3.1C15.1,6.5,8.6,12.4,7.3,20H40.7z
	"></path>
<path data-color="color-2" fill="#014347" d="M2,24h44c0.6,0,1-0.4,1-1s-0.4-1-1-1H2c-0.6,0-1,0.4-1,1S1.4,24,2,24z"></path>
<path data-color="color-2" fill="#014347" d="M46,44H2c-0.6,0-1,0.4-1,1s0.4,1,1,1h44c0.6,0,1-0.4,1-1S46.6,44,46,44z"></path>
<rect x="35" y="26" fill="#014347" width="8" height="16"></rect>
<rect x="25" y="26" fill="#014347" width="8" height="16"></rect>
<rect x="15" y="26" fill="#014347" width="8" height="16"></rect>
<rect x="5" y="26" fill="#014347" width="8" height="16"></rect>
</g></svg>