<svg class="nc-icon glyph" xmlns="http://www.w3.org/2000/svg" xmlns:xlink="http://www.w3.org/1999/xlink" x="0px" y="0px" width="48px" height="48px" viewBox="0 0 48 48"><g>
<path fill="#014347" d="M35.7,16.3l-4-4c-0.4-0.4-1-0.4-1.4,0L24,18.6l-6.3-6.3c-0.4-0.4-1-0.4-1.4,0l-4,4c-0.4,0.4-0.4,1,0,1.4
	l6.3,6.3l-6.3,6.3c-0.4,0.4-0.4,1,0,1.4l4,4c0.4,0.4,1,0.4,1.4,0l6.3-6.3l6.3,6.3c0.2,0.2,0.5,0.3,0.7,0.3s0.5-0.1,0.7-0.3l4-4
	c0.4-0.4,0.4-1,0-1.4L29.4,24l6.3-6.3C36.1,17.3,36.1,16.7,35.7,16.3z"></path>
</g></svg>