<svg xmlns="http://www.w3.org/2000/svg" viewBox="0 0 162.97 108.921"><title>logo</title><path d="M1.322,100.424V99.968c0-6.433,4.07-8.736,8.736-8.736a10.793,10.793,0,0,1,4.822.983v1.776A11.3,11.3,0,0,0,9.9,92.935c-4.615,0-6.222,3.12-6.222,6.744v0.7c0,3.984,1.322,6.841,6.274,6.841a11.912,11.912,0,0,0,3.474-.5v-4.681H9.462v-1.681h6.118v7.633a17.669,17.669,0,0,1-5.677.937C4.667,108.921,1.322,106.3,1.322,100.424Z" transform="translate(-1.322)" fill="#018790"/><path d="M22.421,91.519h2.2v15.409h8.348v1.7H22.421V91.519Z" transform="translate(-1.322)" fill="#018790"/><path d="M37.869,100.28V99.848c0-5.376,3.059-8.616,8.166-8.616,5,0,8.063,3.048,8.063,8.641V100.3c0,5.377-3.059,8.617-8.14,8.617C40.928,108.921,37.869,105.872,37.869,100.28Zm13.87,0.384V99.872c0-4.152-1.633-6.961-5.807-6.984-3.811,0-5.7,2.76-5.7,6.576v0.792c0,4.152,1.633,7.009,5.781,7.009C49.846,107.265,51.738,104.48,51.738,100.664Z" transform="translate(-1.322)" fill="#018790"/><path d="M60.394,91.519h5.651c4.278,0,5.963,1.584,5.963,4.3,0,1.8-.908,3.145-3.085,3.744v0.12c2.282,0.336,3.915,1.536,3.915,4.129,0,2.832-2.1,4.824-6.248,4.824h-6.2V91.519Zm5.34,7.464c2.307,0,4.044-.72,4.044-2.928,0-2.137-1.322-2.832-3.915-2.832H62.571v5.76h3.163Zm0.726,7.969c2.67,0,4.07-1.056,4.07-3.264,0-2.232-1.555-3.1-4.3-3.1H62.571v6.36H66.46Z" transform="translate(-1.322)" fill="#018790"/><path d="M84.059,91.519h2.126l6.741,17.113H90.644L88.7,103.641H81.285l-1.918,4.992h-2.1Zm-2.151,10.417H88l-3.007-7.729H84.94Z" transform="translate(-1.322)" fill="#018790"/><path d="M98.417,91.519h2.2v15.409h8.348v1.7H98.417V91.519Z" transform="translate(-1.322)" fill="#018790"/><path d="M113.813,107.5v-0.6a11.1,11.1,0,0,0,5.081,1.177c3.552,0,5.055-1.44,5.055-3.841s-1.607-3.265-4.1-4.008l-1.167-.36c-3.163-.984-4.485-2.088-4.485-4.488,0-2.185,1.711-3.912,5.211-3.912a9.446,9.446,0,0,1,4.355.936v0.6a9.34,9.34,0,0,0-4.381-.937c-3.033,0-4.485,1.368-4.485,3.265,0,2.111,1.037,2.976,4.044,3.96l1.115,0.312c2.8,0.889,4.641,1.824,4.641,4.585,0,2.736-1.737,4.464-5.781,4.464A11.3,11.3,0,0,1,113.813,107.5Z" transform="translate(-1.322)" fill="#018790"/><path d="M131.5,91.663h0.881l11.148,15.722h0.026V91.663H144.2v16.8h-0.752L132.2,92.527h-0.026v15.938H131.5v-16.8Z" transform="translate(-1.322)" fill="#018790"/><path d="M151.719,102.872V91.663h0.7v11.161c0,3.84,2.074,5.28,5.626,5.28s5.6-1.44,5.6-5.28V91.663h0.648v11.186c0,4.056-2.229,5.808-6.274,5.808C154.052,108.656,151.719,106.881,151.719,102.872Z" transform="translate(-1.322)" fill="#018790"/><path d="M110.066,35.754a28.888,28.888,0,0,0-24.813-28.6,4.632,4.632,0,0,0,.689-2.412,4.739,4.739,0,1,0-9.477,0A4.808,4.808,0,0,0,79.911,9.3v4.566a22.01,22.01,0,0,0,0,43.939V68.924H67.419a1.292,1.292,0,0,0,0,2.585H94.558a1.292,1.292,0,0,0,0-2.585H82.5V64.616A28.9,28.9,0,0,0,110.066,35.754Zm-2.585,0A26.371,26.371,0,0,1,82.5,62.031V57.724a22.01,22.01,0,0,0,0-43.939V9.477A26.371,26.371,0,0,1,107.481,35.754ZM89.388,49.539a5.589,5.589,0,0,1,5.6-5.6A8.324,8.324,0,0,0,99.3,42.733,19.6,19.6,0,0,1,88.182,53.847,8.324,8.324,0,0,0,89.388,49.539Zm9.046-15.077a9.045,9.045,0,0,1-9.046-9.046,5.554,5.554,0,0,1,3.446-5.169A19.2,19.2,0,0,1,100.5,34.462H98.435ZM86.8,25.416A11.693,11.693,0,0,0,98.435,37.047h1.982a5.617,5.617,0,0,1-5.428,4.308A8.237,8.237,0,0,0,86.8,49.539,5.544,5.544,0,0,1,82.5,54.967V16.456a18.4,18.4,0,0,1,7.84,2.24A8.13,8.13,0,0,0,86.8,25.416ZM79.05,4.739A2.154,2.154,0,1,1,81.2,6.892,2.133,2.133,0,0,1,79.05,4.739ZM68.884,20.849a8.256,8.256,0,0,0,6.634,6.634A5.647,5.647,0,0,1,70,31.963a5.589,5.589,0,0,1-5.6-5.6V26.191A17.865,17.865,0,0,1,68.884,20.849Zm-6.2,9.132a8.2,8.2,0,0,0,15.508-3.7A1.325,1.325,0,0,0,76.9,24.985a5.589,5.589,0,0,1-5.6-5.6V19.126a18.727,18.727,0,0,1,8.615-2.671V55.139a17.51,17.51,0,0,1-3.7-.6,8.037,8.037,0,0,0,1.982-5.342A11.711,11.711,0,0,0,66.557,37.477H61.905a11.546,11.546,0,0,1-.086-1.723A21.253,21.253,0,0,1,62.68,29.982Zm-0.345,10.08h4.222A9.045,9.045,0,0,1,75.6,49.108,5.468,5.468,0,0,1,73.45,53.5,19.279,19.279,0,0,1,62.336,40.062Z" transform="translate(-1.322)" fill="#018790"/></svg>