<?xml version="1.0" encoding="utf-8"?>
<!-- Generator: Adobe Illustrator 19.2.1, SVG Export Plug-In . SVG Version: 6.00 Build 0)  -->
<svg version="1.1" id="Layer_1" xmlns="http://www.w3.org/2000/svg" xmlns:xlink="http://www.w3.org/1999/xlink" x="0px" y="0px"
	 viewBox="0 0 163 17.7" style="enable-background:new 0 0 163 17.7;" xml:space="preserve">
<style type="text/css">
	.st0{fill:#018790;}
</style>
<title>logo</title>
<path class="st0" d="M0,9.2V8.7C0,2.3,4.1,0,8.7,0c1.7,0,3.3,0.3,4.8,1v1.8C12,2,10.3,1.7,8.6,1.7C4,1.7,2.4,4.8,2.4,8.5v0.7
	c0,4,1.3,6.8,6.3,6.8c1.2,0,2.3-0.2,3.5-0.5v-4.7h-4V9.1h6.1v7.6c-1.8,0.6-3.7,0.9-5.7,0.9C3.3,17.7,0,15.1,0,9.2z"/>
<path class="st0" d="M21.1,0.3h2.2v15.4h8.3v1.7H21.1V0.3z"/>
<path class="st0" d="M36.5,9.1V8.6c0-5.4,3.1-8.6,8.2-8.6c5,0,8.1,3,8.1,8.6v0.4c0,5.4-3.1,8.6-8.1,8.6
	C39.6,17.7,36.5,14.6,36.5,9.1z M50.4,9.4V8.6c0-4.2-1.6-7-5.8-7c-3.8,0-5.7,2.8-5.7,6.6V9c0,4.2,1.6,7,5.8,7
	C48.5,16,50.4,13.3,50.4,9.4L50.4,9.4z"/>
<path class="st0" d="M59.1,0.3h5.7c4.3,0,6,1.6,6,4.3c0,1.8-0.9,3.1-3.1,3.7v0.1c2.3,0.3,3.9,1.5,3.9,4.1c0,2.8-2.1,4.8-6.2,4.8
	h-6.2L59.1,0.3L59.1,0.3z M64.4,7.8c2.3,0,4-0.7,4-2.9c0-2.1-1.3-2.8-3.9-2.8h-3.3v5.8H64.4z M65.1,15.7c2.7,0,4.1-1.1,4.1-3.3
	c0-2.2-1.6-3.1-4.3-3.1h-3.7v6.4L65.1,15.7L65.1,15.7z"/>
<path class="st0" d="M82.7,0.3h2.1l6.7,17.1h-2.3l-1.9-5H80l-1.9,5h-2.1L82.7,0.3z M80.6,10.7h6.1l-3-7.7h-0.1L80.6,10.7z"/>
<path class="st0" d="M97.1,0.3h2.2v15.4h8.3v1.7H97.1V0.3z"/>
<path class="st0" d="M112.5,16.3v-0.6c1.6,0.8,3.3,1.2,5.1,1.2c3.6,0,5.1-1.4,5.1-3.8s-1.6-3.3-4.1-4l-1.2-0.4
	c-3.2-1-4.5-2.1-4.5-4.5c0-2.2,1.7-3.9,5.2-3.9c1.5,0,3,0.3,4.4,0.9v0.6c-1.4-0.7-2.9-1-4.4-0.9c-3,0-4.5,1.4-4.5,3.3c0,2.1,1,3,4,4
	l1.1,0.3c2.8,0.9,4.6,1.8,4.6,4.6c0,2.7-1.7,4.5-5.8,4.5C115.8,17.4,114.1,17.1,112.5,16.3z"/>
<path class="st0" d="M130.2,0.4h0.9l11.1,15.7h0V0.4h0.6v16.8h-0.8L130.9,1.3h0v15.9h-0.7V0.4L130.2,0.4z"/>
<path class="st0" d="M150.4,11.6V0.4h0.7v11.2c0,3.8,2.1,5.3,5.6,5.3s5.6-1.4,5.6-5.3V0.4h0.6v11.2c0,4.1-2.2,5.8-6.3,5.8
	C152.7,17.4,150.4,15.7,150.4,11.6z"/>
</svg>
