<?xml version="1.0" encoding="utf-8"?>
<!-- Generator: Adobe Illustrator 19.2.1, SVG Export Plug-In . SVG Version: 6.00 Build 0)  -->
<svg version="1.1" id="Layer_1" xmlns="http://www.w3.org/2000/svg" xmlns:xlink="http://www.w3.org/1999/xlink" x="0px" y="0px"
	 viewBox="0 0 50.8 71.6" style="enable-background:new 0 0 50.8 71.6;" xml:space="preserve">
<style type="text/css">
	.st0{fill:#FFFFFF;}
</style>
<title>logo</title>
<path class="st0" d="M50.8,35.8C50.8,21.4,40.3,9.2,26,7.2c0.4-0.7,0.7-1.6,0.7-2.4C26.7,2.2,24.7,0,22,0c-2.6,0-4.8,2.1-4.8,4.7
	c0,0,0,0.1,0,0.1c0,2.1,1.4,4,3.4,4.6v4.6C8.5,14.7-0.7,25.1,0,37.2c0.7,11.1,9.5,20,20.6,20.6V69H8.2c-0.7,0-1.3,0.6-1.3,1.3
	c0,0.7,0.6,1.3,1.3,1.3h27.1c0.7,0,1.3-0.6,1.3-1.3c0-0.7-0.6-1.3-1.3-1.3H23.3v-4.3C38.7,64,50.8,51.3,50.8,35.8z M48.2,35.8
	c0,14-11,25.5-25,26.3v-4.3c12.1-0.7,21.4-11.2,20.6-23.3c-0.7-11.1-9.5-20-20.6-20.6V9.5C37.2,10.3,48.2,21.8,48.2,35.8z
	 M30.2,49.6c0-3.1,2.5-5.6,5.6-5.6c0,0,0,0,0,0c1.5,0,3-0.4,4.3-1.2c-2,5.1-6,9.1-11.1,11.1C29.7,52.6,30.2,51.1,30.2,49.6z
	 M39.2,34.5c-5,0-9-4-9-9c0,0,0,0,0,0c0-2.3,1.4-4.3,3.4-5.2c4.5,3.4,7.3,8.6,7.7,14.2H39.2L39.2,34.5z M27.6,25.5
	c0,6.4,5.2,11.6,11.6,11.6h2c-0.6,2.5-2.8,4.3-5.4,4.3c-4.5,0-8.2,3.7-8.2,8.2c0,2.6-1.8,4.8-4.3,5.4V16.5c2.7,0.2,5.4,0.9,7.8,2.2
	C28.9,20.3,27.6,22.8,27.6,25.5z M19.8,4.8c0-1.2,1-2.2,2.2-2.2c1.2,0,2.2,1,2.2,2.2S23.2,7,22,7c0,0,0,0,0,0
	C20.8,7,19.8,6,19.8,4.8C19.8,4.8,19.8,4.8,19.8,4.8z M9.6,20.9c0.6,3.4,3.3,6,6.6,6.6c-0.6,2.6-2.9,4.5-5.5,4.5
	c-3.1,0-5.6-2.5-5.6-5.6c0,0,0,0,0,0v-0.2C6.3,24.2,7.8,22.4,9.6,20.9z M3.4,30c2.1,4,7,5.6,11,3.6c2.7-1.4,4.5-4.2,4.5-7.3
	c0-0.7-0.6-1.3-1.3-1.3c-3.1,0-5.6-2.5-5.6-5.6c0,0,0,0,0,0v-0.3c2.6-1.6,5.6-2.5,8.6-2.7v38.7c-1.3-0.1-2.5-0.3-3.7-0.6
	c1.3-1.5,2-3.4,2-5.3c0-6.4-5.2-11.7-11.6-11.7H2.7c-0.1-0.6-0.1-1.1-0.1-1.7C2.6,33.9,2.9,31.9,3.4,30L3.4,30z M3.1,40.1h4.2
	c5,0,9,4.1,9,9c0,1.7-0.8,3.3-2.2,4.4C8.6,51.1,4.5,46.1,3.1,40.1L3.1,40.1z"/>
</svg>
