<?xml version="1.0" encoding="utf-8"?>
<!-- Generator: Adobe Illustrator 19.2.1, SVG Export Plug-In . SVG Version: 6.00 Build 0)  -->
<svg version="1.1" id="Layer_1" xmlns="http://www.w3.org/2000/svg" xmlns:xlink="http://www.w3.org/1999/xlink" x="0px" y="0px"
	 viewBox="0 0 96 48" style="enable-background:new 0 0 96 48;" xml:space="preserve">
<style type="text/css">
	.st0{fill:none;stroke:#444444;stroke-width:2;stroke-linecap:round;stroke-linejoin:round;stroke-miterlimit:10;}
	.st1{fill:#EFD358;}
</style>
<g transform="translate(0, 0)">
	<polygon class="st0" points="24,5.2 30,18 42.8,18 33.4,27.8 37.2,42.8 24,35.3 10.8,42.8 14.6,27.8 5.2,18 18,18 	"/>
</g>
<g>
	<path class="st1" d="M91.8,17.6c-0.2-0.4-0.5-0.6-0.9-0.6H78.6L72.9,4.7c-0.2-0.4-0.5-0.6-0.9-0.6c-0.4,0-0.7,0.2-0.9,0.6L65.4,17
		H53.2c-0.4,0-0.8,0.2-0.9,0.6c-0.2,0.4-0.1,0.8,0.2,1.1l9,9.4l-3.6,14.5c-0.1,0.4,0,0.8,0.4,1c0.3,0.2,0.8,0.3,1.1,0.1L72,36.5
		l12.7,7.3c0.2,0.1,0.3,0.1,0.5,0.1c0.2,0,0.4-0.1,0.6-0.2c0.3-0.2,0.5-0.7,0.4-1l-3.6-14.5l9-9.4C91.8,18.4,91.9,18,91.8,17.6z"/>
</g>
</svg>
