<svg class="nc-icon outline" xmlns="http://www.w3.org/2000/svg" xmlns:xlink="http://www.w3.org/1999/xlink" x="0px" y="0px" width="32px" height="32px" viewBox="0 0 32 32">
<g transform="translate(0, 0)">
<path data-cap="butt" fill="none" stroke="#ffffff" stroke-width="2" stroke-miterlimit="10" d="M7.4,3.7c0.9,0.7,2,1.3,2.7,2.4
	c0.6,1,1.7,4.2,0.4,5.8c-1.4,1.8-5.5,2.4-5.5,4.1c0,1.3,1.8,2.7,2.7,4.1c1.4,2.1,0.8,4.2,0,5.5c-0.4,0.7-1.1,1.2-1.8,1.6" stroke-linejoin="round" stroke-linecap="round"></path>
<path data-cap="butt" fill="none" stroke="#ffffff" stroke-width="2" stroke-miterlimit="10" d="M27.8,6.8c-2.9,1.4-5.4,3.2-7,2.7
	C18.9,9,19.1,7.4,18,5.8c-0.8-1.2-3.4-2.1-3.4-3.4c0-0.5,0.1-1,0.2-1.4" stroke-linejoin="round" stroke-linecap="round"></path>
<circle fill="none" stroke="#ffffff" stroke-width="2" stroke-linecap="round" stroke-miterlimit="10" cx="16" cy="16" r="15" stroke-linejoin="round"></circle>
<path data-cap="butt" fill="none" stroke="#ffffff" stroke-width="2" stroke-miterlimit="10" d="M25.6,17.2c0.1,4.2-5.8,10.1-8.2,8.3
	c-2.1-1.5-0.2-2.5-1.3-8.3c-0.4-2.2,2.1-4.1,4.8-4.1S25.5,15,25.6,17.2z" stroke-linejoin="round" stroke-linecap="round"></path>
</g>
</svg>