<svg class="nc-icon outline" xmlns="http://www.w3.org/2000/svg" xmlns:xlink="http://www.w3.org/1999/xlink" x="0px" y="0px" width="48px" height="48px" viewBox="0 0 48 48">
<g transform="translate(0, 0)">
<path data-cap="butt" fill="none" stroke="#555555" stroke-width="2" stroke-miterlimit="10" d="M11.4,5.9c1.4,1,2.5,2.3,3.5,4.1
	c0.9,1.5,2.9,5.7,1.1,8c-2.1,2.7-8,3.6-8,6c0,1.8,2.6,3.9,4,6c2.1,3.1,1.1,6.1,0,8c-0.6,1-1.5,1.8-2.5,2.4" stroke-linejoin="miter" stroke-linecap="butt"></path>
<path data-cap="butt" fill="none" stroke="#555555" stroke-width="2" stroke-miterlimit="10" d="M41.3,10.5C37,12.6,31.1,13.9,30,14
	c-2.1,0.1-1.4-2.6-3-5c-1.2-1.8-5-3.1-5-5c0-0.7,0.1-1.3,0.2-1.9" stroke-linejoin="miter" stroke-linecap="butt"></path>
<circle fill="none" stroke="#555555" stroke-width="2" stroke-linecap="square" stroke-miterlimit="10" cx="24" cy="24" r="22" stroke-linejoin="miter"></circle>
<path data-cap="butt" fill="none" stroke="#555555" stroke-width="2" stroke-miterlimit="10" d="M38,25.8C38.1,32,29.7,40.4,26,38
	c-3-2,0.5-4.7-2-12.2c-1-3.1,3.1-6,7-6S38,22.5,38,25.8z" stroke-linejoin="miter" stroke-linecap="butt"></path>,/g&gt;
</g></svg>