<?xml version="1.0" encoding="utf-8"?>
<!-- Generator: Adobe Illustrator 19.2.1, SVG Export Plug-In . SVG Version: 6.00 Build 0)  -->
<svg version="1.1" id="Layer_1" xmlns="http://www.w3.org/2000/svg" xmlns:xlink="http://www.w3.org/1999/xlink" x="0px" y="0px"
	 viewBox="0 0 90 90" style="enable-background:new 0 0 90 90;" xml:space="preserve">
<style type="text/css">
	.st0{fill:#777777;}
</style>
<path class="st0" d="M88,50v-1H71v-5l3-1l-5.5-2v-1l2.5-2l-5-2l-1-5v-1c0-0.6-0.4-1-1-1s-1,0.4-1,1v1H27v-1c0-0.6-0.4-1-1-1
	s-1,0.4-1,1v1l-1,5l-5,2l2.5,2v1L16,43l3,1v5H2v1L0,61h20v-2.5c0-0.8,0.7-1.5,1.5-1.5s1.5,0.7,1.5,1.5V61h8v-3c0-1.1,0.9-2,2-2
	s2,0.9,2,2v3h7.5v-3.5c0-1.4,1.1-2.5,2.5-2.5s2.5,1.1,2.5,2.5V61H55v-3c0-1.1,0.9-2,2-2s2,0.9,2,2v3h8v-2.5c0-0.8,0.7-1.5,1.5-1.5
	s1.5,0.7,1.5,1.5V61h20L88,50z M38.5,49h-2v-4h2V49z M46.5,49h-3v-4h3V49z M53.5,49h-2v-4h2V49z"/>
</svg>
