<?xml version="1.0" encoding="utf-8"?>
<!-- Generator: Adobe Illustrator 19.2.1, SVG Export Plug-In . SVG Version: 6.00 Build 0)  -->
<svg version="1.1" id="Layer_1" xmlns="http://www.w3.org/2000/svg" xmlns:xlink="http://www.w3.org/1999/xlink" x="0px" y="0px"
	 viewBox="0 0 90 90" style="enable-background:new 0 0 90 90;" xml:space="preserve">
<style type="text/css">
	.st0{fill:#777777;}
</style>
<path class="st0" d="M90,29.8h-1.9h-0.9h-1.9v-5.6h0l1.9-1.9v-1.9h-1.9H59.1V18h-4.7c0-1.3-1.1-2.3-2.3-2.3c-1.3,0-2.3,1-2.3,2.3
	l0,0c0-2.6-2.1-4.7-4.7-4.7c-2.6,0-4.7,2.1-4.7,4.7l0,0c0-1.3-1-2.3-2.3-2.3s-2.3,1-2.3,2.3h-4.7v2.3H4.7H2.8v1.9l1.9,1.9v5.6H2.8
	H1.9H0v2.3L1.9,34v5.2V41h0.9v33.8H1.9v1.9h1h4.7h0.9v-1.9H7.5V41h0.9v-1.9h7.5V41h0.9v33.8h-0.9v1.9h1h4.7h0.9v-1.9h-0.9V41h0.9
	v-1.9H30V41h0.9v33.8H30v1.9h1h4.7h0.9v-1.9h-0.9V41h0.9v-1.9h16.9V41h0.9v33.8h-0.9v1.9h1h4.7H60v-1.9h-0.9V41H60v-1.9h7.5V41h0.9
	v33.8h-0.9v1.9h1h4.7h0.9v-1.9h-0.9V41h0.9v-1.9h7.5V41h0.9v33.8h-0.9v1.9h1h4.7h0.9v-1.9h-0.9V41h0.9v-1.9V34l1.9-1.9V29.8z"/>
</svg>
