<?xml version="1.0" encoding="utf-8"?>
<!-- Generator: Adobe Illustrator 19.2.1, SVG Export Plug-In . SVG Version: 6.00 Build 0)  -->
<svg version="1.1" id="Layer_1" xmlns="http://www.w3.org/2000/svg" xmlns:xlink="http://www.w3.org/1999/xlink" x="0px" y="0px"
	 viewBox="0 0 90 90" style="enable-background:new 0 0 90 90;" xml:space="preserve">
<style type="text/css">
	.st0{fill:#FFFFFF;}
</style>
<path class="st0" d="M87.9,43.1l2.1-3h-2.1V38H87v-0.9c0-0.7-0.6-1.3-1.3-1.3c-0.7,0-1.3,0.6-1.3,1.3V38H74.1v-0.9
	c0-0.7-0.6-1.3-1.3-1.3c-0.7,0-1.3,0.6-1.3,1.3V38H57v-6.4h0.9c-2.3-3.7-6.2-6.5-10.7-7.1c0-0.1,0-0.2,0-0.2c0-1.2-1-2.1-2.1-2.1
	c-1.2,0-2.1,1-2.1,2.1c0,0.1,0,0.1,0,0.2c-4.6,0.7-8.5,3.4-10.8,7.1H33V38H18.4v-0.9c0-0.7-0.6-1.3-1.3-1.3s-1.3,0.6-1.3,1.3V38H5.6
	v-0.9c0-0.7-0.6-1.3-1.3-1.3c-0.7,0-1.3,0.6-1.3,1.3V38H2.1v2.1H0l2.1,3v18.4l-1.3,2.1V68h5.6V52.1H15V68h4.3V50
	c0-3.6,2.9-6.4,6.4-6.4s6.4,2.9,6.4,6.4v18h6.4V50c0-3.6,2.9-6.4,6.4-6.4c3.6,0,6.4,2.9,6.4,6.4v18h6.4V50c0-3.6,2.9-6.4,6.4-6.4
	c3.6,0,6.4,2.9,6.4,6.4v18H75V52.1h8.6V68h5.6v-4.3l-1.3-2.1C87.9,61.5,87.9,43.1,87.9,43.1z"/>
</svg>
