<?xml version="1.0" encoding="utf-8"?>
<!-- Generator: Adobe Illustrator 19.2.1, SVG Export Plug-In . SVG Version: 6.00 Build 0)  -->
<svg version="1.1" id="Layer_1" xmlns="http://www.w3.org/2000/svg" xmlns:xlink="http://www.w3.org/1999/xlink" x="0px" y="0px"
	 viewBox="0 0 90 90" style="enable-background:new 0 0 90 90;" xml:space="preserve">
<style type="text/css">
	.st0{fill:#777777;}
</style>
<path class="st0" d="M66.1,90l-6-12.4h0l0.5-2.8v-2.3h-3.2l-5.1-16.1l0.9-3.7h-2.3l-4-39.5l0.3-2.3h0.6v-0.9h-0.5
	c0-1.1-0.8-2-1.9-2.3L45,0l-0.4,7.9c-1.1,0.2-1.9,1.1-1.9,2.3h-0.5V11h0.6l0.3,2.3l-4.1,39.5h-2.3l0.9,3.7l-5.1,16.1h-3.2v2.3
	l0.5,2.8h0l-6,12.4h7.8l3.5-7.3c2.6-2.3,6-3.7,9.8-3.7s7.2,1.4,9.8,3.7l3.5,7.3H66.1z M42.7,56.5h4.6L51,72.6H39L42.7,56.5z
	 M45,77.6c-3.1,0-6,0.9-8.5,2.4l1.2-2.4H45h7.3l1.2,2.4C51,78.5,48.1,77.6,45,77.6z"/>
</svg>
