<?xml version="1.0" encoding="utf-8"?>
<!-- Generator: Adobe Illustrator 19.2.1, SVG Export Plug-In . SVG Version: 6.00 Build 0)  -->
<svg version="1.1" id="Layer_1" xmlns="http://www.w3.org/2000/svg" xmlns:xlink="http://www.w3.org/1999/xlink" x="0px" y="0px"
	 viewBox="0 0 90 90" style="enable-background:new 0 0 90 90;" xml:space="preserve">
<style type="text/css">
	.st0{fill:#777777;}
</style>
<path class="st0" d="M65,55.3c-0.8-0.4-1.6-0.7-2.5-0.9v-1.6h-3v1.6c-0.9,0.2-1.7,0.5-2.5,0.9h-3.5v-2h-1v-6h-1v-5L51,39.8
	c0-2.6-1.7-4.8-4-5.7v-0.8h-0.5v-4l-1-1.3v-2.2v-0.5c0-0.3-0.2-0.5-0.5-0.5s-0.5,0.2-0.5,0.5v0.5v2.2l-1,1.3v4H43v0.8
	c-2.3,0.8-4,3-4,5.7l-0.5,2.5v5h-1v6h-1v2H33c-0.8-0.4-1.6-0.7-2.5-0.9v-1.6h-3v1.6c-0.9,0.2-1.7,0.5-2.5,0.9H0v10h2.5v-2.5
	c0-0.3,0.2-0.5,0.5-0.5s0.5,0.2,0.5,0.5v2.5H4v-2.5c0-0.3,0.2-0.5,0.5-0.5S5,62.5,5,62.8v2.5h0.5v-2.5c0-0.3,0.2-0.5,0.5-0.5
	s0.5,0.2,0.5,0.5v2.5H7v-2.5c0-0.3,0.2-0.5,0.5-0.5S8,62.5,8,62.8v2.5h0.5v-2.5c0-0.3,0.2-0.5,0.5-0.5s0.5,0.2,0.5,0.5v2.5H10v-2.5
	c0-0.3,0.2-0.5,0.5-0.5s0.5,0.2,0.5,0.5v2.5h0.5v-2.5c0-0.3,0.2-0.5,0.5-0.5s0.5,0.2,0.5,0.5v2.5H13v-2.5c0-0.3,0.2-0.5,0.5-0.5
	s0.5,0.2,0.5,0.5v2.5h0.5v-2.5c0-0.3,0.2-0.5,0.5-0.5s0.5,0.2,0.5,0.5v2.5H18v-2.5c0-0.3,0.2-0.5,0.5-0.5s0.5,0.2,0.5,0.5v2.5h0.5
	v-2.5c0-0.3,0.2-0.5,0.5-0.5s0.5,0.2,0.5,0.5v2.5H21v-2.5c0-0.3,0.2-0.5,0.5-0.5s0.5,0.2,0.5,0.5v2.5h22.5v-2h1v2H68v-2.5
	c0-0.3,0.2-0.5,0.5-0.5s0.5,0.2,0.5,0.5v2.5h0.5v-2.5c0-0.3,0.2-0.5,0.5-0.5s0.5,0.2,0.5,0.5v2.5H71v-2.5c0-0.3,0.2-0.5,0.5-0.5
	s0.5,0.2,0.5,0.5v2.5h2.5v-2.5c0-0.3,0.2-0.5,0.5-0.5s0.5,0.2,0.5,0.5v2.5H76v-2.5c0-0.3,0.2-0.5,0.5-0.5s0.5,0.2,0.5,0.5v2.5h0.5
	v-2.5c0-0.3,0.2-0.5,0.5-0.5s0.5,0.2,0.5,0.5v2.5H79v-2.5c0-0.3,0.2-0.5,0.5-0.5s0.5,0.2,0.5,0.5v2.5h0.5v-2.5
	c0-0.3,0.2-0.5,0.5-0.5s0.5,0.2,0.5,0.5v2.5H82v-2.5c0-0.3,0.2-0.5,0.5-0.5s0.5,0.2,0.5,0.5v2.5h0.5v-2.5c0-0.3,0.2-0.5,0.5-0.5
	s0.5,0.2,0.5,0.5v2.5H85v-2.5c0-0.3,0.2-0.5,0.5-0.5s0.5,0.2,0.5,0.5v2.5h0.5v-2.5c0-0.3,0.2-0.5,0.5-0.5s0.5,0.2,0.5,0.5v2.5H90
	v-10H65z M2,64.3H1v-2h1V64.3z M2,60.8H1v-2h1V60.8z M2,57.3H1v-1h1V57.3z M3.5,60.8h-1v-2h1V60.8z M3.5,57.3h-1v-1h1V57.3z M5,60.8
	H4v-2h1V60.8z M5,57.3H4v-1h1V57.3z M6.5,60.8h-1v-2h1V60.8z M6.5,57.3h-1v-1h1V57.3z M8,60.8H7v-2h1V60.8z M8,57.3H7v-1h1V57.3z
	 M9.5,60.8h-1v-2h1V60.8z M9.5,57.3h-1v-1h1V57.3z M11,60.8h-1v-2h1V60.8z M11,57.3h-1v-1h1V57.3z M12.5,60.8h-1v-2h1V60.8z
	 M12.5,57.3h-1v-1h1V57.3z M14,60.8h-1v-2h1V60.8z M14,57.3h-1v-1h1V57.3z M15.5,60.8h-1v-2h1V60.8z M15.5,57.3h-1v-1h1V57.3z
	 M17,64.3h-1v-2h1V64.3z M17,60.8h-1v-2h1V60.8z M17,57.3h-1v-1h1V57.3z M19,60.8h-1v-2h1V60.8z M19,57.3h-1v-1h1V57.3z M20.5,60.8
	h-1v-2h1V60.8z M20.5,57.3h-1v-1h1V57.3z M22,60.8h-1v-2h1V60.8z M22,57.3h-1v-1h1V57.3z M24.5,64.3h-1v-2h1V64.3z M24.5,60.8h-1v-2
	h1V60.8z M24.5,57.3h-1v-1h1V57.3z M26.5,64.3h-1v-2h1V64.3z M26.5,60.8h-1v-2h1V60.8z M26.5,57.3h-1v-1h1V57.3z M28,53.3h0.5v1H28
	V53.3z M29.5,64.3h-1v-2h1V64.3z M29.5,60.8h-1v-2c0-0.3,0.2-0.5,0.5-0.5s0.5,0.2,0.5,0.5V60.8z M29,57.3c-0.3,0-0.5-0.2-0.5-0.5
	c0-0.3,0.2-0.5,0.5-0.5s0.5,0.2,0.5,0.5C29.5,57,29.3,57.3,29,57.3z M30,54.3h-0.5v-1H30V54.3z M32.5,64.3h-1v-2h1V64.3z M32.5,60.8
	h-1v-2h1V60.8z M32.5,57.3h-1v-1h1V57.3z M34.5,64.3h-1v-2h1V64.3z M34.5,60.8h-1v-2h1V60.8z M34.5,57.3h-1v-1h1V57.3z M36.5,64.3
	h-1v-2h1V64.3z M36.5,60.8h-1v-2h1V60.8z M36.5,57.3h-1v-1h1V57.3z M41.5,38.8c0-0.3,0.2-0.5,0.5-0.5s0.5,0.2,0.5,0.5v0.5
	c0,0.3-0.2,0.5-0.5,0.5s-0.5-0.2-0.5-0.5V38.8z M41.5,44.8c0-0.3,0.2-0.5,0.5-0.5s0.5,0.2,0.5,0.5v1.5h-1V44.8z M38.5,49.3
	c0-0.3,0.2-0.5,0.5-0.5s0.5,0.2,0.5,0.5v2.5h-1V49.3z M40.5,64.3h-1v-2h1V64.3z M40.5,60.8h-1v-2c0-0.3,0.2-0.5,0.5-0.5
	s0.5,0.2,0.5,0.5V60.8z M40.5,57.3h-1v-1h1V57.3z M41,51.8h-1v-2.5c0-0.3,0.2-0.5,0.5-0.5S41,49,41,49.3V51.8z M41,46.3h-1v-1.5
	c0-0.3,0.2-0.5,0.5-0.5s0.5,0.2,0.5,0.5V46.3z M41.5,49.3c0-0.3,0.2-0.5,0.5-0.5s0.5,0.2,0.5,0.5v2.5h-1V49.3z M43.5,64.3h-1v-2h1
	V64.3z M43.5,60.8h-1v-2c0-0.3,0.2-0.5,0.5-0.5s0.5,0.2,0.5,0.5V60.8z M43.5,57.3h-1v-1h1V57.3z M44,51.8h-1v-2.5
	c0-0.3,0.2-0.5,0.5-0.5S44,49,44,49.3V51.8z M44,46.3h-1v-1.5c0-0.3,0.2-0.5,0.5-0.5s0.5,0.2,0.5,0.5V46.3z M44,39.3
	c0,0.3-0.2,0.5-0.5,0.5S43,39.5,43,39.3v-0.5c0-0.3,0.2-0.5,0.5-0.5s0.5,0.2,0.5,0.5V39.3z M45.5,62.8h-1v-0.5h1V62.8z M45.5,61.3
	h-1v-2.5c0-0.3,0.2-0.5,0.5-0.5s0.5,0.2,0.5,0.5V61.3z M45.5,57.3h-1v-1h1V57.3z M45.5,51.8h-1v-2.5c0-0.3,0.2-0.5,0.5-0.5
	s0.5,0.2,0.5,0.5V51.8z M45.5,46.3h-1v-1.5c0-0.3,0.2-0.5,0.5-0.5s0.5,0.2,0.5,0.5V46.3z M45.5,39.3c0,0.3-0.2,0.5-0.5,0.5
	s-0.5-0.2-0.5-0.5v-0.5c0-0.3,0.2-0.5,0.5-0.5s0.5,0.2,0.5,0.5V39.3z M45.5,32.3h-1v-2h1V32.3z M49,44.8c0-0.3,0.2-0.5,0.5-0.5
	s0.5,0.2,0.5,0.5v1.5h-1V44.8z M46,38.8c0-0.3,0.2-0.5,0.5-0.5s0.5,0.2,0.5,0.5v0.5c0,0.3-0.2,0.5-0.5,0.5S46,39.5,46,39.3V38.8z
	 M46,44.8c0-0.3,0.2-0.5,0.5-0.5s0.5,0.2,0.5,0.5v1.5h-1V44.8z M46,49.3c0-0.3,0.2-0.5,0.5-0.5S47,49,47,49.3v2.5h-1V49.3z
	 M47.5,64.3h-1v-2h1V64.3z M47.5,60.8h-1v-2c0-0.3,0.2-0.5,0.5-0.5s0.5,0.2,0.5,0.5V60.8z M47.5,57.3h-1v-1h1V57.3z M48.5,51.8h-1
	v-2.5c0-0.3,0.2-0.5,0.5-0.5s0.5,0.2,0.5,0.5V51.8z M48.5,46.3h-1v-1.5c0-0.3,0.2-0.5,0.5-0.5s0.5,0.2,0.5,0.5V46.3z M48.5,39.3
	c0,0.3-0.2,0.5-0.5,0.5s-0.5-0.2-0.5-0.5v-0.5c0-0.3,0.2-0.5,0.5-0.5s0.5,0.2,0.5,0.5V39.3z M49,49.3c0-0.3,0.2-0.5,0.5-0.5
	S50,49,50,49.3v2.5h-1V49.3z M50.5,64.3h-1v-2h1V64.3z M50.5,60.8h-1v-2c0-0.3,0.2-0.5,0.5-0.5s0.5,0.2,0.5,0.5V60.8z M50.5,57.3h-1
	v-1h1V57.3z M51.5,51.8h-1v-2.5c0-0.3,0.2-0.5,0.5-0.5s0.5,0.2,0.5,0.5V51.8z M54.5,64.3h-1v-2h1V64.3z M54.5,60.8h-1v-2h1V60.8z
	 M54.5,57.3h-1v-1h1V57.3z M56.5,64.3h-1v-2h1V64.3z M56.5,60.8h-1v-2h1V60.8z M56.5,57.3h-1v-1h1V57.3z M58.5,64.3h-1v-2h1V64.3z
	 M58.5,60.8h-1v-2h1V60.8z M58.5,57.3h-1v-1h1V57.3z M60,53.3h0.5v1H60V53.3z M61.5,64.3h-1v-2h1V64.3z M61.5,60.8h-1v-2
	c0-0.3,0.2-0.5,0.5-0.5s0.5,0.2,0.5,0.5V60.8z M61,57.3c-0.3,0-0.5-0.2-0.5-0.5c0-0.3,0.2-0.5,0.5-0.5s0.5,0.2,0.5,0.5
	C61.5,57,61.3,57.3,61,57.3z M62,54.3h-0.5v-1H62V54.3z M64.5,64.3h-1v-2h1V64.3z M64.5,60.8h-1v-2h1V60.8z M64.5,57.3h-1v-1h1V57.3
	z M66.5,64.3h-1v-2h1V64.3z M66.5,60.8h-1v-2h1V60.8z M66.5,57.3h-1v-1h1V57.3z M69,60.8h-1v-2h1V60.8z M69,57.3h-1v-1h1V57.3z
	 M70.5,60.8h-1v-2h1V60.8z M70.5,57.3h-1v-1h1V57.3z M72,60.8h-1v-2h1V60.8z M72,57.3h-1v-1h1V57.3z M74,64.3h-1v-2h1V64.3z
	 M74,60.8h-1v-2h1V60.8z M74,57.3h-1v-1h1V57.3z M75.5,60.8h-1v-2h1V60.8z M75.5,57.3h-1v-1h1V57.3z M77,60.8h-1v-2h1V60.8z
	 M77,57.3h-1v-1h1V57.3z M78.5,60.8h-1v-2h1V60.8z M78.5,57.3h-1v-1h1V57.3z M80,60.8h-1v-2h1V60.8z M80,57.3h-1v-1h1V57.3z
	 M81.5,60.8h-1v-2h1V60.8z M81.5,57.3h-1v-1h1V57.3z M83,60.8h-1v-2h1V60.8z M83,57.3h-1v-1h1V57.3z M84.5,60.8h-1v-2h1V60.8z
	 M84.5,57.3h-1v-1h1V57.3z M86,60.8h-1v-2h1V60.8z M86,57.3h-1v-1h1V57.3z M87.5,60.8h-1v-2h1V60.8z M87.5,57.3h-1v-1h1V57.3z
	 M89,64.3h-1v-2h1V64.3z M89,60.8h-1v-2h1V60.8z M89,57.3h-1v-1h1V57.3z"/>
</svg>
