<?xml version="1.0" encoding="utf-8"?>
<!-- Generator: Adobe Illustrator 19.2.1, SVG Export Plug-In . SVG Version: 6.00 Build 0)  -->
<svg version="1.1" id="Layer_1" xmlns="http://www.w3.org/2000/svg" xmlns:xlink="http://www.w3.org/1999/xlink" x="0px" y="0px"
	 viewBox="0 0 90.1 90" style="enable-background:new 0 0 90.1 90;" xml:space="preserve">
<style type="text/css">
	.st0{fill:#FFFFFF;}
</style>
<g>
	<rect x="44.6" y="53.1" class="st0" width="0.9" height="1.9"/>
	<rect x="49.3" y="58.7" class="st0" width="1.9" height="0.9"/>
	<rect x="38.9" y="58.7" class="st0" width="1.9" height="0.9"/>
	<rect x="44.6" y="63.5" class="st0" width="0.9" height="1.9"/>
	
		<rect x="40.9" y="54.6" transform="matrix(0.7071 -0.7071 0.7071 0.7071 -27.1365 45.5372)" class="st0" width="0.9" height="1.9"/>
	
		<rect x="47.8" y="55.1" transform="matrix(0.7071 -0.7071 0.7071 0.7071 -24.9771 50.7483)" class="st0" width="1.9" height="0.9"/>
	
		<rect x="40.5" y="62.4" transform="matrix(0.7071 -0.7071 0.7071 0.7071 -32.3459 47.6963)" class="st0" width="1.9" height="0.9"/>
	
		<rect x="48.3" y="61.9" transform="matrix(0.7071 -0.7071 0.7071 0.7071 -30.1892 52.9067)" class="st0" width="0.9" height="1.9"/>
	<path class="st0" d="M59.3,47.4v-0.8c-5.2-1.9-9-6.7-9.4-12.5h0.9v-1.9h-0.9v-8.5h1l-1.9-1.9L45.1,0l-3.8,21.8l-1.9,1.9h0.9v8.5
		h-0.9v1.9h0.9c-0.4,5.8-4.2,10.6-9.4,12.5v0.8h2.4v21.8l-1.9,1.9l1.9,1.9V90h8.1v-4.7c0-2.1,1.7-3.8,3.8-3.8s3.8,1.7,3.8,3.8V90
		h8.1V72.9l1.9-1.9l-1.9-1.9V47.4L59.3,47.4L59.3,47.4z M42.2,24.6h5.7v6.6h-5.7C42.2,31.3,42.2,24.6,42.2,24.6z M47,42.6v3.3h-3.8
		v-3.3c0-1,0.8-1.9,1.9-1.9C46.1,40.7,47,41.6,47,42.6z M45.1,78.6c-1.6,0-2.8-1.3-2.8-2.8c0-1.6,1.3-2.8,2.8-2.8s2.8,1.3,2.8,2.8
		C47.9,77.4,46.7,78.6,45.1,78.6z M45.1,66.3c-3.9,0-7.1-3.2-7.1-7.1c0-3.9,3.2-7.1,7.1-7.1c3.9,0,7.1,3.2,7.1,7.1
		S49,66.3,45.1,66.3z"/>
</g>
</svg>
