<?xml version="1.0" encoding="utf-8"?>
<!-- Generator: Adobe Illustrator 19.2.1, SVG Export Plug-In . SVG Version: 6.00 Build 0)  -->
<svg version="1.1" id="Layer_1" xmlns="http://www.w3.org/2000/svg" xmlns:xlink="http://www.w3.org/1999/xlink" x="0px" y="0px"
	 viewBox="0 0 90 90" style="enable-background:new 0 0 90 90;" xml:space="preserve">
<style type="text/css">
	.st0{fill:#FFFFFF;}
</style>
<g>
	<g>
		<path class="st0" d="M45.4,36.8c0,0.2-0.2,0.4-0.4,0.4l0,0c-0.2,0-0.4-0.2-0.4-0.4v-1.6c0-0.2,0.2-0.4,0.4-0.4l0,0
			c0.2,0,0.4,0.2,0.4,0.4V36.8z"/>
		<path class="st0" d="M42.1,40.1c0,0.2-0.2,0.4-0.4,0.4h-1.6c-0.2,0-0.4-0.2-0.4-0.4l0,0c0-0.2,0.2-0.4,0.4-0.4h1.6
			C42,39.7,42.1,39.9,42.1,40.1L42.1,40.1z"/>
		<path class="st0" d="M45.4,45c0,0.2-0.2,0.4-0.4,0.4l0,0c-0.2,0-0.4-0.2-0.4-0.4v-1.6c0-0.2,0.2-0.4,0.4-0.4l0,0
			c0.2,0,0.4,0.2,0.4,0.4V45z"/>
		<path class="st0" d="M50.3,40.1c0,0.2-0.2,0.4-0.4,0.4h-1.6c-0.2,0-0.4-0.2-0.4-0.4l0,0c0-0.2,0.2-0.4,0.4-0.4h1.6
			C50.1,39.7,50.3,39.9,50.3,40.1L50.3,40.1z"/>
		<path class="st0" d="M43,37.5c0.2,0.2,0.2,0.4,0,0.6l0,0c-0.2,0.2-0.4,0.2-0.6,0l-1.2-1.2c-0.2-0.2-0.2-0.4,0-0.6l0,0
			c0.2-0.2,0.4-0.2,0.6,0L43,37.5z"/>
		<path class="st0" d="M42.4,42.1c0.2-0.2,0.4-0.2,0.6,0l0,0c0.2,0.2,0.2,0.4,0,0.6l-1.2,1.2c-0.2,0.2-0.4,0.2-0.6,0l0,0
			c-0.2-0.2-0.2-0.4,0-0.6L42.4,42.1z"/>
		<path class="st0" d="M47,42.7c-0.2-0.2-0.2-0.4,0-0.6l0,0c0.2-0.2,0.4-0.2,0.6,0l1.2,1.2c0.2,0.2,0.2,0.4,0,0.6l0,0
			c-0.2,0.2-0.4,0.2-0.6,0L47,42.7z"/>
		<path class="st0" d="M47.6,38.1c-0.2,0.2-0.4,0.2-0.6,0l0,0c-0.2-0.2-0.2-0.4,0-0.6l1.2-1.2c0.2-0.2,0.4-0.2,0.6,0l0,0
			c0.2,0.2,0.2,0.4,0,0.6L47.6,38.1z"/>
	</g>
	<path class="st0" d="M52.4,32.7v-4.1l-3.3-8.2v-6.1L45,0l-4.1,14.3v6.1l-3.3,8.2v4.1h-0.8v18.8h0.8V90h14.7V51.5h0.8V32.7H52.4z
		 M49.1,30.3C49.1,30.3,49.1,30.3,49.1,30.3c0-0.6,0.4-1.1,0.8-1.2c0.5,0.2,0.8,0.7,0.8,1.2c0,0,0,0,0,0v2.5h-1.6V30.3z M46.6,16
		C46.6,16,46.6,16,46.6,16c0-0.6,0.4-1.1,0.8-1.2c0.5,0.2,0.8,0.7,0.8,1.2c0,0,0,0,0,0v3.7h-1.6V16z M46.6,30.3
		C46.6,30.3,46.6,30.3,46.6,30.3c0-0.6,0.4-1.1,0.8-1.2c0.5,0.2,0.8,0.7,0.8,1.2c0,0,0,0,0,0v2.5h-1.6V30.3z M44.2,16
		C44.2,16,44.2,16,44.2,16c0-0.6,0.4-1.1,0.8-1.2c0.5,0.2,0.8,0.7,0.8,1.2c0,0,0,0,0,0v3.7h-1.6V16z M44.2,30.3
		C44.2,30.3,44.2,30.3,44.2,30.3c0-0.6,0.4-1.1,0.8-1.2c0.5,0.2,0.8,0.7,0.8,1.2c0,0,0,0,0,0v2.5h-1.6V30.3z M41.7,16
		C41.7,16,41.7,16,41.7,16c0-0.6,0.4-1.1,0.8-1.2c0.5,0.2,0.8,0.7,0.8,1.2c0,0,0,0,0,0v3.7h-1.6V16z M41.7,30.3
		C41.7,30.3,41.7,30.3,41.7,30.3c0-0.6,0.4-1.1,0.8-1.2c0.5,0.2,0.8,0.7,0.8,1.2c0,0,0,0,0,0v2.5h-1.6V30.3z M39.3,30.3
		C39.3,30.3,39.3,30.3,39.3,30.3c0-0.6,0.4-1.1,0.8-1.2c0.5,0.2,0.8,0.7,0.8,1.2c0,0,0,0,0,0v2.5h-1.6L39.3,30.3L39.3,30.3z
		 M40.9,85.5c0,0.2-0.2,0.4-0.4,0.4c-0.2,0-0.4-0.2-0.4-0.4V74c0-0.2,0.2-0.4,0.4-0.4c0.2,0,0.4,0.2,0.4,0.4V85.5z M40.9,69.1
		c0,0.2-0.2,0.4-0.4,0.4c-0.2,0-0.4-0.2-0.4-0.4V57.7c0-0.2,0.2-0.4,0.4-0.4c0.2,0,0.4,0.2,0.4,0.4V69.1z M40.9,48.7v1.6h-1.6v-1.6
		v0c0-0.6,0.4-1.1,0.8-1.2C40.6,47.6,40.9,48.1,40.9,48.7L40.9,48.7L40.9,48.7z M43.4,85.5c0,0.2-0.2,0.4-0.4,0.4
		c-0.2,0-0.4-0.2-0.4-0.4V74c0-0.2,0.2-0.4,0.4-0.4c0.2,0,0.4,0.2,0.4,0.4V85.5z M43.4,69.1c0,0.2-0.2,0.4-0.4,0.4
		c-0.2,0-0.4-0.2-0.4-0.4V57.7c0-0.2,0.2-0.4,0.4-0.4c0.2,0,0.4,0.2,0.4,0.4V69.1z M43.4,48.7v1.6h-1.6v-1.6v0
		c0-0.6,0.4-1.1,0.8-1.2C43,47.6,43.4,48.1,43.4,48.7L43.4,48.7z M45.8,48.7v1.6h-1.6v-1.6v0c0-0.6,0.4-1.1,0.8-1.2
		C45.5,47.6,45.8,48.1,45.8,48.7L45.8,48.7z M47.5,85.5c0,0.2-0.2,0.4-0.4,0.4c-0.2,0-0.4-0.2-0.4-0.4V74c0-0.2,0.2-0.4,0.4-0.4
		c0.2,0,0.4,0.2,0.4,0.4V85.5z M47.5,69.1c0,0.2-0.2,0.4-0.4,0.4c-0.2,0-0.4-0.2-0.4-0.4V57.7c0-0.2,0.2-0.4,0.4-0.4
		c0.2,0,0.4,0.2,0.4,0.4V69.1z M48.3,48.7v1.6h-1.6v-1.6c0,0,0,0,0,0c0-0.6,0.4-1.1,0.8-1.2C47.9,47.6,48.3,48.1,48.3,48.7
		L48.3,48.7z M49.9,85.5c0,0.2-0.2,0.4-0.4,0.4c-0.2,0-0.4-0.2-0.4-0.4V74c0-0.2,0.2-0.4,0.4-0.4c0.2,0,0.4,0.2,0.4,0.4V85.5z
		 M49.9,69.1c0,0.2-0.2,0.4-0.4,0.4c-0.2,0-0.4-0.2-0.4-0.4V57.7c0-0.2,0.2-0.4,0.4-0.4c0.2,0,0.4,0.2,0.4,0.4V69.1z M50.7,48.7v1.6
		h-1.6v-1.6c0,0,0,0,0,0c0-0.6,0.4-1.1,0.8-1.2C50.4,47.6,50.7,48.1,50.7,48.7L50.7,48.7z M45,46.2c-3.4,0-6.1-2.7-6.1-6.1
		S41.6,34,45,34c3.4,0,6.1,2.7,6.1,6.1C51.1,43.5,48.4,46.2,45,46.2z"/>
</g>
</svg>
