<?xml version="1.0" encoding="utf-8"?>
<!-- Generator: Adobe Illustrator 19.2.1, SVG Export Plug-In . SVG Version: 6.00 Build 0)  -->
<svg version="1.1" id="Layer_1" xmlns="http://www.w3.org/2000/svg" xmlns:xlink="http://www.w3.org/1999/xlink" x="0px" y="0px"
	 viewBox="0 0 90 90" style="enable-background:new 0 0 90 90;" xml:space="preserve">
<style type="text/css">
	.st0{fill:#FFFFFF;}
</style>
<path class="st0" d="M81.1,77l-3.9-11.1L73.3,77L71,78.4L69.1,77v-6.3V56.3h-1v-9.6h0c0.9-1.2,1.4-2.7,1.4-4.3
	c0-3.5-5.6-6.8-6.2-9.6c0.5,0,0.9-0.4,0.9-1c0-0.5-0.4-1-1-1c-0.5,0-1,0.4-1,1c0,0.5,0.4,0.9,0.9,1c-0.6,2.8-6.2,6.2-6.2,9.6
	c0,1.6,0.5,3.1,1.5,4.3h0V49c-1-0.9-1.9-1.6-2.3-2.3c0.5-0.1,0.8-0.5,0.8-1c0-0.5-0.4-1-1-1s-1,0.4-1,1c0,0.5,0.4,0.9,0.8,1
	c-0.4,0.7-1.3,1.4-2.3,2.3v-7.1L46.4,14V9.1c1.1-0.2,1.9-1.2,1.9-2.4c0-1.3-0.8-2.5-1.9-3c-0.7-0.4-1.2-1-1.4-1.8
	c0.5,0,0.9-0.5,0.9-1c0-0.5-0.4-1-1-1s-1,0.4-1,1c0,0.5,0.4,0.9,0.9,1c-0.2,0.8-0.6,1.4-1.3,1.7c-1.2,0.5-2,1.7-2,3.1
	c0,1.2,0.8,2.1,1.9,2.4V14l-7.2,27.9V49c-1-0.9-1.9-1.6-2.3-2.3c0.5-0.1,0.8-0.5,0.8-1c0-0.5-0.4-1-1-1c-0.5,0-1,0.4-1,1
	c0,0.5,0.4,0.9,0.9,1c-0.4,0.7-1.3,1.4-2.3,2.3v-2.3h0c0.9-1.2,1.5-2.7,1.5-4.3c0-3.5-5.6-6.8-6.2-9.6c0.5,0,0.9-0.4,0.9-1
	c0-0.5-0.4-1-1-1c-0.5,0-1,0.4-1,1c0,0.5,0.4,0.9,0.9,1c-0.6,2.8-6.2,6.2-6.2,9.6c0,1.6,0.5,3.1,1.5,4.3h0v9.6h-1v14.4V77l-2,1.4
	L16.6,77l-3.9-11.1L8.9,77l-2.4,1.4V90h1.9v-6.7c0-1.1,0.9-1.9,1.9-1.9c1.1,0,1.9,0.9,1.9,1.9v0.5h1v-0.5c0-1.1,0.9-1.9,1.9-1.9
	c1.1,0,1.9,0.9,1.9,1.9V90h7.2c0-1.3,1.1-2.4,2.4-2.4c1.3,0,2.4,1.1,2.4,2.4h2.4v-5.3c0-1.3,1.1-2.4,2.4-2.4c1.3,0,2.4,1.1,2.4,2.4
	V90h17.3v-5.3c0-1.3,1.1-2.4,2.4-2.4s2.4,1.1,2.4,2.4V90h2.4c0-1.3,1.1-2.4,2.4-2.4c1.3,0,2.4,1.1,2.4,2.4h7.2v-6.3
	c0-1.1,0.9-1.9,1.9-1.9c1.1,0,1.9,0.9,1.9,1.9v0.5h1v-0.5c0-1.1,0.9-1.9,1.9-1.9s1.9,0.9,1.9,1.9V90h1.9V78.4L81.1,77z M26.2,51.5h1
	v4.8h-1V51.5z M23.3,51.5h1v4.8h-1V51.5z M23.3,70.7v-2.9h1v2.9H23.3z M26.2,83.3h-1.9v-1.9c0-0.5,0.4-1,1-1c0.5,0,1,0.4,1,1V83.3z
	 M26.2,70.7v-2.9h1v2.9H26.2z M29.1,83.3h-1.9v-1.9c0-0.5,0.4-1,1-1c0.5,0,1,0.4,1,1C29.1,81.3,29.1,83.3,29.1,83.3z M30.1,70.7h-1
	v-2.9h1V70.7z M30.1,56.3h-1v-4.8h1V56.3z M34.4,80.4h-2.9v-1.4c0-0.8,0.6-1.4,1.4-1.4s1.4,0.6,1.4,1.4V80.4z M34.4,70.7h-1v-1.9h1
	V70.7z M34.4,61.1h-1v-3.9h1V61.1z M38.3,80.4h-1.9v-1.9c0-0.5,0.4-1,1-1c0.5,0,1,0.4,1,1C38.3,78.4,38.3,80.4,38.3,80.4z
	 M40.7,85.2h-1v-2.9h1V85.2z M42.1,80.4h-1.9v-1.9c0-0.5,0.4-1,1-1c0.5,0,1,0.4,1,1C42.1,78.4,42.1,80.4,42.1,80.4z M40.7,70.7v-4.8
	h1v4.8H40.7z M41.1,58.2c-0.5,0-1-0.4-1-1c0-0.5,0.4-1,1-1c0.5,0,1,0.4,1,1C42.1,57.8,41.7,58.2,41.1,58.2z M42.6,51.5h-1v-4.8h1
	V51.5z M44.5,46.7h1v4.8h-1V46.7z M45.5,85.2h-1v-2.9h1V85.2z M46,80.4H44v-1.9c0-0.5,0.4-1,1-1s1,0.4,1,1L46,80.4L46,80.4z
	 M44.5,70.7v-4.8h1v4.8H44.5z M45,58.2c-0.5,0-1-0.4-1-1c0-0.5,0.4-1,1-1s1,0.4,1,1C46,57.8,45.5,58.2,45,58.2z M49.8,57.3
	c0,0.5-0.4,1-1,1c-0.5,0-1-0.4-1-1c0-0.5,0.4-1,1-1C49.4,56.3,49.8,56.7,49.8,57.3z M49.3,65.9v4.8h-1v-4.8H49.3z M47.4,46.7h1v4.8
	h-1V46.7z M47.9,78.4c0-0.5,0.4-1,1-1c0.5,0,1,0.4,1,1v1.9h-1.9C47.9,80.4,47.9,78.4,47.9,78.4z M50.3,85.2h-1v-2.9h1V85.2z
	 M53.7,80.4h-1.9v-1.9c0-0.5,0.4-1,1-1c0.5,0,1,0.4,1,1C53.7,78.4,53.7,80.4,53.7,80.4z M55.6,57.3h1v3.9h-1V57.3z M55.6,68.8h1v1.9
	h-1V68.8z M58.5,80.4h-2.9v-1.4c0-0.8,0.6-1.4,1.4-1.4c0.8,0,1.4,0.6,1.4,1.4L58.5,80.4L58.5,80.4z M62.8,51.5h1v4.8h-1V51.5z
	 M59.9,51.5h1v4.8h-1V51.5z M59.9,70.7v-2.9h1v2.9H59.9z M62.8,83.3h-1.9v-1.9c0-0.5,0.4-1,1-1c0.5,0,1,0.4,1,1
	C62.8,81.3,62.8,83.3,62.8,83.3z M62.8,70.7v-2.9h1v2.9H62.8z M65.7,83.3h-1.9v-1.9c0-0.5,0.4-1,1-1s1,0.4,1,1L65.7,83.3L65.7,83.3z
	 M66.7,70.7h-1v-2.9h1V70.7z M66.7,56.3h-1v-4.8h1V56.3z"/>
</svg>
