<?xml version="1.0" encoding="utf-8"?>
<!-- Generator: Adobe Illustrator 19.2.1, SVG Export Plug-In . SVG Version: 6.00 Build 0)  -->
<svg version="1.1" id="Layer_1" xmlns="http://www.w3.org/2000/svg" xmlns:xlink="http://www.w3.org/1999/xlink" x="0px" y="0px"
	 viewBox="0 0 90 90" style="enable-background:new 0 0 90 90;" xml:space="preserve">
<style type="text/css">
	.st0{fill:#777777;}
</style>
<path class="st0" d="M75,39.5h-4.5v-6l19.5-1l-17-6l-1.5-3v-2h-53v2l-1.5,3l-17,6l19.5,1v6H15v4l-15,5l17,1v19h12.5v-14h3v1
	c-0.8,0-1.5,0.7-1.5,1.5v2c0,0.8,0.7,1.5,1.5,1.5v1h3v-1c0.8,0,1.5-0.7,1.5-1.5v-2c0-0.8-0.7-1.5-1.5-1.5v-1h3v14H40v-14h4.5
	c-1.7,0-3,1.3-3,3v2c0,1.5,1.1,2.7,2.5,3v1h2v-1c1.4-0.2,2.5-1.5,2.5-3v-2c0-1.7-1.3-3-3-3H50v14h1.5v-14h3v1
	c-0.8,0-1.5,0.7-1.5,1.5v2c0,0.8,0.7,1.5,1.5,1.5v1h3v-1c0.8,0,1.5-0.7,1.5-1.5v-2c0-0.8-0.7-1.5-1.5-1.5v-1h3v14H73v-19l17-1l-15-5
	V39.5z M20.5,38.5h5v1h-5V38.5z M28,62.5h-9v-6h9V62.5z M31.5,39.5v-1h2v1H31.5z M36.5,39.5h-2v-1h2V39.5z M42.5,39.5v-1h2v1H42.5z
	 M47.5,39.5h-2v-1h2V39.5z M53.5,39.5v-1h2v1H53.5z M58.5,39.5h-2v-1h2V39.5z M64.5,38.5h5v1h-5V38.5z M71,62.5h-9v-6h9V62.5z"/>
</svg>
